<svg width="20" height="20" viewBox="0 0 20 20" fill="none" xmlns="http://www.w3.org/2000/svg">
<g clip-path="url(#clip0)">
<path d="M18.165 5.63528L10.1651 2.03532C10.063 1.98962 9.94637 1.98844 9.84344 2.03258L1.44355 5.63251C1.29648 5.6954 1.20117 5.83993 1.20117 6.00008C1.20117 6.16024 1.29648 6.30477 1.44355 6.36766L9.84344 9.96762C9.89383 9.98911 9.94754 10 10.0011 10C10.0571 10 10.113 9.98833 10.1651 9.96489L18.165 6.36493C18.3086 6.30008 18.4009 6.15751 18.4009 6.00008C18.4009 5.84266 18.3086 5.70008 18.165 5.63528ZM9.99715 9.16333L2.6166 6.00008L9.99715 2.83684L17.0262 6.00008L9.99715 9.16333Z" fill="#C3CAD6"/>
<path d="M19.9636 9.43326C19.8714 9.23209 19.6335 9.14498 19.4333 9.23639L10 13.5602L0.566727 9.23639C0.366336 9.14459 0.128641 9.23209 0.0364536 9.43326C-0.0555386 9.63404 0.0325474 9.87154 0.233524 9.96373L9.83341 14.3637C9.88634 14.3879 9.94317 14.4 10 14.4C10.0568 14.4 10.1137 14.3879 10.1666 14.3637L19.7665 9.96373C19.9675 9.87154 20.0556 9.63404 19.9636 9.43326Z" fill="#C3CAD6"/>
<path d="M19.9636 13.0331C19.8714 12.8319 19.6335 12.745 19.4333 12.8362L10 17.16L0.566727 12.8362C0.366336 12.7444 0.128641 12.8319 0.0364536 13.0331C-0.0555386 13.2339 0.0325474 13.4714 0.233524 13.5636L9.83341 17.9635C9.88634 17.9878 9.94317 17.9999 10 17.9999C10.0568 17.9999 10.1137 17.9878 10.1666 17.9635L19.7665 13.5636C19.9675 13.4714 20.0556 13.2339 19.9636 13.0331Z" fill="#C3CAD6"/>
</g>
<defs>
<clipPath id="clip0">
<rect width="20" height="20" fill="white"/>
</clipPath>
</defs>
</svg>
