<svg width="136" height="71" viewBox="0 0 136 71" fill="none" xmlns="http://www.w3.org/2000/svg">
<g>
<path d="M116.87 44.2841H15.5684V45.0712H116.87V44.2841Z" fill="#020203"/>
<path fill-rule="evenodd" clip-rule="evenodd" d="M40.0482 63.5339C39.1966 64.4522 38.0932 64.8458 36.8698 64.8458C35.6464 64.8458 34.5429 64.4522 33.6913 63.665C32.5879 62.4843 32.5879 61.3035 32.5879 58.6916C32.5879 56.1989 32.5879 55.0301 33.6913 53.8493C34.5429 53.0621 35.6464 52.6686 36.8698 52.6686C39.1966 52.6686 40.7798 54.1117 41.1516 56.1989H39.8083C39.4365 54.7558 38.345 53.7062 36.8698 53.7062C36.0182 53.7062 35.2746 54.0998 34.7828 54.6246C34.0512 55.4117 33.9312 56.1989 33.9312 58.6797C33.9312 61.2916 34.0512 62.0788 34.7828 62.866C35.2746 63.3907 36.0062 63.7843 36.8698 63.7843C37.7213 63.7843 38.5849 63.3907 39.1966 62.7348C39.6884 62.0788 39.8083 61.4228 39.8083 60.5045V59.5861H36.8698V58.4053H41.1396V60.3613C41.1396 61.8283 40.8998 62.7467 40.0482 63.5339Z" fill="#020203"/>
<path fill-rule="evenodd" clip-rule="evenodd" d="M52.4006 53.8493H49.2222V58.298H52.4006C53.8759 58.298 54.8474 57.5108 54.8474 56.0677C54.8474 54.6246 53.8639 53.8493 52.4006 53.8493ZM54.8474 64.8339L52.1608 59.4668H49.2222V64.8339H47.8789V52.6686H52.5326C54.7395 52.6686 56.2027 53.9805 56.2027 56.0677C56.2027 57.9044 55.0993 58.942 53.5161 59.3356L56.4546 64.8339H54.8474Z" fill="#020203"/>
<path fill-rule="evenodd" clip-rule="evenodd" d="M68.7965 54.6246C68.1848 54.0998 67.4532 53.7062 66.7216 53.7062C65.87 53.7062 65.1264 54.0998 64.5147 54.6246C63.7831 55.4117 63.6631 56.1989 63.6631 58.6797C63.6631 61.2916 63.7831 62.0788 64.5147 62.866C65.1264 63.3907 65.858 63.7843 66.7216 63.7843C67.4532 63.7843 68.1848 63.3907 68.7965 62.866C69.5282 62.0788 69.6481 61.2916 69.6481 58.6797C69.6481 56.1989 69.5282 55.4117 68.7965 54.6246ZM69.7681 63.665C68.9165 64.4522 67.813 64.8458 66.7096 64.8458C65.3663 64.8458 64.3828 64.4522 63.5312 63.665C62.4277 62.4843 62.4277 61.3035 62.4277 58.6916C62.4277 56.1989 62.4277 55.0301 63.5312 53.8493C64.3828 53.0621 65.3663 52.6686 66.7096 52.6686C67.813 52.6686 68.9165 53.0621 69.7681 53.8493C70.8715 55.0301 70.8715 56.2108 70.8715 58.6916C70.8715 61.3035 70.8715 62.4843 69.7681 63.665Z" fill="#020203"/>
<path fill-rule="evenodd" clip-rule="evenodd" d="M81.7623 64.8339C79.3155 64.8339 77.4805 63.2595 77.4805 60.7788V52.6686H78.8238V60.6476C78.8238 62.4843 80.0472 63.7843 81.7623 63.7843C83.5974 63.7843 84.7008 62.4724 84.7008 60.6476V52.6686H86.0441V60.7788C86.0441 63.2715 84.2091 64.8339 81.7623 64.8339Z" fill="#020203"/>
<path fill-rule="evenodd" clip-rule="evenodd" d="M97.5463 53.8493H94.3679V58.6916H97.5463C99.0096 58.6916 100.113 57.9044 100.113 56.1989C100.113 54.6246 99.0216 53.8493 97.5463 53.8493ZM97.6663 59.8604H94.3679V64.8339H93.1445V52.6686H97.6663C99.8732 52.6686 101.456 54.1117 101.456 56.1989C101.468 58.4292 99.8732 59.8604 97.6663 59.8604Z" fill="#020203"/>
<path fill-rule="evenodd" clip-rule="evenodd" d="M119.604 11.1157C118.717 11.1157 117.997 11.8433 117.997 12.7378C117.997 13.6323 118.717 14.3598 119.604 14.3598C120.492 14.3598 121.224 13.6323 121.224 12.7378C121.224 11.8433 120.492 11.1157 119.604 11.1157ZM119.604 14.6341C118.549 14.6341 117.697 13.7873 117.697 12.7378C117.697 11.6882 118.561 10.8414 119.604 10.8414C120.66 10.8414 121.511 11.6882 121.511 12.7378C121.523 13.7873 120.66 14.6341 119.604 14.6341Z" fill="#020203"/>
<path fill-rule="evenodd" clip-rule="evenodd" d="M119.664 11.9506H119.268V12.6901H119.664C119.892 12.6901 120.06 12.535 120.06 12.3323C120.06 12.1057 119.904 11.9506 119.664 11.9506ZM120.072 13.7754L119.592 12.9167H119.28V13.7754H118.992V11.7002H119.7C120.06 11.7002 120.359 11.9745 120.359 12.3203C120.359 12.6185 120.168 12.8093 119.916 12.8928L120.407 13.7873H120.072V13.7754Z" fill="#020203"/>
<path fill-rule="evenodd" clip-rule="evenodd" d="M113.079 34.1344C107.861 34.1344 104.755 31.4866 104.563 27.7178H109.48C109.48 28.8866 110.224 30.616 113.391 30.6756C115.501 30.6756 116.497 29.4471 116.497 28.5169C116.377 27.026 114.506 26.9067 112.515 26.5967C110.536 26.2866 108.857 25.9168 107.609 25.2966C106.062 24.4975 105.007 22.7801 105.007 20.7883C105.007 17.4488 107.921 14.8011 112.767 14.8011C117.492 14.8011 120.479 17.2699 120.779 20.9195H116.065C115.993 19.9296 115.813 18.391 113.019 18.391C111.16 18.391 109.924 18.7608 109.792 20.0489C109.792 21.981 113.702 21.8498 116.761 22.6489C119.687 23.3884 121.534 25.1774 121.534 27.7178C121.534 32.3334 117.744 34.1344 113.079 34.1344ZM87.3635 24.4379C87.3635 27.3361 89.8463 29.7453 92.7728 29.7453C95.6994 29.7453 98.1101 27.3361 98.1101 24.4379C98.1101 21.5397 95.6994 19.0589 92.7728 19.0589C89.8463 19.047 87.3635 21.5278 87.3635 24.4379ZM92.5689 34.1344C87.2436 34.1344 82.8178 29.7453 82.8178 24.4379C82.8178 19.0589 87.2316 14.7892 92.5689 14.7892C94.6199 14.7892 96.5509 15.3497 98.1101 16.4589V14.9681H102.764V33.6931H98.1101V32.4527C96.5509 33.5142 94.7038 34.1344 92.5689 34.1344ZM65.8583 24.4379C65.8583 27.3361 68.341 29.7453 71.1956 29.7453C74.1821 29.7453 76.6529 27.3361 76.6529 24.4379C76.6529 21.5397 74.1701 19.0589 71.1956 19.0589C68.341 19.047 65.8583 21.5278 65.8583 24.4379ZM76.6649 8.61111H81.2706V33.6931H76.6649V32.4527C75.1177 33.5142 73.1866 34.1224 71.0757 34.1224C65.7383 34.1224 61.3246 29.7334 61.3246 24.426C61.3246 19.047 65.7383 14.7772 71.0757 14.7772C73.1866 14.7772 75.0697 15.3378 76.6649 16.447V8.61111ZM59.4655 33.6931H54.7998V14.9681H59.4655V33.6931ZM36.9528 24.4379C36.9528 27.3361 39.4355 29.7453 42.422 29.7453C45.3486 29.7453 47.8433 27.3361 47.8433 24.4379C47.8433 21.5397 45.3486 19.0589 42.422 19.0589C39.4475 19.047 36.9528 21.5278 36.9528 24.4379ZM42.3141 34.1344C36.9048 34.1344 32.479 29.7453 32.479 24.4379C32.479 19.0589 36.9048 14.7892 42.3141 14.7892C44.365 14.7892 46.2241 15.3497 47.8553 16.4589V8.61111H52.509V33.6931H47.8553V32.4527C46.2241 33.5142 44.365 34.1344 42.3141 34.1344ZM15.3875 24.4379C15.3875 27.3361 17.8823 29.7453 20.8088 29.7453C23.7833 29.7453 26.2781 27.3361 26.2781 24.4379C26.2781 21.5397 23.7833 19.0589 20.8088 19.0589C17.8823 19.047 15.3875 21.5278 15.3875 24.4379ZM20.6769 34.1344C15.3396 34.1344 10.9258 29.7453 10.9258 24.4379C10.9258 19.0589 15.3396 14.7892 20.6769 14.7892C22.7279 14.7892 24.6589 15.3497 26.2781 16.4589V14.9681H30.8718V33.6931H26.2781V32.4527C24.7189 33.5142 22.7998 34.1344 20.6769 34.1344ZM54.7998 13.2506V8.61111H59.4655V13.2387H54.7998V13.2506Z" fill="#020203"/>
</g>
</svg>
