<svg width="48" height="48" viewBox="0 0 48 48" fill="none" xmlns="http://www.w3.org/2000/svg">
<path d="M24.7742 27.871H37.1613V26.3226H24.7742V21.6774H26.3226V20.129H24.7742V17.0323H34.0645V15.4839H24.7742V6.96774C24.7742 3.12626 21.6479 0 17.8065 0C15.014 0 12.6064 1.65537 11.4953 4.03352L11.4587 4.04146C7.51058 4.84249 4.64516 8.35282 4.64516 12.3871C4.64516 13.3624 4.81074 14.3173 5.13924 15.2329C1.99521 17.0043 0 20.3698 0 24C0 27.2926 1.63193 30.3776 4.30607 32.2496C3.54435 33.4483 3.09677 34.8652 3.09677 36.3871C3.09677 40.6561 6.56968 44.129 10.8387 44.129C11.0716 44.129 11.3086 44.1166 11.5532 44.0927C12.7122 46.4524 15.1516 48 17.8065 48C21.6479 48 24.7742 44.8737 24.7742 41.0323V32.5161H30.1935V30.9677H24.7742V27.871ZM23.2258 41.0323C23.2258 44.0205 20.7947 46.4516 17.8065 46.4516C15.5806 46.4516 13.5491 45.0518 12.7504 42.9685L12.5224 42.3739L11.8957 42.4824C11.5161 42.5489 11.1702 42.5806 10.8387 42.5806C7.42364 42.5806 4.64516 39.8022 4.64516 36.3871C4.64516 32.972 7.42364 30.1935 10.8387 30.1935V28.6452C8.65411 28.6452 6.68196 29.5588 5.27306 31.0188C2.96825 29.4394 1.54839 26.8151 1.54839 24C1.54839 20.7214 3.47291 17.698 6.45136 16.2974L7.14504 15.9715L6.82598 15.2748C6.40638 14.3558 6.19355 13.3851 6.19355 12.3871C6.19355 9.37613 8.14604 6.72845 10.9472 5.78642C10.8807 6.17124 10.8387 6.56439 10.8387 6.96774C10.8387 8.19254 11.1615 9.3973 11.7717 10.4516L13.1118 9.67666C12.6381 8.85748 12.3871 7.91998 12.3871 6.96774C12.3871 3.97946 14.8182 1.54839 17.8065 1.54839C20.7947 1.54839 23.2258 3.97946 23.2258 6.96774V41.0323Z" fill="white"/>
<path d="M17.8066 43.3548V44.9032C19.941 44.9032 21.6776 43.1666 21.6776 41.0322H20.1292C20.1292 42.3126 19.087 43.3548 17.8066 43.3548Z" fill="white"/>
<path d="M7.74175 36.3872H6.19336C6.19336 38.9491 8.27665 41.0324 10.8385 41.0324V39.484C9.13061 39.484 7.74175 38.0951 7.74175 36.3872Z" fill="white"/>
<path d="M43.3546 38.078V34.8387C43.3546 32.7044 41.618 30.9678 39.4836 30.9678H31.7417V32.5162H39.4836C40.764 32.5162 41.8062 33.5584 41.8062 34.8387V38.078C40.9073 38.3986 40.2578 39.2503 40.2578 40.2581C40.2578 41.5385 41.3 42.5807 42.5804 42.5807C43.8608 42.5807 44.903 41.5385 44.903 40.2581C44.903 39.2503 44.2535 38.3986 43.3546 38.078ZM42.5804 41.0323C42.154 41.0323 41.8062 40.6845 41.8062 40.2581C41.8062 39.8317 42.154 39.4839 42.5804 39.4839C43.0068 39.4839 43.3546 39.8317 43.3546 40.2581C43.3546 40.6845 43.0068 41.0323 42.5804 41.0323Z" fill="white"/>
<path d="M45.6772 24.7742C44.6694 24.7742 43.8177 25.4236 43.4971 26.3226H38.7095V27.8709H43.4971C43.8177 28.7699 44.6694 29.4193 45.6772 29.4193C46.9576 29.4193 47.9998 28.3771 47.9998 27.0968C47.9998 25.8164 46.9576 24.7742 45.6772 24.7742ZM45.6772 27.8709C45.2508 27.8709 44.903 27.5232 44.903 27.0968C44.903 26.6703 45.2508 26.3226 45.6772 26.3226C46.1036 26.3226 46.4514 26.6703 46.4514 27.0968C46.4514 27.5232 46.1036 27.8709 45.6772 27.8709Z" fill="white"/>
<path d="M43.4975 20.129H27.8711V21.6773H43.4975C43.818 22.5763 44.6697 23.2257 45.6775 23.2257C46.9579 23.2257 48.0001 22.1835 48.0001 20.9031C48.0001 19.6228 46.9579 18.5806 45.6775 18.5806C44.6697 18.5806 43.818 19.23 43.4975 20.129ZM45.6775 20.129C46.104 20.129 46.4517 20.4767 46.4517 20.9031C46.4517 21.3296 46.104 21.6773 45.6775 21.6773C45.2511 21.6773 44.9034 21.3296 44.9034 20.9031C44.9034 20.4767 45.2511 20.129 45.6775 20.129Z" fill="white"/>
<path d="M43.3547 13.1614V9.92208C44.2537 9.60152 44.9031 8.74983 44.9031 7.74201C44.9031 6.46165 43.8609 5.41943 42.5805 5.41943C41.3002 5.41943 40.258 6.46165 40.258 7.74201C40.258 8.74983 40.9074 9.60152 41.8063 9.92208V13.1614C41.8063 14.4417 40.7641 15.4839 39.4838 15.4839H35.6128V17.0323H39.4838C41.6181 17.0323 43.3547 15.2957 43.3547 13.1614ZM42.5805 6.96782C43.0069 6.96782 43.3547 7.3156 43.3547 7.74201C43.3547 8.16843 43.0069 8.51621 42.5805 8.51621C42.1541 8.51621 41.8063 8.16843 41.8063 7.74201C41.8063 7.3156 42.1541 6.96782 42.5805 6.96782Z" fill="white"/>
<path d="M8.42262 20.0354C6.91316 21.5444 6.91316 24.0008 8.42262 25.5099L9.51737 24.4152C8.61238 23.5094 8.61238 22.0359 9.51737 21.1301C10.4231 20.2236 11.8967 20.2244 12.8024 21.1301L13.8972 20.0354C12.3873 18.5267 9.93169 18.5259 8.42262 20.0354Z" fill="white"/>
<path d="M17.8065 3.09668C15.6722 3.09668 13.9355 4.83332 13.9355 6.96765H15.4839C15.4839 5.68728 16.5261 4.64507 17.8065 4.64507C19.0869 4.64507 20.1291 5.68728 20.1291 6.96765H21.6775C21.6775 4.83332 19.9408 3.09668 17.8065 3.09668Z" fill="white"/>
<path d="M20.9032 17.8065C20.9032 15.6722 19.1666 13.9355 17.0322 13.9355V15.4839C18.3126 15.4839 19.3548 16.5261 19.3548 17.8065C19.3548 19.0869 18.3126 20.1291 17.0322 20.1291V21.6775C19.1666 21.6775 20.9032 19.9408 20.9032 17.8065Z" fill="white"/>
<path d="M13.1611 34.0646C13.1611 36.1989 14.8978 37.9355 17.0321 37.9355V36.3872C15.7517 36.3872 14.7095 35.3449 14.7095 34.0646C14.7095 32.7842 15.7517 31.742 17.0321 31.742V30.1936C14.8978 30.1936 13.1611 31.9302 13.1611 34.0646Z" fill="white"/>
</svg>
