<svg width="20" height="20" viewBox="0 0 20 20" fill="none" xmlns="http://www.w3.org/2000/svg">
<path d="M19.6429 1.33333H17.1429V0.333333C17.1429 0.149 16.9832 0 16.7857 0H14.2857C14.0882 0 13.9286 0.149 13.9286 0.333333V1.33333H6.07143V0.333333C6.07143 0.149 5.91179 0 5.71429 0H3.21429C3.01679 0 2.85714 0.149 2.85714 0.333333V1.33333H0.357143C0.159643 1.33333 0 1.48233 0 1.66667V5.33333V19.6667C0 19.851 0.159643 20 0.357143 20H19.6429C19.8404 20 20 19.851 20 19.6667V5.33333V1.66667C20 1.48233 19.8404 1.33333 19.6429 1.33333ZM14.6429 0.666667H16.4286V1.66667V2.66667H14.6429V1.66667V0.666667ZM3.57143 0.666667H5.35714V1.66667V2.66667H3.57143V1.66667V0.666667ZM0.714286 2H2.85714V3C2.85714 3.18433 3.01679 3.33333 3.21429 3.33333H5.71429C5.91179 3.33333 6.07143 3.18433 6.07143 3V2H13.9286V3C13.9286 3.18433 14.0882 3.33333 14.2857 3.33333H16.7857C16.9832 3.33333 17.1429 3.18433 17.1429 3V2H19.2857V5H0.714286V2ZM0.714286 19.3333V5.66667H19.2857V19.3333H0.714286Z" fill="#C3CAD6"/>
<path d="M12.8582 7.6665H10.3582H9.64389H7.1439H6.42961H3.21533V10.6665V11.3332V13.6665V14.3332V17.3332H6.42961H7.1439H9.64389H10.3582H12.8582H13.5725H16.7867V14.3332V13.6665V11.3332V10.6665V7.6665H13.5725H12.8582ZM10.3582 8.33317H12.8582V10.6665H10.3582V8.33317ZM12.8582 13.6665H10.3582V11.3332H12.8582V13.6665ZM7.1439 11.3332H9.64389V13.6665H7.1439V11.3332ZM7.1439 8.33317H9.64389V10.6665H7.1439V8.33317ZM3.92962 8.33317H6.42961V10.6665H3.92962V8.33317ZM3.92962 11.3332H6.42961V13.6665H3.92962V11.3332ZM6.42961 16.6665H3.92962V14.3332H6.42961V16.6665ZM9.64389 16.6665H7.1439V14.3332H9.64389V16.6665ZM12.8582 16.6665H10.3582V14.3332H12.8582V16.6665ZM16.0725 16.6665H13.5725V14.3332H16.0725V16.6665ZM16.0725 13.6665H13.5725V11.3332H16.0725V13.6665ZM16.0725 8.33317V10.6665H13.5725V8.33317H16.0725Z" fill="#C3CAD6"/>
</svg>
