<svg width="20" height="20" viewBox="0 0 20 20" fill="none" xmlns="http://www.w3.org/2000/svg">
<path d="M19.427 7.44141C19.2756 7.28992 19.0307 7.28992 18.8792 7.44141L8.30401 18.0166C7.52446 18.7961 6.48414 19.2251 5.3737 19.2251C4.26287 19.2251 3.22216 18.7961 2.44299 18.0166C1.66382 17.237 1.23452 16.1967 1.23452 15.0859C1.23452 13.9754 1.66344 12.9347 2.44299 12.1556L13.0178 1.58001C14.1402 0.457939 15.9024 0.526519 17.1167 1.74003C18.3306 2.95392 18.3995 4.71645 17.2771 5.8389L7.34274 15.7736C6.78752 16.3288 5.8832 16.3292 5.32682 15.7736C4.77121 15.2176 4.77121 14.3133 5.32682 13.7577L12.0565 7.028C12.208 6.87651 12.208 6.63164 12.0565 6.48014C11.905 6.32865 11.6601 6.32865 11.5086 6.48014L4.77896 13.2094C3.92113 14.0673 3.92113 15.4629 4.77896 16.3211C5.63755 17.1797 7.03355 17.1781 7.8906 16.3211L17.8253 6.38638C19.2601 4.95125 19.1911 2.71796 17.6649 1.19178C16.1391 -0.334017 13.9054 -0.403371 12.4703 1.03176L1.89475 11.6073C0.968731 12.533 0.459229 13.7682 0.459229 15.0859C0.459229 16.4036 0.968731 17.6392 1.89475 18.5648C2.82037 19.4909 4.05558 20.0004 5.3737 20.0004C6.69104 20.0004 7.92663 19.4909 8.85226 18.5648L19.427 7.98928C19.5785 7.83778 19.5785 7.59252 19.427 7.44141Z" fill="#3464E0"/>
</svg>
