<svg width="36" height="36" viewBox="0 0 36 36" fill="none" xmlns="http://www.w3.org/2000/svg">
<path d="M18 0C8.0748 0 0 8.0748 0 18C0 27.9252 8.0748 36 18 36C27.9252 36 36 27.9252 36 18C36 8.0748 27.9252 0 18 0ZM18 34.8C8.7366 34.8 1.2 27.2634 1.2 18C1.2 8.7366 8.7366 1.2 18 1.2C27.2634 1.2 34.8 8.7366 34.8 18C34.8 27.2634 27.2634 34.8 18 34.8Z" fill="#C3CAD6"/>
<path d="M18.5998 15.6127V9.52749C18.5998 9.19569 18.331 8.92749 17.9998 8.92749C17.6686 8.92749 17.3998 9.19569 17.3998 9.52749V15.6127C16.5604 15.8311 15.9034 16.4881 15.685 17.3275H11.3998C11.0686 17.3275 10.7998 17.5957 10.7998 17.9275C10.7998 18.2593 11.0686 18.5275 11.3998 18.5275H15.685C15.9532 19.5595 16.885 20.3275 17.9998 20.3275C19.3234 20.3275 20.3998 19.2511 20.3998 17.9275C20.3998 16.8121 19.6318 15.8809 18.5998 15.6127ZM17.9998 19.1275C17.338 19.1275 16.7998 18.5893 16.7998 17.9275C16.7998 17.2657 17.338 16.7275 17.9998 16.7275C18.6616 16.7275 19.1998 17.2657 19.1998 17.9275C19.1998 18.5893 18.6616 19.1275 17.9998 19.1275Z" fill="#C3CAD6"/>
<path d="M17.9999 5.92744C18.3311 5.92744 18.5999 5.65924 18.5999 5.32744V4.72744C18.5999 4.39564 18.3311 4.12744 17.9999 4.12744C17.6687 4.12744 17.3999 4.39564 17.3999 4.72744V5.32744C17.3999 5.65924 17.6687 5.92744 17.9999 5.92744Z" fill="#C3CAD6"/>
<path d="M17.9999 29.9275C17.6687 29.9275 17.3999 30.1957 17.3999 30.5275V31.1275C17.3999 31.4593 17.6687 31.7275 17.9999 31.7275C18.3311 31.7275 18.5999 31.4593 18.5999 31.1275V30.5275C18.5999 30.1957 18.3311 29.9275 17.9999 29.9275Z" fill="#C3CAD6"/>
<path d="M31.2 17.3274H30.6C30.2688 17.3274 30 17.5956 30 17.9274C30 18.2592 30.2688 18.5274 30.6 18.5274H31.2C31.5312 18.5274 31.8 18.2592 31.8 17.9274C31.8 17.5956 31.5312 17.3274 31.2 17.3274Z" fill="#C3CAD6"/>
<path d="M5.4002 17.3274H4.8002C4.469 17.3274 4.2002 17.5956 4.2002 17.9274C4.2002 18.2592 4.469 18.5274 4.8002 18.5274H5.4002C5.7314 18.5274 6.0002 18.2592 6.0002 17.9274C6.0002 17.5956 5.7314 17.3274 5.4002 17.3274Z" fill="#C3CAD6"/>
<path d="M26.9092 8.16913L26.485 8.59333C26.2504 8.82793 26.2504 9.20713 26.485 9.44173C26.602 9.55873 26.7556 9.61753 26.9092 9.61753C27.0628 9.61753 27.2164 9.55873 27.3334 9.44173L27.7576 9.01753C27.9922 8.78293 27.9922 8.40373 27.7576 8.16913C27.523 7.93453 27.1438 7.93513 26.9092 8.16913Z" fill="#C3CAD6"/>
<path d="M8.66656 26.4125L8.24236 26.8367C8.00776 27.0713 8.00776 27.4505 8.24236 27.6851C8.35936 27.8021 8.51296 27.8609 8.66656 27.8609C8.82016 27.8609 8.97376 27.8021 9.09076 27.6851L9.51496 27.2609C9.74956 27.0263 9.74956 26.6471 9.51496 26.4125C9.28036 26.1779 8.90056 26.1785 8.66656 26.4125Z" fill="#C3CAD6"/>
<path d="M27.3334 26.4125C27.0988 26.1779 26.7196 26.1779 26.485 26.4125C26.2504 26.6471 26.2504 27.0263 26.485 27.2609L26.9092 27.6851C27.0262 27.8021 27.1798 27.8609 27.3334 27.8609C27.487 27.8609 27.6406 27.8021 27.7576 27.6851C27.9922 27.4505 27.9922 27.0713 27.7576 26.8367L27.3334 26.4125Z" fill="#C3CAD6"/>
<path d="M9.09076 8.16887C8.85616 7.93427 8.47696 7.93427 8.24236 8.16887C8.00776 8.40347 8.00776 8.78267 8.24236 9.01727L8.66656 9.44147C8.78356 9.55847 8.93716 9.61727 9.09076 9.61727C9.24436 9.61727 9.39796 9.55847 9.51496 9.44147C9.74956 9.20687 9.74956 8.82767 9.51496 8.59307L9.09076 8.16887Z" fill="#C3CAD6"/>
</svg>
