<svg width="22" height="22" viewBox="0 0 22 22" fill="none" xmlns="http://www.w3.org/2000/svg">
<path d="M3.14307 5.5C4.52553 5.5 5.66992 4.47307 5.86164 3.14286H21.2145C21.4317 3.14286 21.6074 2.96725 21.6074 2.75C21.6074 2.53275 21.4317 2.35714 21.2145 2.35714H5.86164C5.66992 1.02693 4.52553 0 3.14307 0C1.62664 0 0.393066 1.23396 0.393066 2.75C0.393066 4.26604 1.62664 5.5 3.14307 5.5ZM3.14307 0.785714C4.22617 0.785714 5.10735 1.66689 5.10735 2.75C5.10735 3.83311 4.22617 4.71429 3.14307 4.71429C2.05996 4.71429 1.17878 3.83311 1.17878 2.75C1.17878 1.66689 2.05996 0.785714 3.14307 0.785714Z" fill="#3464E0"/>
<path d="M18.8574 16.5C17.4749 16.5 16.3305 17.5269 16.1388 18.8571H0.785924C0.569066 18.8571 0.393066 19.0327 0.393066 19.25C0.393066 19.4672 0.569066 19.6429 0.785924 19.6429H16.1388C16.3305 20.9731 17.4749 22 18.8574 22C20.3734 22 21.6074 20.766 21.6074 19.25C21.6074 17.734 20.3734 16.5 18.8574 16.5ZM18.8574 21.2143C17.7742 21.2143 16.8931 20.3331 16.8931 19.25C16.8931 18.1669 17.7742 17.2857 18.8574 17.2857C19.9405 17.2857 20.8216 18.1669 20.8216 19.25C20.8216 20.3331 19.9405 21.2143 18.8574 21.2143Z" fill="#3464E0"/>
<path d="M21.2145 10.6072H13.8948C13.7392 9.19212 12.5375 8.0874 11.0815 8.0874C9.6256 8.0874 8.42385 9.19251 8.26828 10.6072H0.785924C0.569066 10.6072 0.393066 10.7828 0.393066 11C0.393066 11.2173 0.569066 11.3929 0.785924 11.3929H8.29303C8.51971 12.7286 9.68217 13.75 11.0815 13.75C12.4809 13.75 13.643 12.7286 13.8696 11.3929H21.2145C21.4317 11.3929 21.6074 11.2173 21.6074 11C21.6074 10.7828 21.4317 10.6072 21.2145 10.6072ZM11.0815 12.9643C9.95364 12.9643 9.03592 12.0466 9.03592 10.9187C9.03592 9.79083 9.95364 8.87312 11.0815 8.87312C12.2094 8.87312 13.1271 9.79083 13.1271 10.9187C13.1271 12.0466 12.2094 12.9643 11.0815 12.9643Z" fill="#3464E0"/>
</svg>
