<svg width="54" height="54" viewBox="0 0 54 54" fill="none" xmlns="http://www.w3.org/2000/svg">
<g clip-path="url(#clip0)">
<path d="M15.163 14.3728C12.8621 14.3728 10.9902 16.2448 10.9902 18.5456C10.9902 20.8464 12.8622 22.7183 15.163 22.7183C17.4639 22.7183 19.3359 20.8464 19.3359 18.5456C19.3358 16.2448 17.4638 14.3728 15.163 14.3728ZM15.163 21.1364C13.7344 21.1364 12.5723 19.9741 12.5723 18.5457C12.5723 17.1172 13.7345 15.9549 15.163 15.9549C16.5915 15.9549 17.7538 17.1172 17.7538 18.5457C17.7538 19.9741 16.5915 21.1364 15.163 21.1364Z" fill="#3464E0"/>
<path d="M32.9189 33.8181C30.6181 33.8181 28.7461 35.69 28.7461 37.9909C28.7461 40.2918 30.6181 42.1636 32.9189 42.1636C35.2197 42.1636 37.0916 40.2917 37.0916 37.9909C37.0916 35.6901 35.2197 33.8181 32.9189 33.8181ZM32.919 40.5814C31.4905 40.5814 30.3282 39.4191 30.3282 37.9907C30.3282 36.5622 31.4904 35.3999 32.919 35.3999C34.3475 35.3999 35.5097 36.5622 35.5097 37.9907C35.5097 39.4191 34.3474 40.5814 32.919 40.5814Z" fill="#3464E0"/>
<path d="M16.8547 32.1272C15.0199 32.1272 13.5273 33.6199 13.5273 35.4546C13.5273 37.2894 15.0199 38.782 16.8547 38.782C18.6894 38.782 20.1821 37.2894 20.1821 35.4546C20.1821 33.6199 18.6894 32.1272 16.8547 32.1272ZM16.8547 37.1999C15.8923 37.1999 15.1094 36.417 15.1094 35.4546C15.1094 34.4922 15.8923 33.7092 16.8547 33.7092C17.8171 33.7092 18.6001 34.4922 18.6001 35.4546C18.6001 36.417 17.8171 37.1999 16.8547 37.1999Z" fill="#3464E0"/>
<path d="M26.1557 20.291C24.7873 20.291 23.6738 21.4044 23.6738 22.7729C23.6738 24.1415 24.7873 25.2548 26.1557 25.2548C27.5242 25.2548 28.6376 24.1414 28.6376 22.7729C28.6375 21.4044 27.5242 20.291 26.1557 20.291ZM26.1557 23.6728C25.6596 23.6728 25.2559 23.269 25.2559 22.7729C25.2559 22.2768 25.6595 21.873 26.1557 21.873C26.6519 21.873 27.0556 22.2768 27.0556 22.7729C27.0556 23.269 26.6518 23.6728 26.1557 23.6728Z" fill="#3464E0"/>
<path d="M42.9261 34.2552L42.0807 32.5642C41.8854 32.1735 41.4102 32.0149 41.0195 32.2105C40.6287 32.4058 40.4703 32.8809 40.6657 33.2717L41.5112 34.9627C41.6498 35.24 41.9291 35.4002 42.2193 35.4002C42.3382 35.4002 42.4588 35.3733 42.5724 35.3165C42.9632 35.1211 43.1216 34.6461 42.9261 34.2552Z" fill="#3464E0"/>
<path d="M35.3165 28.3374C35.1211 27.9466 34.6461 27.7881 34.2553 27.9837L32.5644 28.8291C32.1736 29.0244 32.0152 29.4996 32.2107 29.8903C32.3493 30.1675 32.6285 30.3277 32.9188 30.3277C33.0376 30.3277 33.1583 30.3008 33.2719 30.2441L34.9628 29.3986C35.3535 29.2033 35.5119 28.7282 35.3165 28.3374Z" fill="#3464E0"/>
<path d="M10.7992 27.4917L9.95376 25.8008C9.75843 25.41 9.2833 25.2515 8.89254 25.447C8.50177 25.6424 8.34336 26.1175 8.53879 26.5083L9.38423 28.1992C9.52282 28.4763 9.8021 28.6365 10.0923 28.6365C10.2112 28.6365 10.3319 28.6096 10.4455 28.5529C10.8362 28.3576 10.9946 27.8824 10.7992 27.4917Z" fill="#3464E0"/>
<path d="M23.4806 41.8642C23.2852 41.4735 22.8101 41.315 22.4193 41.5105L20.7285 42.3559C20.3377 42.5512 20.1793 43.0264 20.3747 43.4171C20.5133 43.6943 20.7926 43.8545 21.0828 43.8545C21.2017 43.8545 21.3224 43.8276 21.436 43.7709L23.1268 42.9254C23.5176 42.7301 23.676 42.255 23.4806 41.8642Z" fill="#3464E0"/>
<path d="M23.3325 9.53182L22.487 8.68628C22.1782 8.37736 21.6773 8.37736 21.3684 8.68628C21.0595 8.9952 21.0595 9.49596 21.3684 9.80488L22.214 10.6504C22.3684 10.8049 22.5709 10.8821 22.7733 10.8821C22.9757 10.8821 23.1782 10.8049 23.3326 10.6504C23.6414 10.3416 23.6414 9.84084 23.3325 9.53182Z" fill="#3464E0"/>
<path d="M21.641 28.977L20.7956 28.1316C20.4868 27.8227 19.9859 27.8227 19.677 28.1316C19.3681 28.4405 19.3681 28.9414 19.677 29.2502L20.5224 30.0956C20.6768 30.25 20.8793 30.3273 21.0817 30.3273C21.2841 30.3273 21.4866 30.2501 21.641 30.0956C21.95 29.7867 21.95 29.2858 21.641 28.977Z" fill="#3464E0"/>
<path d="M30.3828 45.6543C29.946 45.6543 29.5918 46.0085 29.5918 46.4453V47.2907C29.5918 47.7276 29.946 48.0818 30.3828 48.0818C30.8197 48.0818 31.1738 47.7276 31.1738 47.2907V46.4453C31.1738 46.0085 30.8197 45.6543 30.3828 45.6543Z" fill="#3464E0"/>
<path d="M26.7133 13.7593C26.4044 13.4504 25.9035 13.4504 25.5947 13.7593L24.7493 14.6047C24.4403 14.9136 24.4403 15.4145 24.7493 15.7233C24.9037 15.8777 25.1062 15.955 25.3086 15.955C25.511 15.955 25.7135 15.8777 25.8679 15.7233L26.7133 14.8779C27.0222 14.569 27.0222 14.0681 26.7133 13.7593Z" fill="#3464E0"/>
<path d="M45.3561 4.85285C44.4794 4.01595 43.2632 3.72433 42.1024 4.07259L39.4321 4.87373C38.2261 5.23549 37.313 6.27172 37.1061 7.51372L36.8635 8.96908C36.6028 10.5341 37.4918 12.0745 38.9775 12.6316L41.1249 13.4369C41.5021 13.5784 41.8978 13.6485 42.2926 13.6485C42.8262 13.6485 43.3582 13.5205 43.8401 13.2674C44.6787 12.827 45.2914 12.0474 45.5212 11.1284L46.2865 8.06669C46.5805 6.89103 46.2326 5.68964 45.3561 4.85285ZM44.7519 7.68289L43.9865 10.7446C43.8641 11.2338 43.551 11.6323 43.1047 11.8666C42.6583 12.101 42.1526 12.1326 41.6804 11.9556L39.533 11.1503C38.7536 10.858 38.2874 10.0501 38.4242 9.22917L38.6667 7.7738C38.7753 7.12232 39.2542 6.57874 39.8868 6.389L42.5571 5.58786C42.7262 5.53713 42.8976 5.51234 43.0668 5.51234C43.5066 5.51234 43.9316 5.68014 44.2638 5.99718C44.7235 6.43604 44.906 7.06621 44.7519 7.68289Z" fill="#3464E0"/>
<path d="M50.7891 18.9205C50.7094 18.2381 50.3628 17.6351 49.8131 17.223L48.6912 16.3815C47.9344 15.8138 46.9385 15.7239 46.0921 16.1472L45.0711 16.6576C43.8974 17.2445 43.3829 18.649 43.8998 19.8553L44.7213 21.7719C45.0642 22.5718 45.7829 23.1245 46.6441 23.2502C46.7664 23.268 46.8885 23.2768 47.0094 23.2768C47.7399 23.2768 48.4311 22.9567 48.9091 22.3831L50.2307 20.7973C50.6705 20.2694 50.8689 19.6029 50.7891 18.9205ZM49.0152 19.7845L47.6937 21.3703C47.4887 21.6164 47.1893 21.7309 46.8724 21.6846C46.5555 21.6384 46.3014 21.443 46.1753 21.1486L45.3538 19.2319C45.1664 18.7946 45.353 18.2852 45.7785 18.0725L46.7998 17.5621C46.9281 17.4979 47.066 17.4663 47.2031 17.4663C47.3936 17.4663 47.5825 17.5274 47.742 17.6471L48.8639 18.4885C49.0632 18.6379 49.189 18.8566 49.2177 19.104C49.2465 19.3514 49.1747 19.5932 49.0152 19.7845Z" fill="#3464E0"/>
<path d="M51.519 9.30029C50.1505 9.30029 49.0371 10.4137 49.0371 11.7822C49.0371 13.1506 50.1504 14.2641 51.519 14.2641C52.8876 14.2641 54.0009 13.1505 54.0009 11.7821C54.0009 10.4137 52.8875 9.30029 51.519 9.30029ZM51.519 12.6819C51.0229 12.6819 50.6191 12.2782 50.6191 11.7821C50.6191 11.286 51.0228 10.8822 51.519 10.8822C52.0152 10.8822 52.4189 11.286 52.4189 11.7821C52.4189 12.2782 52.0151 12.6819 51.519 12.6819Z" fill="#3464E0"/>
<path d="M53.2036 29.9901C52.8313 29.6121 52.2923 29.433 51.7617 29.5109C51.4006 29.5639 51.0343 29.5908 50.673 29.5908C47.3326 29.5908 44.402 27.4542 43.3802 24.2739C43.1008 23.4045 42.3853 22.7612 41.513 22.5951C35.5217 21.4545 31.1733 16.1957 31.1733 10.091C31.1733 7.57005 31.9115 5.13119 33.3085 3.03827C33.6149 2.57917 33.6723 2.00288 33.4623 1.49663C33.2517 0.989436 32.8019 0.62251 32.2591 0.515037C29.5679 -0.0178964 26.8066 -0.137814 24.0524 0.158869C18.5406 0.752342 13.4034 3.02572 9.19579 6.73358C8.868 7.02235 8.83646 7.52227 9.12534 7.84997C9.41411 8.17766 9.91404 8.2093 10.2417 7.92042C14.2027 4.42993 19.0369 2.28997 24.2217 1.73194C26.8171 1.45244 29.4178 1.56529 31.9517 2.06712C31.9702 2.07081 31.9905 2.07798 32.0011 2.10329C32.011 2.12723 32.0029 2.14485 31.9925 2.16024C30.4216 4.5141 29.5912 7.2566 29.5912 10.0911C29.5912 16.9546 34.4807 22.8668 41.2171 24.1493C41.5202 24.207 41.7719 24.4402 41.874 24.7579C43.1067 28.5948 46.6428 31.1728 50.673 31.1728C51.111 31.1728 51.5546 31.1402 51.9915 31.0761C52.0499 31.0674 52.0796 31.1019 52.0809 31.1107C51.3183 35.7998 49.2466 40.1773 46.0897 43.7701C45.8014 44.0983 45.8336 44.5981 46.1618 44.8865C46.312 45.0184 46.4983 45.0833 46.6837 45.0833C46.9034 45.0833 47.1218 44.9924 47.2782 44.8144C50.6314 40.9982 52.8321 36.3474 53.6423 31.3647C53.7249 30.8581 53.565 30.3571 53.2036 29.9901Z" fill="#3464E0"/>
<path d="M44.887 46.1618C44.5986 45.8339 44.0987 45.802 43.7707 46.0905C39.1326 50.1709 33.1767 52.418 27.0002 52.418C23.4399 52.418 19.9965 51.6966 16.7657 50.2736C13.6442 48.8989 10.8688 46.9389 8.51678 44.4481C6.16841 41.9612 4.37375 39.0841 3.18259 35.8966C1.94396 32.582 1.4201 29.0846 1.62545 25.5018C1.94555 19.9168 4.18201 14.4976 7.92278 10.2422C8.21124 9.9141 8.17907 9.41429 7.85095 9.12594C7.52295 8.83748 7.02302 8.86954 6.73467 9.19776C2.76166 13.7171 0.386297 19.4751 0.046055 25.4113C-0.171949 29.2148 0.384715 32.9289 1.70075 36.4505C2.96627 39.8369 4.87252 42.8931 7.36664 45.5342C9.86467 48.1795 12.8125 50.2612 16.1281 51.7215C19.5611 53.2334 23.219 53.9999 27.0002 53.9999C33.5615 53.9999 39.8886 51.6128 44.8156 47.2782C45.1436 46.9896 45.1756 46.4898 44.887 46.1618Z" fill="#3464E0"/>
</g>
<defs>
<clipPath id="clip0">
<rect width="54" height="54" fill="white"/>
</clipPath>
</defs>
</svg>
