<svg width="36" height="36" viewBox="0 0 36 36" fill="none" xmlns="http://www.w3.org/2000/svg">
<path d="M34.2679 5.57018C33.51 2.76218 27.8684 0 17.9999 0C8.13129 0 2.4891 2.76218 1.73179 5.57018C1.67681 5.6664 1.63623 5.77178 1.63623 5.89091V6.21818V13.7455V14.0727V14.4V21.6V21.9273V22.2545V30.1091C1.63623 30.2151 1.66438 30.3153 1.71281 30.4043C2.48583 33.6083 9.40176 36 17.9999 36C26.5783 36 33.4831 33.6181 34.2817 30.4259C34.334 30.3323 34.3635 30.2243 34.3635 30.1091V22.2545V21.9273V21.6V14.4V14.0727V13.7455V6.21818V5.89091C34.3635 5.77178 34.3229 5.6664 34.2679 5.57018ZM33.0027 22.2447C32.9844 22.3239 32.9588 22.4025 32.9268 22.4823C32.9006 22.5471 32.8685 22.6119 32.8332 22.6767C32.7893 22.7572 32.7402 22.8377 32.682 22.9183C32.6388 22.9791 32.5897 23.0393 32.5386 23.0996C32.466 23.1853 32.3887 23.2711 32.301 23.3561C32.248 23.4079 32.1898 23.4589 32.1308 23.5106C32.0235 23.6042 31.9116 23.6972 31.7866 23.7895C31.7329 23.8294 31.6753 23.868 31.6183 23.9073C31.4704 24.0094 31.3159 24.1108 31.1464 24.2103C31.1019 24.2372 31.0541 24.2627 31.0076 24.2889C30.8126 24.3988 30.609 24.5081 30.3891 24.6142C30.361 24.6279 30.3315 24.641 30.3027 24.6541C30.0572 24.77 29.8007 24.8839 29.5264 24.9938C29.5186 24.9971 29.5107 24.9997 29.5028 25.003C28.0164 25.5967 26.1149 26.0961 23.8993 26.4233C23.8882 26.4247 23.877 26.426 23.8659 26.4279C23.4352 26.4914 22.9934 26.5477 22.5398 26.5975C22.4658 26.6053 22.3879 26.6105 22.3133 26.6184C21.9173 26.6596 21.5167 26.6976 21.1044 26.7277C20.9159 26.7415 20.7182 26.748 20.5264 26.7598C20.2162 26.7781 19.9092 26.7984 19.5911 26.8095C19.0714 26.8259 18.5412 26.8364 17.9999 26.8364C17.4586 26.8364 16.9284 26.8259 16.408 26.8076C16.0899 26.7964 15.7829 26.7755 15.4727 26.7578C15.2809 26.7467 15.0832 26.7395 14.8947 26.7257C14.4823 26.6956 14.0818 26.6577 13.6858 26.6164C13.6111 26.6086 13.5332 26.6033 13.4593 26.5955C13.0057 26.5457 12.5639 26.4888 12.1332 26.426C12.122 26.4247 12.1109 26.4233 12.0998 26.4214C9.88416 26.0941 7.9827 25.5947 6.49623 25.001C6.48838 24.9984 6.48052 24.9951 6.47267 24.9919C6.19841 24.8819 5.94118 24.768 5.69638 24.6521C5.66823 24.6384 5.63812 24.6253 5.60998 24.6122C5.39005 24.5062 5.18648 24.3975 4.99143 24.2869C4.94561 24.2607 4.89718 24.2352 4.85267 24.2084C4.68314 24.1089 4.52867 24.0074 4.38074 23.9053C4.32445 23.866 4.26619 23.8274 4.21252 23.7875C4.0875 23.6952 3.97558 23.6023 3.86823 23.5087C3.80998 23.4576 3.75107 23.4065 3.69805 23.3542C3.61034 23.2691 3.5331 23.184 3.46045 23.0976C3.40939 23.0374 3.3603 22.9772 3.3171 22.9163C3.2595 22.8358 3.21041 22.7553 3.1659 22.6748C3.13056 22.61 3.09914 22.5452 3.0723 22.4804C3.04023 22.4012 3.0147 22.322 2.99638 22.2428C2.97216 22.1387 2.94532 22.0327 2.94532 21.9273C2.94532 21.8533 2.95383 21.7793 2.96561 21.706C2.98198 21.6072 2.97281 21.5084 2.94532 21.4148V16.5554C2.96365 16.5724 2.98656 16.5888 3.00554 16.6058C3.14823 16.7315 3.29354 16.8565 3.45718 16.9769C5.92285 18.8417 10.8535 20.2909 17.9999 20.2909C25.1161 20.2909 30.0343 18.8535 32.5105 16.9999C32.7082 16.8559 32.8862 16.7073 33.0538 16.5561L33.0544 16.5554V21.4148C33.0269 21.5084 33.0178 21.6072 33.0341 21.706C33.0466 21.7793 33.0544 21.8533 33.0544 21.9273C33.0544 22.0327 33.0276 22.1387 33.0027 22.2447ZM33.0544 8.70087V13.5602C33.0269 13.6538 33.0178 13.7527 33.0341 13.8515C33.0466 13.9248 33.0544 13.9988 33.0544 14.0727C33.0544 14.1781 33.0276 14.2841 33.0027 14.3902C32.9844 14.4694 32.9588 14.5479 32.9268 14.6278C32.9006 14.6926 32.8685 14.7574 32.8332 14.8222C32.7893 14.9027 32.7402 14.9832 32.682 15.0637C32.6388 15.1246 32.5897 15.1848 32.5386 15.245C32.466 15.3308 32.3887 15.4165 32.301 15.5016C32.248 15.5533 32.1898 15.6044 32.1308 15.6561C32.0235 15.7497 31.9116 15.8426 31.7866 15.9349C31.7329 15.9748 31.6753 16.0135 31.6183 16.0527C31.4704 16.1548 31.3159 16.2563 31.1464 16.3558C31.1019 16.3826 31.0541 16.4081 31.0076 16.4343C30.8126 16.5443 30.609 16.6536 30.3891 16.7596C30.361 16.7734 30.3315 16.7865 30.3027 16.7996C30.0572 16.9154 29.8007 17.0293 29.5264 17.1393C29.5186 17.1425 29.5107 17.1452 29.5028 17.1484C28.0164 17.7421 26.1149 18.2415 23.8993 18.5688C23.8882 18.5701 23.877 18.5714 23.8659 18.5734C23.4352 18.6369 22.9934 18.6932 22.5398 18.7429C22.4658 18.7508 22.3879 18.756 22.3133 18.7639C21.9173 18.8051 21.5167 18.8431 21.1044 18.8732C20.9159 18.8869 20.7182 18.8935 20.5264 18.9052C20.2162 18.9236 19.9092 18.9439 19.5911 18.955C19.0714 18.9713 18.5412 18.9818 17.9999 18.9818C17.4586 18.9818 16.9284 18.9713 16.408 18.953C16.0899 18.9419 15.7829 18.9209 15.4727 18.9033C15.2809 18.8921 15.0832 18.8849 14.8947 18.8712C14.4823 18.8411 14.0818 18.8031 13.6858 18.7619C13.6111 18.754 13.5332 18.7488 13.4593 18.7409C13.0057 18.6912 12.5639 18.6343 12.1332 18.5714C12.122 18.5701 12.1109 18.5688 12.0998 18.5668C9.88416 18.2396 7.9827 17.7401 6.49623 17.1465C6.48838 17.1439 6.48052 17.1406 6.47267 17.1373C6.19841 17.0273 5.94118 16.9135 5.69638 16.7976C5.66823 16.7839 5.63812 16.7708 5.60998 16.7577C5.39005 16.6516 5.18648 16.543 4.99143 16.4324C4.94561 16.4062 4.89718 16.3807 4.85267 16.3538C4.68314 16.2543 4.52867 16.1529 4.38074 16.0508C4.32445 16.0115 4.26619 15.9729 4.21252 15.9329C4.0875 15.8407 3.97558 15.7477 3.86823 15.6541C3.80998 15.6031 3.75107 15.552 3.69805 15.4996C3.61034 15.4145 3.5331 15.3295 3.46045 15.2431C3.40939 15.1828 3.3603 15.1226 3.3171 15.0617C3.2595 14.9812 3.21041 14.9007 3.1659 14.8202C3.13056 14.7554 3.09914 14.6906 3.0723 14.6258C3.04023 14.5466 3.0147 14.4674 2.99638 14.3882C2.97216 14.2841 2.94532 14.1781 2.94532 14.0727C2.94532 13.9988 2.95383 13.9248 2.96561 13.8515C2.98198 13.7527 2.97281 13.6538 2.94532 13.5602V8.70087C3.02387 8.77222 3.11354 8.84225 3.19863 8.91294C3.24576 8.95222 3.28961 8.99149 3.33936 9.03076C3.53572 9.18524 3.74779 9.33774 3.97754 9.48633C4.02532 9.51709 4.07899 9.5472 4.12874 9.57796C4.32118 9.69775 4.52474 9.81491 4.73878 9.93011C4.81798 9.97265 4.89718 10.0145 4.97899 10.0564C5.2179 10.1782 5.46859 10.2967 5.73238 10.4112C5.77558 10.4302 5.81485 10.4498 5.8587 10.4681C6.16569 10.5984 6.49165 10.7228 6.8307 10.8432C6.9243 10.8766 7.02249 10.908 7.1187 10.9407C7.38838 11.0317 7.66721 11.1188 7.95587 11.2032C8.05994 11.2333 8.16205 11.2647 8.26874 11.2935C8.65165 11.3996 9.04699 11.5004 9.46198 11.5933C9.51892 11.6064 9.58045 11.6169 9.63805 11.6293C10.0039 11.7092 10.3836 11.7831 10.7737 11.8525C10.9059 11.8761 11.0401 11.8983 11.1749 11.9206C11.546 11.9815 11.9283 12.0371 12.3204 12.0881C12.4212 12.1012 12.5174 12.1163 12.6195 12.1287C13.1065 12.1876 13.6105 12.238 14.1282 12.2812C14.2559 12.2917 14.3887 12.2996 14.5183 12.3087C14.9327 12.3388 15.3562 12.3637 15.7895 12.3833C15.9472 12.3905 16.1043 12.3977 16.2653 12.4036C16.8295 12.4226 17.4042 12.4364 17.9999 12.4364C18.5955 12.4364 19.1702 12.4226 19.7344 12.4036C19.8948 12.3977 20.0519 12.3905 20.2103 12.3833C20.6436 12.3637 21.0671 12.3388 21.4814 12.3087C21.611 12.2989 21.7432 12.2917 21.8715 12.2812C22.3892 12.2387 22.8932 12.1876 23.3802 12.1287C23.4823 12.1163 23.5786 12.1012 23.6794 12.0881C24.0714 12.0371 24.453 11.9815 24.8248 11.9206C24.9596 11.8983 25.0938 11.8761 25.226 11.8525C25.6162 11.7831 25.9958 11.7092 26.3617 11.6293C26.4193 11.6169 26.4808 11.6057 26.5378 11.5933C26.9527 11.5004 27.3481 11.3989 27.731 11.2935C27.8377 11.2641 27.9398 11.2333 28.0439 11.2032C28.3325 11.1188 28.6114 11.0317 28.881 10.9407C28.9772 10.908 29.0754 10.8766 29.169 10.8432C29.5081 10.7228 29.8347 10.5984 30.141 10.4681C30.1849 10.4498 30.2242 10.4302 30.2674 10.4112C30.5311 10.296 30.7818 10.1782 31.0207 10.0564C31.1026 10.0145 31.1824 9.97265 31.261 9.93011C31.475 9.81556 31.6786 9.6984 31.871 9.57796C31.9207 9.5472 31.9744 9.51709 32.0222 9.48633C32.2519 9.33774 32.464 9.18589 32.6604 9.03076C32.7095 8.99149 32.7533 8.95222 32.8011 8.91294C32.8862 8.84225 32.9759 8.77222 33.0544 8.70087ZM17.9999 1.30909C26.8722 1.30909 33.0544 3.89585 33.0544 6.21818C33.0544 8.54051 26.8722 11.1273 17.9999 11.1273C9.1275 11.1273 2.94532 8.54051 2.94532 6.21818C2.94532 3.89585 9.1275 1.30909 17.9999 1.30909ZM33.0544 29.9147C33.0452 29.9435 33.0387 29.9729 33.0335 30.0031C32.6623 32.2671 26.5325 34.6909 17.9999 34.6909C9.46721 34.6909 3.33739 32.2671 2.96627 30.0031C2.96103 29.9736 2.95383 29.9448 2.94532 29.9173V24.41C2.96365 24.427 2.98656 24.4433 3.00554 24.4604C3.14823 24.586 3.29354 24.7111 3.45718 24.8315C5.92285 26.6963 10.8535 28.1455 17.9999 28.1455C25.1161 28.1455 30.0343 26.7081 32.5105 24.8544C32.7082 24.7104 32.8862 24.5618 33.0538 24.4106L33.0544 24.41V29.9147Z" fill="#C3CAD6"/>
</svg>
