<svg width="22" height="23" viewBox="0 0 22 23" fill="none" xmlns="http://www.w3.org/2000/svg">
<path d="M20.9641 2.33337H18.3808V1.22623C18.3808 1.02214 18.2158 0.857178 18.0117 0.857178H15.4284C15.2243 0.857178 15.0594 1.02214 15.0594 1.22623V2.33337H6.94031V1.22623C6.94031 1.02214 6.77535 0.857178 6.57127 0.857178H3.98793C3.78385 0.857178 3.61888 1.02214 3.61888 1.22623V2.33337H1.03555C0.831468 2.33337 0.666504 2.49833 0.666504 2.70242V6.76194V22.631C0.666504 22.8351 0.831468 23 1.03555 23H20.9641C21.1682 23 21.3332 22.8351 21.3332 22.631V6.76194V2.70242C21.3332 2.49833 21.1682 2.33337 20.9641 2.33337ZM15.7975 1.59527H17.6427V2.70242V3.80956H15.7975V2.70242V1.59527ZM4.35698 1.59527H6.20222V2.70242V3.80956H4.35698V2.70242V1.59527ZM1.4046 3.07146H3.61888V4.17861C3.61888 4.38269 3.78385 4.54765 3.98793 4.54765H6.57127C6.77535 4.54765 6.94031 4.38269 6.94031 4.17861V3.07146H15.0594V4.17861C15.0594 4.38269 15.2243 4.54765 15.4284 4.54765H18.0117C18.2158 4.54765 18.3808 4.38269 18.3808 4.17861V3.07146H20.5951V6.39289H1.4046V3.07146ZM1.4046 22.2619V7.13099H20.5951V22.2619H1.4046Z" fill="#C3CAD6"/>
<path d="M13.9523 9.34521H11.369H10.6309H8.04756H7.30947H3.98804V12.6666V13.4047V15.9881V16.7262V20.0476H7.30947H8.04756H10.6309H11.369H13.9523H14.6904H18.0118V16.7262V15.9881V13.4047V12.6666V9.34521H14.6904H13.9523ZM11.369 10.0833H13.9523V12.6666H11.369V10.0833ZM13.9523 15.9881H11.369V13.4047H13.9523V15.9881ZM8.04756 13.4047H10.6309V15.9881H8.04756V13.4047ZM8.04756 10.0833H10.6309V12.6666H8.04756V10.0833ZM4.72613 10.0833H7.30947V12.6666H4.72613V10.0833ZM4.72613 13.4047H7.30947V15.9881H4.72613V13.4047ZM7.30947 19.3095H4.72613V16.7262H7.30947V19.3095ZM10.6309 19.3095H8.04756V16.7262H10.6309V19.3095ZM13.9523 19.3095H11.369V16.7262H13.9523V19.3095ZM17.2738 19.3095H14.6904V16.7262H17.2738V19.3095ZM17.2738 15.9881H14.6904V13.4047H17.2738V15.9881ZM17.2738 10.0833V12.6666H14.6904V10.0833H17.2738Z" fill="#C3CAD6"/>
</svg>
