<svg width="23" height="19" viewBox="0 0 23 19" fill="none" xmlns="http://www.w3.org/2000/svg">
<path d="M21.7714 0.962158H1.2282C0.597909 0.962158 0.0869141 1.47326 0.0869141 2.10378V17.3254C0.0869141 17.9559 0.597864 18.467 1.2282 18.467H21.7714C22.4017 18.467 22.9127 17.9559 22.9127 17.3254V2.10378C22.9127 1.4733 22.4018 0.962158 21.7714 0.962158ZM22.1518 17.3255C22.1518 17.5356 21.9815 17.706 21.7714 17.706H1.2282C1.01809 17.706 0.847789 17.5356 0.847789 17.3255V2.10378C0.847789 1.89361 1.01809 1.72326 1.2282 1.72326H21.7714C21.9815 1.72326 22.1518 1.89361 22.1518 2.10378V17.3255Z" fill="#C3CAD6"/>
<path d="M21.0435 2.48609C20.9429 2.4773 20.843 2.50883 20.7658 2.57376L11.9892 9.94833C11.7061 10.1863 11.293 10.1863 11.01 9.94833L2.23348 2.57371C2.12938 2.48631 1.98655 2.46107 1.85882 2.50754C1.73109 2.554 1.63783 2.66513 1.6142 2.79904C1.59057 2.93296 1.64015 3.06928 1.74424 3.15668L10.5208 10.5309C11.0864 11.0073 11.9128 11.0073 12.4785 10.5309L21.255 3.15672C21.3323 3.09184 21.3806 2.99891 21.3894 2.89835C21.3981 2.79779 21.3666 2.69786 21.3017 2.62058C21.2369 2.54321 21.144 2.49487 21.0435 2.48609Z" fill="#C3CAD6"/>
<path d="M7.40371 10.4786C7.26903 10.4486 7.12869 10.4938 7.03685 10.5968L1.71078 16.3053C1.6144 16.404 1.579 16.5472 1.61832 16.6795C1.65764 16.8118 1.76548 16.9125 1.90012 16.9425C2.0348 16.9726 2.17515 16.9274 2.26699 16.8243L7.59305 11.1159C7.68944 11.0171 7.72484 10.8739 7.68551 10.7416C7.64619 10.6093 7.53839 10.5087 7.40371 10.4786Z" fill="#C3CAD6"/>
<path d="M15.9628 10.5968C15.871 10.4938 15.7306 10.4486 15.5959 10.4786C15.4612 10.5087 15.3534 10.6093 15.3141 10.7416C15.2748 10.8739 15.3102 11.0171 15.4066 11.1158L20.7326 16.824C20.877 16.972 21.1132 16.9775 21.2643 16.8364C21.4155 16.6953 21.4264 16.4593 21.2888 16.3049L15.9628 10.5968Z" fill="#C3CAD6"/>
</svg>
