<svg width="18" height="24" viewBox="0 0 18 24" fill="none" xmlns="http://www.w3.org/2000/svg">
<path d="M9 0C13.7927 0 17.6919 3.89916 17.6919 8.69184C17.6919 14.6397 9.9135 23.3715 9.58233 23.7404C9.27127 24.0868 8.72818 24.0862 8.41768 23.7404C8.0865 23.3715 0.308113 14.6397 0.308113 8.69184C0.308207 3.89916 4.20732 0 9 0ZM9 13.065C11.4113 13.065 13.3731 11.1032 13.3731 8.69184C13.3731 6.2805 11.4113 4.31878 9 4.31878C6.58871 4.31878 4.62699 6.28055 4.62699 8.69189C4.62699 11.1032 6.58871 13.065 9 13.065Z" fill="#C3CAD6"/>
</svg>
