<svg width="18" height="18" viewBox="0 0 18 18" fill="none" xmlns="http://www.w3.org/2000/svg">
<g clip-path="url(#clip0)">
<path d="M2.44342 10.9283L0.568481 9.80334C0.390736 9.69535 0.160504 9.75458 0.0539836 9.93233C-0.0525018 10.1101 0.00448494 10.3403 0.18223 10.4468L2.05717 11.5718C2.11792 11.6085 2.18468 11.625 2.24992 11.625C2.37666 11.625 2.50118 11.5598 2.57166 11.4428C2.67815 11.265 2.62116 11.0348 2.44342 10.9283Z" fill="#C3CAD6"/>
<path d="M8.59611 3.39246C7.15316 2.95221 5.45295 2.88397 3.54574 3.1862C3.00726 3.27395 2.45677 3.12247 2.04204 2.77671L0.614805 1.58727C0.45506 1.45379 0.219554 1.47702 0.0868081 1.63526C-0.0459382 1.79426 -0.0241771 2.03051 0.134795 2.16325L1.56199 3.35273C2.14322 3.83647 2.9082 4.04572 3.66344 3.92721C5.45738 3.64073 7.04358 3.70295 8.37706 4.11096C8.4138 4.12147 8.45057 4.12671 8.48657 4.12671C8.64782 4.12671 8.79632 4.02248 8.84505 3.86048C8.90583 3.66245 8.79411 3.45321 8.59611 3.39246Z" fill="#C3CAD6"/>
<path d="M16.0172 11.0355L10.3721 6.09315C10.2154 5.95664 9.9784 5.97165 9.84266 6.12841C9.70542 6.2844 9.72117 6.52064 9.87715 6.65715L15.5245 11.601C15.6678 11.7247 15.7495 11.9047 15.7495 12.0975C15.7495 12.4567 15.457 12.75 15.097 12.75H14.9965C14.8442 12.75 14.6957 12.6967 14.5795 12.6L14.5188 12.5497C14.512 12.5445 14.5053 12.5385 14.4978 12.5325L10.3654 9.08856C10.2056 8.95507 9.97014 8.97757 9.83665 9.13581C9.7039 9.29481 9.72567 9.53106 9.88464 9.6638L14.0313 13.1197C14.1708 13.2419 14.2495 13.4174 14.2495 13.605C14.2495 13.9604 13.96 14.25 13.6045 14.25H13.4935C13.3435 14.25 13.1965 14.1975 13.0818 14.1015L12.2936 13.4445C12.2883 13.44 12.2831 13.4355 12.2786 13.4317L8.86542 10.5878C8.70493 10.4543 8.46943 10.4775 8.33668 10.635C8.20393 10.794 8.22569 11.0303 8.38467 11.163L11.8076 14.0159C11.9298 14.1217 11.9995 14.2754 11.9995 14.4382C11.9995 14.7479 11.7476 14.9999 11.4378 14.9999C11.1595 14.9999 10.8866 14.9039 10.6773 14.7367L8.86763 13.197C8.71087 13.0635 8.47315 13.0822 8.33889 13.2397C8.20464 13.398 8.22415 13.6342 8.38164 13.7685L10.2003 15.3157C10.5498 15.5954 10.9901 15.7499 11.4378 15.7499C12.0505 15.7499 12.5665 15.3277 12.7098 14.7592C12.94 14.9152 13.213 15 13.4935 15H13.6045C14.3739 15 14.9994 14.3737 14.9994 13.6027C14.9994 13.5683 14.9987 13.5337 14.9957 13.5C14.9964 13.5 14.9964 13.5 14.9964 13.5H15.0969C15.8701 13.5 16.4994 12.8707 16.4994 12.0945C16.4995 11.6872 16.3232 11.301 16.0172 11.0355Z" fill="#C3CAD6"/>
<path d="M10.3367 14.45C10.1904 14.3038 9.95269 14.3038 9.80645 14.45C9.6602 14.5963 9.6602 14.834 9.80645 14.9803C9.90393 15.0778 9.8312 15.449 9.63922 15.641C9.49747 15.7828 9.26049 15.7918 9.09997 15.632L8.13025 14.7268C7.978 14.585 7.74175 14.5925 7.60001 14.7448C7.459 14.8955 7.46652 15.1333 7.61801 15.2743L8.57873 16.1705C8.79173 16.3827 9.07445 16.4997 9.37446 16.4997C9.67448 16.4997 9.95719 16.3827 10.1694 16.1712C10.6149 15.725 10.7814 14.8948 10.3367 14.45Z" fill="#C3CAD6"/>
<path d="M17.9454 9.93226C17.8389 9.75525 17.6087 9.6945 17.4309 9.80327L15.556 10.9282C15.379 11.0347 15.3213 11.2657 15.4278 11.4427C15.4982 11.5597 15.622 11.625 15.7495 11.625C15.8155 11.625 15.8822 11.6085 15.9423 11.5717L17.8172 10.4468C17.9942 10.3402 18.0519 10.1093 17.9454 9.93226Z" fill="#C3CAD6"/>
<path d="M17.9095 1.63158C17.7745 1.47482 17.5383 1.45682 17.3808 1.59034L14.8383 3.76902C13.5604 3.94002 12.6402 3.63554 11.8249 3.36702C11.2527 3.17803 10.712 3.00028 10.1247 3.00028C9.11225 3.00028 8.37501 3.48476 7.72404 3.91376C7.58229 4.00674 7.44353 4.09751 7.30706 4.17925C7.2808 4.19426 7.25682 4.21374 7.23506 4.2355L5.24837 6.22146C4.75187 6.71795 4.62963 7.47316 4.94389 8.10089C5.22137 8.65512 5.77935 9.00013 6.3996 9.00013H6.69958C7.07233 9.00013 7.43682 8.87115 7.72481 8.63715C7.87032 8.51942 8.03681 8.37992 8.2153 8.23065C8.85203 7.69742 9.815 6.89268 10.2567 6.72618C10.4502 6.65344 10.5485 6.43745 10.4757 6.24318C10.403 6.04969 10.1862 5.94918 9.99271 6.0242C9.47224 6.21921 8.69524 6.85067 7.73378 7.65467C7.55754 7.80165 7.3933 7.9389 7.25155 8.05442C7.09405 8.18266 6.90281 8.25016 6.6988 8.25016H6.39882C6.06432 8.25016 5.7636 8.06416 5.61433 7.76569C5.44559 7.42668 5.51157 7.01871 5.77858 6.7517L7.73304 4.79802C7.86504 4.71702 7.99853 4.62927 8.13578 4.53927C8.726 4.15155 9.3365 3.75028 10.1247 3.75028C10.592 3.75028 11.0547 3.90254 11.5909 4.07878C12.4632 4.36751 13.5491 4.7275 15.0566 4.49575C15.1256 4.48601 15.1908 4.45599 15.2441 4.41025L17.869 2.16032C18.0265 2.02532 18.0445 1.7883 17.9095 1.63158Z" fill="#C3CAD6"/>
<path d="M3.39208 10.125C3.0201 10.125 2.67586 10.3095 2.47034 10.6185L2.06085 11.232C1.93936 11.4142 1.87485 11.6264 1.87485 11.8462V12.0165C1.87485 12.6277 2.37208 13.1249 2.98256 13.1249C3.35453 13.1249 3.69877 12.9404 3.90429 12.6315L4.31378 12.018C4.43528 11.8357 4.49979 11.6235 4.49979 11.4037V11.2335C4.49979 10.6222 4.00255 10.125 3.39208 10.125ZM3.74982 11.403C3.74982 11.4742 3.72883 11.5432 3.68907 11.6025L3.27958 12.2167C3.2136 12.3164 3.10258 12.3757 2.98259 12.3757C2.78533 12.3757 2.62485 12.2152 2.62485 12.0172V11.8469C2.62485 11.7757 2.64584 11.7067 2.68486 11.6482L3.09509 11.034C3.16107 10.9342 3.27209 10.875 3.39208 10.875C3.58934 10.875 3.74982 11.0355 3.74982 11.2327V11.403Z" fill="#C3CAD6"/>
<path d="M4.86654 10.8743C4.51931 10.8743 4.1878 11.04 3.98006 11.3175L3.2211 12.3285C3.07861 12.519 2.99986 12.756 2.99986 12.9944V13.1414C2.99986 13.7527 3.4971 14.2499 4.1331 14.2499C4.48033 14.2499 4.81184 14.0842 5.01957 13.8074L5.77854 12.7965C5.92103 12.6059 5.99977 12.369 5.99977 12.1305V11.9835C5.99977 11.3722 5.50254 10.875 4.86654 10.8743ZM5.24977 12.1305C5.24977 12.2077 5.22428 12.2842 5.17851 12.3457L4.41954 13.3575C4.35204 13.4467 4.24556 13.4999 4.10754 13.4999C3.91028 13.4999 3.7498 13.3395 3.7498 13.1415V12.9945C3.7498 12.9172 3.77528 12.8407 3.82106 12.7792L4.58003 11.7675C4.64752 11.6782 4.75401 11.625 4.89203 11.625C5.08929 11.625 5.24977 11.7855 5.24977 11.9835V12.1305Z" fill="#C3CAD6"/>
<path d="M6.36651 11.6243C6.01928 11.6243 5.68776 11.79 5.48003 12.0675L4.72106 13.0785C4.57858 13.269 4.49983 13.506 4.49983 13.7444V13.8914C4.49983 14.5027 4.99707 14.9999 5.63306 14.9999C5.98029 14.9999 6.31181 14.8342 6.51954 14.5574L7.27851 13.5465C7.42099 13.3559 7.49974 13.119 7.49974 12.8805V12.7335C7.4997 12.1222 7.00247 11.625 6.36651 11.6243ZM6.74974 12.8805C6.74974 12.9577 6.72425 13.0342 6.67848 13.0957L5.91951 14.1075C5.85201 14.1967 5.74552 14.2499 5.60751 14.2499C5.41025 14.2499 5.24976 14.0895 5.24976 13.8915V13.7445C5.24976 13.6672 5.27525 13.5907 5.32102 13.5292L6.07999 12.5175C6.14749 12.4282 6.25398 12.375 6.392 12.375C6.58925 12.375 6.74974 12.5355 6.74974 12.7335V12.8805Z" fill="#C3CAD6"/>
<path d="M7.86654 12.3743C7.51931 12.3743 7.1878 12.54 6.98006 12.8175L6.22109 13.8285C6.07861 14.019 5.99986 14.256 5.99986 14.4944V14.6414C5.99986 15.2527 6.4971 15.7499 7.13309 15.7499C7.48032 15.7499 7.81184 15.5842 8.01957 15.3067L8.77854 14.2957C8.92102 14.1052 8.99977 13.8682 8.99977 13.6297V13.4827C8.99977 12.8715 8.50327 12.3743 7.86654 12.3743ZM8.2498 13.6305C8.2498 13.7077 8.22431 13.7842 8.17854 13.8458L7.41957 14.8575C7.35208 14.9468 7.24559 15 7.10757 15C6.91031 15 6.74983 14.8395 6.74983 14.6415V14.4945C6.74983 14.4173 6.77532 14.3408 6.82109 14.2793L7.58006 13.2675C7.64756 13.1783 7.75404 13.125 7.89206 13.125C8.08932 13.125 8.2498 13.2855 8.2498 13.4835V13.6305Z" fill="#C3CAD6"/>
</g>
<defs>
<clipPath id="clip0">
<rect width="18" height="18" fill="white"/>
</clipPath>
</defs>
</svg>
