<svg width="149" height="78" viewBox="0 0 149 78" fill="none" xmlns="http://www.w3.org/2000/svg">
<g>
<path d="M56.2878 32.0753C54.8727 31.2891 53.1431 30.8698 49.8019 30.8698H43.9844V47.104H49.5923C53.2479 47.104 55.2264 46.6192 56.7725 45.6496C58.8559 44.3525 60.0351 41.8498 60.0351 38.9804C60.0351 35.993 58.62 33.3724 56.2878 32.0753ZM52.4618 42.2429C51.977 42.5181 51.4005 42.6622 50.195 42.6622H49.7495V35.2985H50.1164C51.3874 35.2985 52.0163 35.4427 52.5928 35.8095C53.5362 36.4123 53.9817 37.7094 53.9817 39.0066C53.9686 40.4217 53.4576 41.6664 52.4618 42.2429Z" fill="#AF2912"/>
<path d="M109.617 37.2901V34.7613H117.544V30.8698H103.852V47.0909H117.753V43.2911H109.617V40.7623H115.827V37.2901H109.617Z" fill="#AF2912"/>
<path d="M6.32812 30.8698V47.0909H12.2112V30.8698H6.32812Z" fill="#AF2912"/>
<path d="M67.2168 30.8698V47.0909H73.0868V30.8698H67.2168Z" fill="#AF2912"/>
<path d="M26.0347 40.8803L35.9534 47.6412V30.8699H30.1882V36.9888L20.2695 30.3588V47.104H26.0347V40.8803Z" fill="#AF2912"/>
<path d="M80.6992 30.8698V35.4558H85.521V47.104H91.2861V35.4558H96.3569V30.8698H80.6992Z" fill="#AF2912"/>
<path d="M132.703 43.0291L135.297 47.104H142.242L136.227 38.9542L142.202 30.8698H135.271L132.703 34.8268L130.135 30.8698H123.203L129.178 38.9804L123.164 47.104H130.108L132.703 43.0291Z" fill="#AF2912"/>
</g>
</svg>
