<svg width="36" height="32" viewBox="0 0 36 32" fill="none" xmlns="http://www.w3.org/2000/svg">
<path d="M34.194 6.10019H33V4.3002H27V6.10019H24.6V2.6238C24.6 1.563 23.7372 0.700195 22.6764 0.700195H13.3236C12.2628 0.700195 11.4 1.563 11.4 2.6238V6.10019H9V4.3002H3V6.10019H1.806C0.8106 6.10019 0 6.9108 0 7.9062V29.4942C0 30.4896 0.8106 31.3002 1.806 31.3002H34.194C35.1894 31.3002 36 30.4896 36 29.4942V7.9062C36 6.9108 35.1894 6.10019 34.194 6.10019ZM28.2 5.5002H31.8V6.10019H28.2V5.5002ZM12.6 2.6238C12.6 2.2248 12.9246 1.9002 13.3236 1.9002H22.6764C23.0754 1.9002 23.4 2.2248 23.4 2.6238V6.10019H12.6V2.6238ZM11.4 7.30019H24.6H27H30V30.1002H6V7.30019H9H11.4ZM4.2 5.5002H7.8V6.10019H4.2V5.5002ZM1.2 29.4942V7.9062C1.2 7.572 1.4718 7.30019 1.806 7.30019H3H4.8V30.1002H1.806C1.4718 30.1002 1.2 29.8284 1.2 29.4942ZM34.8 29.4942C34.8 29.8284 34.5282 30.1002 34.194 30.1002H31.2V7.30019H33H34.194C34.5282 7.30019 34.8 7.572 34.8 7.9062V29.4942Z" fill="#C3CAD6"/>
</svg>
