<svg width="20" height="20" viewBox="0 0 20 20" fill="none" xmlns="http://www.w3.org/2000/svg">
<path d="M13.3333 0C9.65738 0 6.66664 2.99074 6.66664 6.66668C6.66664 7.10449 6.71426 7.55371 6.80824 8.00496L6.06359 8.37726C5.94395 8.43707 5.86016 8.55102 5.83859 8.68324C5.81703 8.81547 5.86059 8.94977 5.95539 9.04457L6.49414 9.58332L6.07746 10H5.41664C5.18633 10 4.99996 10.1864 4.99996 10.4167V11.0775L4.41078 11.6667H3.75C3.51969 11.6667 3.33332 11.853 3.33332 12.0834V12.7442L2.74414 13.3333H2.08332C1.85301 13.3333 1.66664 13.5197 1.66664 13.75V14.4108L0.12207 15.9554C0.0439453 16.0335 0 16.1393 0 16.25V19.5833C0 19.8136 0.186367 20 0.41668 20H3.75C3.86066 20 3.96648 19.9561 4.04461 19.8779L10.4167 13.5059L10.9554 14.0446C11.0498 14.1394 11.1845 14.1838 11.3168 14.1614C11.449 14.1398 11.5629 14.056 11.6227 13.9364L11.995 13.1918C16.2345 14.0755 20 10.7804 20 6.66668C20 2.99074 17.0093 0 13.3333 0ZM11.873 12.3079C11.6842 12.2599 11.4844 12.3495 11.3965 12.5252L11.1357 13.0465L10.7113 12.6221C10.5485 12.4593 10.2848 12.4593 10.1221 12.6221L3.57746 19.1667H0.83332V16.4225L2.37793 14.8779C2.45605 14.7998 2.5 14.694 2.5 14.5833V14.1666H2.91668C3.02734 14.1666 3.13316 14.1227 3.21129 14.0446L4.04461 13.2113C4.12273 13.1331 4.16668 13.0273 4.16668 12.9166V12.5H4.58336C4.69402 12.5 4.79984 12.4561 4.87797 12.3779L5.71129 11.5446C5.78941 11.4665 5.83336 11.3607 5.83336 11.25V10.8333H6.25C6.36066 10.8333 6.46648 10.7894 6.54461 10.7113L7.37793 9.87793C7.5407 9.71516 7.5407 9.45148 7.37793 9.28875L6.95352 8.86434L7.47477 8.60352C7.65055 8.51562 7.7409 8.31707 7.69207 8.12703C7.56473 7.63223 7.5 7.14109 7.5 6.66668C7.5 3.45012 10.1168 0.833359 13.3333 0.833359C16.5498 0.833359 19.1666 3.45016 19.1666 6.66668C19.1667 10.3577 15.7223 13.2991 11.873 12.3079Z" fill="white"/>
<path d="M15.4168 2.5C14.2681 2.5 13.3335 3.43465 13.3335 4.58332C13.3335 5.73199 14.2681 6.66664 15.4168 6.66664C16.5655 6.66664 17.5001 5.73203 17.5001 4.58332C17.5001 3.43461 16.5655 2.5 15.4168 2.5ZM15.4168 5.83332C14.7275 5.83332 14.1668 5.27262 14.1668 4.58332C14.1668 3.89402 14.7275 3.33332 15.4168 3.33332C16.1061 3.33332 16.6668 3.89402 16.6668 4.58332C16.6668 5.27262 16.1061 5.83332 15.4168 5.83332Z" fill="white"/>
<path d="M8.4554 10.9555L2.62208 16.7889C2.45931 16.9517 2.45931 17.2153 2.62208 17.3781C2.70345 17.4594 2.81009 17.5002 2.91669 17.5002C3.02329 17.5002 3.12989 17.4594 3.2113 17.3781L9.04462 11.5448C9.20739 11.382 9.20739 11.1183 9.04462 10.9556C8.88185 10.7928 8.61817 10.7928 8.4554 10.9555Z" fill="white"/>
</svg>
