<svg width="36" height="36" viewBox="0 0 36 36" fill="none" xmlns="http://www.w3.org/2000/svg">
<path d="M23.3483 0H3.8999V36H32.0999V8.7516L23.3483 0ZM23.6999 2.0484L30.0515 8.4H23.6999V2.0484ZM5.0999 34.8V1.2H22.4999V9.6H30.8999V34.8H5.0999Z" fill="#C3CAD6"/>
<path d="M25.4998 12.6H15.8998C15.5686 12.6 15.2998 12.8682 15.2998 13.2C15.2998 13.5318 15.5686 13.8 15.8998 13.8H25.4998C25.831 13.8 26.0998 13.5318 26.0998 13.2C26.0998 12.8682 25.831 12.6 25.4998 12.6Z" fill="#C3CAD6"/>
<path d="M13.725 10.9314L11.1444 12.996L10.3242 12.1758C10.0896 11.9412 9.71035 11.9412 9.47575 12.1758C9.24115 12.4104 9.24115 12.7896 9.47575 13.0242L10.6758 14.2242C10.7922 14.3406 10.9458 14.4 11.1 14.4C11.232 14.4 11.3646 14.3568 11.4744 14.2686L14.4744 11.8686C14.7336 11.661 14.775 11.2836 14.568 11.025C14.3616 10.7658 13.9836 10.7244 13.725 10.9314Z" fill="#C3CAD6"/>
<path d="M25.4998 19.2H15.8998C15.5686 19.2 15.2998 19.4682 15.2998 19.8C15.2998 20.1318 15.5686 20.4 15.8998 20.4H25.4998C25.831 20.4 26.0998 20.1318 26.0998 19.8C26.0998 19.4682 25.831 19.2 25.4998 19.2Z" fill="#C3CAD6"/>
<path d="M13.725 17.5313L11.1444 19.5959L10.3242 18.7757C10.0896 18.5411 9.71035 18.5411 9.47575 18.7757C9.24115 19.0103 9.24115 19.3895 9.47575 19.6241L10.6758 20.8241C10.7922 20.9405 10.9458 20.9999 11.1 20.9999C11.232 20.9999 11.3646 20.9567 11.4744 20.8685L14.4744 18.4685C14.7336 18.2609 14.775 17.8835 14.568 17.6249C14.3616 17.3657 13.9836 17.3243 13.725 17.5313Z" fill="#C3CAD6"/>
<path d="M25.4998 25.8H15.8998C15.5686 25.8 15.2998 26.0682 15.2998 26.4C15.2998 26.7318 15.5686 27 15.8998 27H25.4998C25.831 27 26.0998 26.7318 26.0998 26.4C26.0998 26.0682 25.831 25.8 25.4998 25.8Z" fill="#C3CAD6"/>
<path d="M13.725 24.1314L11.1444 26.196L10.3242 25.3758C10.0896 25.1412 9.71035 25.1412 9.47575 25.3758C9.24115 25.6104 9.24115 25.9896 9.47575 26.2242L10.6758 27.4242C10.7922 27.5406 10.9458 27.6 11.1 27.6C11.232 27.6 11.3646 27.5568 11.4744 27.4686L14.4744 25.0686C14.7336 24.861 14.775 24.4836 14.568 24.225C14.3616 23.9658 13.9836 23.9244 13.725 24.1314Z" fill="#C3CAD6"/>
</svg>
