<svg width="36" height="36" viewBox="0 0 36 36" fill="none" xmlns="http://www.w3.org/2000/svg">
<path d="M23.3483 0H3.8999V36H32.0999V8.7516L23.3483 0ZM23.6999 2.0484L30.0515 8.4H23.6999V2.0484ZM5.0999 34.8V1.2H22.4999V9.6H30.8999V34.8H5.0999Z" fill="#C3CAD6"/>
<path d="M20.6999 22.2C21.0311 22.2 21.2999 21.9318 21.2999 21.6C21.2999 21.2682 21.0311 21 20.6999 21H10.4999C10.1687 21 9.8999 21.2682 9.8999 21.6C9.8999 21.9318 10.1687 22.2 10.4999 22.2H20.6999Z" fill="#C3CAD6"/>
<path d="M26.6999 18H22.4999C22.1687 18 21.8999 18.2682 21.8999 18.6C21.8999 18.9318 22.1687 19.2 22.4999 19.2H26.6999C27.0311 19.2 27.2999 18.9318 27.2999 18.6C27.2999 18.2682 27.0311 18 26.6999 18Z" fill="#C3CAD6"/>
<path d="M12.8999 18.6C12.8999 18.9318 13.1687 19.2 13.4999 19.2H19.4999C19.8311 19.2 20.0999 18.9318 20.0999 18.6C20.0999 18.2682 19.8311 18 19.4999 18H13.4999C13.1687 18 12.8999 18.2682 12.8999 18.6Z" fill="#C3CAD6"/>
<path d="M10.0739 18.174C9.9659 18.2874 9.8999 18.4434 9.8999 18.6C9.8999 18.756 9.9659 18.912 10.0739 19.02C10.1819 19.1334 10.3379 19.2 10.4999 19.2C10.6619 19.2 10.8119 19.134 10.9259 19.026C11.0339 18.912 11.0999 18.756 11.0999 18.6C11.0999 18.4434 11.0339 18.2874 10.9259 18.174C10.7039 17.952 10.2899 17.958 10.0739 18.174Z" fill="#C3CAD6"/>
<path d="M23.2741 21.1739C23.1661 21.2873 23.1001 21.4373 23.1001 21.5999C23.1001 21.7619 23.1601 21.9119 23.2741 22.0259C23.3881 22.1339 23.5441 22.1999 23.7001 22.1999C23.8561 22.1999 24.0121 22.1339 24.1261 22.0259C24.2401 21.9119 24.3001 21.7619 24.3001 21.5999C24.3001 21.4433 24.2341 21.2873 24.1261 21.1739C23.8981 20.9519 23.5021 20.9519 23.2741 21.1739Z" fill="#C3CAD6"/>
<path d="M26.2741 21.1739C26.1661 21.2873 26.1001 21.4373 26.1001 21.5999C26.1001 21.7619 26.1601 21.9119 26.2741 22.0259C26.3881 22.1339 26.5441 22.1999 26.7001 22.1999C26.8561 22.1999 27.0121 22.1339 27.1261 22.0199C27.2401 21.9059 27.3001 21.7559 27.3001 21.5999C27.3001 21.4433 27.2341 21.2873 27.1261 21.1739C26.8981 20.9519 26.5021 20.9519 26.2741 21.1739Z" fill="#C3CAD6"/>
<path d="M13.8148 24.0996C12.5008 24.7836 12.0586 26.0922 11.8972 27.4488C11.6488 27.2406 11.4004 27.033 11.152 26.8248C10.564 26.3322 9.71084 27.1764 10.3036 27.6738C10.8646 28.1436 11.4262 28.614 11.9872 29.0844C12.382 29.415 12.9928 29.2062 13.0114 28.6602C13.0552 27.3606 13.1164 25.815 14.4202 25.1364C15.106 24.7794 14.4994 23.7432 13.8148 24.0996Z" fill="#C3CAD6"/>
<path d="M21.8729 26.4648C20.9981 26.4096 19.7177 27.7578 19.0433 26.5566C18.8873 26.2782 18.4955 26.1738 18.2225 26.3412C17.3729 26.8626 16.2623 27.6126 15.3689 26.6412C14.8451 26.0718 13.9979 26.922 14.5205 27.4896C15.6425 28.7094 17.0861 28.3386 18.3599 27.6474C18.6467 27.9684 19.0025 28.203 19.4621 28.296C19.9373 28.392 21.8771 27.6114 21.9821 27.7554C22.4333 28.3728 23.4749 27.7746 23.0183 27.15C22.7081 26.7258 22.4225 26.4996 21.8729 26.4648Z" fill="#C3CAD6"/>
<path d="M17.1994 14.3778L17.6038 14.0904L17.3974 13.6392C17.2102 13.23 16.9096 12.912 16.5274 12.72L15.2554 12.0708C15.8404 11.697 16.261 11.1342 16.5124 10.3902C16.9228 10.14 17.1814 9.69537 17.1814 9.19977V8.79957C17.1814 8.39337 17.005 8.01477 16.705 7.75257C16.4908 6.61377 15.7186 5.38197 13.381 5.38197C13.2892 5.38197 13.1992 5.38557 13.1104 5.39277C12.7966 5.41857 12.3394 5.39277 11.9482 5.12997C11.7664 5.00757 11.6734 4.91277 11.6278 4.85457C11.4376 4.61277 11.1184 4.52817 10.8334 4.64457C10.549 4.76157 10.3822 5.04597 10.417 5.35197C10.435 5.50617 10.4608 5.68617 10.4998 5.88237C10.5502 6.13437 10.5532 6.20697 10.5514 6.22617C10.5466 6.24717 10.5118 6.32157 10.4842 6.38157C10.4422 6.47157 10.3906 6.58257 10.33 6.73077C10.1998 7.04817 10.105 7.39377 10.0474 7.76217C9.75396 8.02497 9.58056 8.39997 9.58056 8.80017V9.20037C9.58056 9.69597 9.83916 10.1406 10.2496 10.3908C10.4998 11.1318 10.9186 11.6934 11.4994 12.0666L10.177 12.7188C9.80916 12.9192 9.52236 13.239 9.34776 13.6434L9.15576 14.088L9.54936 14.3694C10.678 15.1746 12.0022 15.6 13.381 15.6C14.755 15.6 16.075 15.1776 17.1994 14.3778ZM10.8094 13.7442L12.2764 13.0218C12.5878 12.8676 12.7816 12.5562 12.7816 12.2088V11.3556L12.4192 11.199C11.872 10.9638 11.5156 10.5084 11.3278 9.80637L11.242 9.48657L10.9258 9.38817C10.8562 9.36657 10.7818 9.29877 10.7818 9.20037V8.80017C10.7818 8.71497 10.8388 8.65497 10.8922 8.62677L11.1736 8.47677L11.2066 8.15937C11.2438 7.80237 11.3224 7.47537 11.4412 7.18617C11.4928 7.05957 11.5372 6.96537 11.5732 6.88797C11.6662 6.68877 11.7226 6.54117 11.743 6.37497C12.181 6.55797 12.6784 6.62997 13.207 6.58977C13.264 6.58497 13.3222 6.58257 13.3816 6.58257C15.133 6.58257 15.463 7.38297 15.5548 8.16537L15.5914 8.47917L15.871 8.62617C15.9244 8.65437 15.982 8.71437 15.982 8.80017V9.20037C15.982 9.29877 15.907 9.36657 15.838 9.38817L15.5218 9.48657L15.436 9.80637C15.2482 10.5084 14.8912 10.9644 14.3446 11.199L13.9822 11.3556V12.2124C13.9822 12.5544 14.1712 12.864 14.4772 13.0206L15.9262 13.7604C14.3536 14.6058 12.3766 14.6004 10.8094 13.7442Z" fill="#C3CAD6"/>
</svg>
