<svg width="29" height="36" viewBox="0 0 29 36" fill="none" xmlns="http://www.w3.org/2000/svg">
<path d="M21.6 13.2H6.6C6.2688 13.2 6 13.4682 6 13.8C6 14.1318 6.2688 14.4 6.6 14.4H21.6C21.9312 14.4 22.2 14.1318 22.2 13.8C22.2 13.4682 21.9312 13.2 21.6 13.2Z" fill="#C3CAD6"/>
<path d="M6.6 9.60003H12.6C12.9312 9.60003 13.2 9.33183 13.2 9.00002C13.2 8.66822 12.9312 8.40002 12.6 8.40002H6.6C6.2688 8.40002 6 8.66822 6 9.00002C6 9.33183 6.2688 9.60003 6.6 9.60003Z" fill="#C3CAD6"/>
<path d="M21.6 18H6.6C6.2688 18 6 18.2682 6 18.6C6 18.9318 6.2688 19.2 6.6 19.2H21.6C21.9312 19.2 22.2 18.9318 22.2 18.6C22.2 18.2682 21.9312 18 21.6 18Z" fill="#C3CAD6"/>
<path d="M21.6 22.8H6.6C6.2688 22.8 6 23.0682 6 23.4C6 23.7318 6.2688 24 6.6 24H21.6C21.9312 24 22.2 23.7318 22.2 23.4C22.2 23.0682 21.9312 22.8 21.6 22.8Z" fill="#C3CAD6"/>
<path d="M21.6 27.6H6.6C6.2688 27.6 6 27.8682 6 28.2C6 28.5318 6.2688 28.8 6.6 28.8H21.6C21.9312 28.8 22.2 28.5318 22.2 28.2C22.2 27.8682 21.9312 27.6 21.6 27.6Z" fill="#C3CAD6"/>
<path d="M19.4484 0H0V36H28.2V8.7516L19.4484 0ZM19.8 2.0484L26.1516 8.4H19.8V2.0484ZM1.2 34.8V1.2H18.6V9.6H27V34.8H1.2Z" fill="#C3CAD6"/>
</svg>
