<svg width="18" height="18" viewBox="0 0 18 18" fill="none" xmlns="http://www.w3.org/2000/svg">
<path d="M14.2631 0H13.6605H11.5557H2.53529V5.11369V11.1273V16.2356H3.73802V18L4.94075 17.1984L6.14347 18V16.2356H11.5557H13.6605H14.2631C14.9255 16.2356 15.4646 15.6965 15.4646 15.0341V11.1273V5.11369V1.20152C15.4646 0.539122 14.9255 0 14.2631 0ZM3.13666 0.601363H11.5557V5.11369H3.13666V0.601363ZM11.5557 10.526H3.13666V5.71505H11.5557V10.526ZM5.54211 16.8767L4.94075 16.4755L4.33938 16.8767V16.2356H5.54211V16.8767ZM6.14347 15.6342H3.73802H3.13666V11.1273H11.5557V15.6342H6.14347ZM12.1571 15.6342V11.1273V5.11369V0.601363H13.0591V5.11369V11.1273V15.6342H12.1571ZM13.6605 5.71505H14.8632V10.526H13.6605V5.71505ZM14.8632 15.0341C14.8632 15.3651 14.5938 15.6342 14.2631 15.6342H13.6605V11.1273H14.8632V15.0341ZM13.6605 5.11369V0.601363H14.2631C14.5941 0.601363 14.8632 0.870774 14.8632 1.20152V5.11369H13.6605Z" fill="#C3CAD6"/>
</svg>
