<svg width="36" height="33" viewBox="0 0 36 33" fill="none" xmlns="http://www.w3.org/2000/svg">
<path d="M28.2145 17.4V12.0036C28.2403 7.8894 25.4737 5.1606 23.0965 4.074C22.4155 3.7626 21.7135 3.5226 21.0001 3.3444V3C21.0001 1.3458 19.6543 0 18.0001 0C16.3459 0 15.0001 1.3458 15.0001 3V3.3966C14.3575 3.57 13.7257 3.7962 13.1125 4.0794C10.4857 5.2902 7.82411 8.2086 7.80011 12V17.4C7.80011 21.2328 6.44651 24.5214 3.77711 27.1746C3.61811 27.333 3.56051 27.5664 3.62771 27.7806C3.69491 27.9948 3.87671 28.1532 4.09811 28.1916L9.79271 29.175C10.8535 29.358 11.8303 29.508 12.7597 29.6316C13.8067 31.6836 15.8629 33.0006 18.1093 33.0006C20.3563 33.0006 22.4131 31.683 23.4595 29.6298C24.3853 29.5068 25.3573 29.3574 26.4121 29.175L32.1061 28.1916C32.3275 28.1538 32.5087 27.9948 32.5765 27.7806C32.6443 27.567 32.5867 27.333 32.4271 27.1746C29.6323 24.396 28.2145 21.1074 28.2145 17.4ZM16.2001 3C16.2001 2.0076 17.0077 1.2 18.0001 1.2C18.9925 1.2 19.8001 2.0076 19.8001 3V3.1092C18.6043 2.9376 17.3911 2.9448 16.2001 3.1374V3ZM18.1099 31.8C16.5907 31.8 15.1711 31.0452 14.2597 29.811C15.6007 29.949 16.8523 30.0186 18.1033 30.0186C19.3591 30.0186 20.6149 29.949 21.9613 29.8092C21.0493 31.0446 19.6291 31.8 18.1099 31.8ZM26.2087 27.9918C25.0573 28.1904 24.0019 28.3518 23.0047 28.479C23.0035 28.479 23.0023 28.479 23.0005 28.479C22.5607 28.5348 22.1335 28.5834 21.7153 28.6254C21.7117 28.6254 21.7087 28.626 21.7051 28.626C21.3217 28.6644 20.9473 28.6956 20.5765 28.722C20.5069 28.7268 20.4373 28.7316 20.3683 28.7358C20.0473 28.7568 19.7299 28.7736 19.4143 28.7856C19.3501 28.788 19.2853 28.7916 19.2211 28.7934C18.4747 28.8186 17.7385 28.8186 16.9927 28.794C16.9261 28.7916 16.8589 28.788 16.7923 28.7856C16.4821 28.773 16.1695 28.7574 15.8533 28.7364C15.7783 28.7316 15.7033 28.7268 15.6277 28.7214C15.2683 28.6956 14.9047 28.6656 14.5333 28.6284C14.5195 28.6272 14.5063 28.626 14.4925 28.6248C14.0773 28.5834 13.6537 28.5348 13.2181 28.4796C13.2163 28.4796 13.2145 28.4796 13.2127 28.4796C12.2119 28.353 11.1523 28.1904 9.99611 27.9912L5.40011 27.198C7.78991 24.4656 9.00011 21.1752 9.00011 17.4V12.0036C9.02051 8.7426 11.3329 6.2214 13.6147 5.169C14.2933 4.8564 14.9971 4.623 15.7129 4.4592C15.7189 4.458 15.7255 4.4586 15.7315 4.4574C17.2105 4.125 18.7837 4.11 20.2795 4.4166C20.2873 4.4184 20.2951 4.4148 20.3029 4.416C21.0853 4.5792 21.8557 4.8264 22.5979 5.1654C24.8113 6.1776 27.0355 8.682 27.0145 12.0006V17.4006C27.0145 21.0204 28.3195 24.3864 30.8023 27.1992L26.2087 27.9918Z" fill="#C3CAD6"/>
<path d="M21.85 6.80287C19.525 5.74027 16.678 5.73907 14.3686 6.80407C13.0516 7.41127 10.8178 9.18786 10.7998 11.9965C10.798 12.3277 11.0644 12.5977 11.3962 12.6001C11.3974 12.6001 11.3986 12.6001 11.3998 12.6001C11.7292 12.6001 11.998 12.3343 11.9998 12.0037C12.0136 9.79746 13.8112 8.38267 14.8708 7.89367C16.8688 6.97147 19.3384 6.97387 21.3502 7.89367C21.652 8.03167 22.0078 7.89907 22.1458 7.59787C22.2838 7.29607 22.1506 6.94027 21.85 6.80287Z" fill="#C3CAD6"/>
<path d="M2.8812 12.1759C2.6466 11.9414 2.2674 11.9414 2.0328 12.1759C0.7218 13.4869 0 15.2318 0 17.0899C0 18.9481 0.7218 20.6935 2.0328 22.0039C2.1498 22.1209 2.3034 22.1797 2.457 22.1797C2.6106 22.1797 2.7642 22.1209 2.8812 22.0039C3.1158 21.7693 3.1158 21.3901 2.8812 21.1555C1.797 20.0713 1.2 18.6277 1.2 17.0899C1.2 15.5521 1.797 14.108 2.8812 13.0244C3.1152 12.7898 3.1152 12.4105 2.8812 12.1759Z" fill="#C3CAD6"/>
<path d="M4.98298 20.8139C5.13658 20.8139 5.29018 20.7551 5.40718 20.6381C5.64178 20.4035 5.64178 20.0243 5.40718 19.7897C3.87238 18.2549 3.87238 15.7583 5.40718 14.2241C5.64178 13.9895 5.64178 13.6103 5.40718 13.3757C5.17258 13.1411 4.79338 13.1411 4.55878 13.3757C2.55658 15.3779 2.55658 18.6365 4.55878 20.6381C4.67578 20.7557 4.82938 20.8139 4.98298 20.8139Z" fill="#C3CAD6"/>
<path d="M33.9672 12.1759C33.7326 11.9414 33.3534 11.9414 33.1188 12.1759C32.8842 12.4105 32.8842 12.7898 33.1188 13.0244C34.203 14.1086 34.8 15.5521 34.8 17.0899C34.8 18.6277 34.203 20.0713 33.1188 21.1555C32.8842 21.3901 32.8842 21.7693 33.1188 22.0039C33.2358 22.1209 33.3894 22.1797 33.543 22.1797C33.6966 22.1797 33.8502 22.1209 33.9672 22.0039C35.2782 20.6935 36 18.9481 36 17.0899C36 15.2318 35.2782 13.4869 33.9672 12.1759Z" fill="#C3CAD6"/>
<path d="M30.5929 13.3757C30.3583 13.6103 30.3583 13.9895 30.5929 14.2241C32.1277 15.7589 32.1277 18.2555 30.5929 19.7897C30.3583 20.0243 30.3583 20.4035 30.5929 20.6381C30.7099 20.7551 30.8635 20.8139 31.0171 20.8139C31.1707 20.8139 31.3243 20.7551 31.4413 20.6381C33.4435 18.6359 33.4435 15.3773 31.4413 13.3757C31.2067 13.1411 30.8269 13.1411 30.5929 13.3757Z" fill="#C3CAD6"/>
</svg>
