<svg width="36" height="36" viewBox="0 0 36 36" fill="none" xmlns="http://www.w3.org/2000/svg">
<path d="M25.4999 13.2H10.4999C10.1687 13.2 9.8999 13.4682 9.8999 13.8C9.8999 14.1318 10.1687 14.4 10.4999 14.4H25.4999C25.8311 14.4 26.0999 14.1318 26.0999 13.8C26.0999 13.4682 25.8311 13.2 25.4999 13.2Z" fill="#C3CAD6"/>
<path d="M10.4999 9.60003H16.4999C16.8311 9.60003 17.0999 9.33183 17.0999 9.00002C17.0999 8.66822 16.8311 8.40002 16.4999 8.40002H10.4999C10.1687 8.40002 9.8999 8.66822 9.8999 9.00002C9.8999 9.33183 10.1687 9.60003 10.4999 9.60003Z" fill="#C3CAD6"/>
<path d="M25.4999 18H10.4999C10.1687 18 9.8999 18.2682 9.8999 18.6C9.8999 18.9318 10.1687 19.2 10.4999 19.2H25.4999C25.8311 19.2 26.0999 18.9318 26.0999 18.6C26.0999 18.2682 25.8311 18 25.4999 18Z" fill="#C3CAD6"/>
<path d="M25.4999 22.8H10.4999C10.1687 22.8 9.8999 23.0682 9.8999 23.4C9.8999 23.7318 10.1687 24 10.4999 24H25.4999C25.8311 24 26.0999 23.7318 26.0999 23.4C26.0999 23.0682 25.8311 22.8 25.4999 22.8Z" fill="#C3CAD6"/>
<path d="M25.4999 27.6H10.4999C10.1687 27.6 9.8999 27.8682 9.8999 28.2C9.8999 28.5318 10.1687 28.8 10.4999 28.8H25.4999C25.8311 28.8 26.0999 28.5318 26.0999 28.2C26.0999 27.8682 25.8311 27.6 25.4999 27.6Z" fill="#C3CAD6"/>
<path d="M23.3483 0H3.8999V36H32.0999V8.7516L23.3483 0ZM23.6999 2.0484L30.0515 8.4H23.6999V2.0484ZM5.0999 34.8V1.2H22.4999V9.6H30.8999V34.8H5.0999Z" fill="#C3CAD6"/>
</svg>
