<svg width="36" height="36" viewBox="0 0 36 36" fill="none" xmlns="http://www.w3.org/2000/svg">
<path d="M29.6743 14.3769L36 10.7627L18.0003 0.540466L0 10.7627L6.3257 14.3769L0 17.9689L6.3257 21.5831L0 25.175L18.0003 35.4589L36 25.175L29.6743 21.5831L36 17.9689L29.6743 14.3769ZM18.0003 2.04721L33.3527 10.766L18.0003 19.5379L2.64728 10.766L18.0003 2.04721ZM7.64835 15.1323L18.0003 21.0466L28.3523 15.1323L33.3527 17.9722L18.0003 26.744L2.64728 17.9722L7.64835 15.1323ZM33.3527 25.1783L18.0003 33.9502L2.64728 25.1783L7.64835 22.3384L18.0003 28.2527L28.3523 22.3384L33.3527 25.1783Z" fill="#C3CAD6"/>
</svg>
