<svg width="18" height="18" viewBox="0 0 18 18" fill="none" xmlns="http://www.w3.org/2000/svg">
<g clip-path="url(#clip0)">
<path d="M17.9989 8.90725C17.9516 4.17866 14.072 0.185769 9.35011 0.00651274C6.86843 -0.0857346 4.53676 0.804501 2.75854 2.51596C0.979617 4.2289 0.00012207 6.53132 0.00012207 9.00027C0.00012207 13.8399 3.72826 17.7443 8.53113 17.988C8.56112 17.9955 8.59262 18 8.62489 18C8.66388 18 8.7029 17.9985 8.74115 17.997C8.7479 17.997 8.75391 17.9978 8.76066 17.9978C8.79441 17.9978 8.83417 17.994 8.86866 17.9843C9.78814 17.8643 10.4999 17.0768 10.4999 16.1251C10.4999 15.7261 10.3754 15.3443 10.1406 15.0219C10.1391 15.0189 10.1368 15.0159 10.1346 15.0136C9.95984 14.7489 9.8001 14.5336 9.65761 14.3424C9.27737 13.8309 9.06813 13.5497 9.00963 12.8732C9.00362 12.8327 8.99989 12.7922 8.99989 12.7502C8.99989 12.3362 9.33664 12.0002 9.74986 12.0002C10.2718 12.0002 10.8921 12.1555 11.5491 12.3197C13.0648 12.6977 14.9495 13.1709 16.7149 11.9312C18.0206 11.0147 18.0056 9.59123 17.9989 8.90725ZM16.2844 11.3184C14.7987 12.3602 13.2395 11.9717 11.7321 11.5922C11.0286 11.4167 10.3648 11.2502 9.74986 11.2502C8.92262 11.2502 8.24989 11.9229 8.24989 12.7502C8.24989 12.8154 8.25365 12.8792 8.26863 12.9677H8.26789C8.33915 13.8256 8.65639 14.2517 9.05688 14.7901C9.19564 14.9769 9.35162 15.1861 9.52262 15.4464C9.5301 15.4576 9.53763 15.4681 9.54585 15.4779C9.67934 15.6684 9.74986 15.8911 9.74986 16.1251C9.74986 16.7116 9.29836 17.1946 8.7254 17.2456C4.24877 17.1001 0.750124 13.4882 0.750124 9.00031C0.750124 6.73687 1.64785 4.62644 3.27831 3.05672C4.83003 1.56276 6.84969 0.750538 8.99691 0.750538C9.1049 0.750538 9.2129 0.752788 9.32241 0.757288C13.6498 0.921533 17.2062 4.58144 17.2497 8.91555C17.2556 9.51473 17.2669 10.6285 16.2844 11.3184Z" fill="#C3CAD6"/>
<path d="M13.8747 6.00024C12.8405 6.00024 11.9998 6.84098 11.9998 7.87518C11.9998 8.90937 12.8413 9.75011 13.8747 9.75011C14.9082 9.75011 15.7497 8.90937 15.7497 7.87518C15.7497 6.84098 14.909 6.00024 13.8747 6.00024ZM13.8747 9.00018C13.2545 9.00018 12.7498 8.49546 12.7498 7.87521C12.7498 7.25497 13.2538 6.75025 13.8747 6.75025C14.495 6.75025 14.9997 7.25497 14.9997 7.87521C14.9997 8.49546 14.495 9.00018 13.8747 9.00018Z" fill="#C3CAD6"/>
<path d="M10.1248 2.25049C9.0906 2.25049 8.24989 3.09123 8.24989 4.12542C8.24989 5.15965 9.09063 6.00036 10.1248 6.00036C11.1583 6.00036 11.9998 5.15962 11.9998 4.12542C11.9998 3.09119 11.1591 2.25049 10.1248 2.25049ZM10.1248 5.25039C9.50385 5.25039 8.99986 4.74567 8.99986 4.12542C8.99986 3.50518 9.50385 3.00045 10.1248 3.00045C10.7451 3.00045 11.2498 3.50518 11.2498 4.12542C11.2498 4.74567 10.7458 5.25039 10.1248 5.25039Z" fill="#C3CAD6"/>
<path d="M4.87499 3.75024C3.84076 3.75024 3.00006 4.59098 3.00006 5.62518C3.00006 6.65937 3.8408 7.50011 4.87499 7.50011C5.90845 7.50011 6.74993 6.65937 6.74993 5.62518C6.74993 4.59098 5.90923 3.75024 4.87499 3.75024ZM4.87499 6.75018C4.25401 6.75018 3.75003 6.24546 3.75003 5.62521C3.75003 5.00497 4.25401 4.50025 4.87499 4.50025C5.49524 4.50025 5.99996 5.00497 5.99996 5.62521C5.99996 6.24546 5.49598 6.75018 4.87499 6.75018Z" fill="#C3CAD6"/>
<path d="M4.12504 9.00024C3.09081 9.00024 2.25011 9.84098 2.25011 10.8752C2.25011 11.9094 3.09084 12.7501 4.12504 12.7501C5.15849 12.7501 5.99997 11.9094 5.99997 10.8752C5.99997 9.84095 5.15923 9.00024 4.12504 9.00024ZM4.12504 12.0001C3.50406 12.0001 3.00007 11.4954 3.00007 10.8752C3.00007 10.2549 3.50406 9.75021 4.12504 9.75021C4.74528 9.75021 5.25 10.2549 5.25 10.8752C5.25 11.4954 4.74602 12.0001 4.12504 12.0001Z" fill="#C3CAD6"/>
</g>
<defs>
<clipPath id="clip0">
<rect width="18" height="18" fill="white"/>
</clipPath>
</defs>
</svg>
