<svg width="29" height="29" viewBox="0 0 29 29" fill="none" xmlns="http://www.w3.org/2000/svg">
<g clip-path="url(#clip0)">
<path d="M27.6185 1.38098C25.7761 -0.460326 22.7796 -0.460326 20.9372 1.38098L2.00874 20.3095C1.99982 20.3184 1.99457 20.3294 1.9867 20.3388C1.97567 20.3514 1.96623 20.3651 1.95625 20.3787C1.92843 20.4176 1.90691 20.459 1.89064 20.5042C1.88592 20.5178 1.87909 20.5299 1.87542 20.5435C1.87385 20.5488 1.8707 20.554 1.86912 20.5593L0.0136471 28.3539C0.00524887 28.389 0.00314932 28.4247 0.00209955 28.4599C0.00209955 28.4667 0 28.473 0 28.4798C0.000524887 28.5397 0.0136471 28.5979 0.0341176 28.6541C0.0388416 28.6672 0.0440905 28.6788 0.0498643 28.6914C0.0755837 28.7475 0.107602 28.8016 0.152742 28.8467C0.202606 28.8966 0.261394 28.9349 0.324905 28.9612C0.388416 28.9874 0.456127 29.0005 0.523837 29.0005C0.564253 29.0005 0.605195 28.9958 0.645086 28.9864L8.43966 27.1309C8.45383 27.1277 8.46642 27.1199 8.48007 27.1151C8.49792 27.1094 8.51471 27.1025 8.53203 27.0947C8.56983 27.0773 8.60499 27.0558 8.63754 27.0301C8.65014 27.0201 8.66326 27.0128 8.67533 27.0018C8.67953 26.9976 8.68478 26.9955 8.68898 26.9913L27.618 8.06226C29.4603 6.21991 29.4603 3.22281 27.6185 1.38098ZM26.8763 2.12317C28.1822 3.42961 28.2935 5.48087 27.2175 6.91906L22.0804 1.78199C23.5191 0.705973 25.5704 0.817249 26.8763 2.12317ZM24.2781 9.91774L19.0817 4.72136L19.8239 3.97917L25.0203 9.17555L24.2781 9.91774ZM2.60396 26.3955C2.39873 26.1903 2.067 26.1903 1.86177 26.3955L1.46443 26.7929L2.805 21.1619L5.12604 20.9041L4.82738 23.5926C4.82528 23.6126 4.83263 23.6309 4.83263 23.6504C4.83263 23.6703 4.82528 23.6881 4.82738 23.7081C4.82948 23.7254 4.83841 23.7396 4.84208 23.7564C4.84838 23.7868 4.8573 23.8146 4.86833 23.843C4.88197 23.8771 4.89824 23.9081 4.91819 23.938C4.93446 23.9621 4.95073 23.9837 4.97068 24.0047C4.99587 24.0314 5.02317 24.054 5.05309 24.075C5.07671 24.0913 5.09928 24.1065 5.12552 24.1191C5.16016 24.1353 5.19638 24.1448 5.23417 24.1537C5.25412 24.1584 5.27039 24.1695 5.29086 24.1721C5.30976 24.1742 5.32865 24.1752 5.34807 24.1752H5.3486H5.34912H5.34965H5.35017C5.36907 24.1752 5.38849 24.1742 5.40738 24.1721L8.09585 23.8734L7.83814 26.1945L2.20662 27.535L2.60396 27.1377C2.80867 26.933 2.80867 26.6007 2.60396 26.3955ZM9.19129 23.5197L20.9372 11.7732C21.1424 11.568 21.1424 11.2363 20.9372 11.031C20.732 10.8258 20.4003 10.8258 20.195 11.031L8.4491 22.7775L5.94382 23.0557L6.22201 20.5504L17.969 8.80445C18.1742 8.59922 18.1742 8.26749 17.969 8.06226C17.7637 7.85703 17.432 7.85703 17.2268 8.06226L5.47982 19.8082L3.8091 19.994L18.3395 5.46355L23.5359 10.6599L9.00548 25.1904L9.19129 23.5197ZM25.7625 8.43336L20.5661 3.23698L21.3088 2.49426L26.5052 7.69064L25.7625 8.43336Z" fill="white"/>
</g>
<defs>
<clipPath id="clip0">
<rect width="29" height="29" fill="white"/>
</clipPath>
</defs>
</svg>
