<svg width="16" height="16" viewBox="0 0 16 16" fill="none" xmlns="http://www.w3.org/2000/svg">
<path d="M13.3333 8.53337C14.0685 8.53337 14.6667 7.93523 14.6667 7.20003C14.6667 6.46483 14.0685 5.8667 13.3333 5.8667C12.5981 5.8667 12 6.46483 12 7.20003C12 7.93523 12.5981 8.53337 13.3333 8.53337ZM13.3333 6.40003C13.7744 6.40003 14.1333 6.75897 14.1333 7.20003C14.1333 7.6411 13.7744 8.00003 13.3333 8.00003C12.8923 8.00003 12.5333 7.6411 12.5333 7.20003C12.5333 6.75897 12.8923 6.40003 13.3333 6.40003Z" fill="#C3CAD6"/>
<path d="M11.1999 11.4668H4.79987C4.6524 11.4668 4.5332 11.586 4.5332 11.7335C4.5332 11.8809 4.6524 12.0001 4.79987 12.0001H11.1999C11.3473 12.0001 11.4665 11.8809 11.4665 11.7335C11.4665 11.586 11.3473 11.4668 11.1999 11.4668Z" fill="#C3CAD6"/>
<path d="M11.1999 12.8H4.79987C4.6524 12.8 4.5332 12.9192 4.5332 13.0667C4.5332 13.2142 4.6524 13.3334 4.79987 13.3334H11.1999C11.3473 13.3334 11.4665 13.2142 11.4665 13.0667C11.4665 12.9192 11.3473 12.8 11.1999 12.8Z" fill="#C3CAD6"/>
<path d="M13.6 4.53333V0H2.4V4.53333H0V13.6H1.6V14.4H2.4V16H13.6V14.4H14.4V13.6H16V4.53333H13.6ZM2.93333 0.533333H13.0667V4.53333H2.93333V0.533333ZM2.4 5.06667H13.6H15.4667V9.33333H0.533333V5.06667H2.4ZM2.13333 13.8667V13.3333V13.0667V12C2.13333 11.8525 2.01413 11.7333 1.86667 11.7333C1.7192 11.7333 1.6 11.8525 1.6 12V13.0667H0.533333V9.86667H2.4V13.8667H2.13333ZM13.0667 15.4667H2.93333V14.4V9.86667H13.0667V14.4V15.4667ZM14.4 13.0667V12C14.4 11.8525 14.2808 11.7333 14.1333 11.7333C13.9859 11.7333 13.8667 11.8525 13.8667 12V13.0667V13.3333V13.8667H13.6V9.86667H15.4667V13.0667H14.4Z" fill="#C3CAD6"/>
</svg>
