<svg width="24" height="24" viewBox="0 0 24 24" fill="none" xmlns="http://www.w3.org/2000/svg">
<g >
<path d="M19.6094 6.75C19.1964 6.75 18.8594 6.413 18.8594 6C18.8594 5.587 19.1964 5.25 19.6094 5.25C20.0224 5.25 20.3594 5.587 20.3594 6C20.3594 6.413 20.0224 6.75 19.6094 6.75Z" fill="none"/>
<path d="M21.7305 4.38018C21.6025 4.38018 21.4745 4.33118 21.3765 4.23418C20.4315 3.28918 18.7885 3.28918 17.8435 4.23418C17.6485 4.42918 17.3315 4.42918 17.1365 4.23418C16.9415 4.03918 16.9415 3.72218 17.1365 3.52718C18.4605 2.20318 20.7595 2.20318 22.0835 3.52718C22.2785 3.72218 22.2785 4.03918 22.0835 4.23418C21.9865 4.33118 21.8585 4.38018 21.7305 4.38018Z" fill="none"/>
<path d="M23.5009 2.61C23.3729 2.61 23.2449 2.561 23.1469 2.464C22.2029 1.52 20.9469 1 19.6109 1C18.2739 1 17.018 1.52 16.074 2.464C15.879 2.659 15.562 2.659 15.367 2.464C15.172 2.269 15.172 1.952 15.367 1.757C16.5 0.624 18.0069 0 19.6109 0C21.2149 0 22.7209 0.624 23.8539 1.757C24.0489 1.952 24.0489 2.269 23.8539 2.464C23.7569 2.562 23.6289 2.61 23.5009 2.61Z" fill="none"/>
<path d="M13.001 18C11.898 18 11.001 17.103 11.001 16C11.001 14.897 11.898 14 13.001 14C14.104 14 15.001 14.897 15.001 16C15.001 17.103 14.104 18 13.001 18ZM13.001 15C12.449 15 12.001 15.448 12.001 16C12.001 16.552 12.449 17 13.001 17C13.553 17 14.001 16.552 14.001 16C14.001 15.448 13.553 15 13.001 15Z" fill="none"/>
<path d="M7.00097 18C5.89797 18 5.00098 17.103 5.00098 16C5.00098 14.897 5.89797 14 7.00097 14C8.10397 14 9.00097 14.897 9.00097 16C9.00097 17.103 8.10397 18 7.00097 18ZM7.00097 15C6.44897 15 6.00097 15.448 6.00097 16C6.00097 16.552 6.44897 17 7.00097 17C7.55297 17 8.00097 16.552 8.00097 16C8.00097 15.448 7.55297 15 7.00097 15Z" fill="none"/>
<path d="M15.501 24H4.50098C3.12198 24 2.00098 22.879 2.00098 21.5V13.5C2.00098 12.121 3.12198 11 4.50098 11H15.501C16.88 11 18.001 12.121 18.001 13.5V21.5C18.001 22.879 16.88 24 15.501 24ZM4.50098 12C3.67398 12 3.00098 12.673 3.00098 13.5V21.5C3.00098 22.327 3.67398 23 4.50098 23H15.501C16.328 23 17.001 22.327 17.001 21.5V13.5C17.001 12.673 16.328 12 15.501 12H4.50098Z" fill="none"/>
<path d="M10.001 12C9.72498 12 9.50098 11.776 9.50098 11.5V8.5C9.50098 8.224 9.72498 8 10.001 8C10.277 8 10.501 8.224 10.501 8.5V11.5C10.501 11.776 10.277 12 10.001 12Z" fill="none"/>
<path d="M12.499 21H7.49902C7.22302 21 6.99902 20.776 6.99902 20.5C6.99902 20.224 7.22302 20 7.49902 20H12.499C12.775 20 12.999 20.224 12.999 20.5C12.999 20.776 12.775 21 12.499 21Z" fill="none"/>
<path d="M10.001 8.99999C8.89797 8.99999 8.00098 8.10299 8.00098 7C8.00098 5.897 8.89797 5 10.001 5C11.104 5 12.001 5.897 12.001 7C12.001 8.10299 11.104 8.99999 10.001 8.99999ZM10.001 6C9.44897 6 9.00097 6.448 9.00097 7C9.00097 7.552 9.44897 7.99999 10.001 7.99999C10.553 7.99999 11.001 7.552 11.001 7C11.001 6.448 10.553 6 10.001 6Z" fill="none"/>
<path d="M2.5 18H0.5C0.224 18 0 17.776 0 17.5C0 17.224 0.224 17 0.5 17H2.5C2.776 17 3 17.224 3 17.5C3 17.776 2.776 18 2.5 18Z" fill="none"/>
<path d="M19.501 18H17.501C17.225 18 17.001 17.776 17.001 17.5C17.001 17.224 17.225 17 17.501 17H19.501C19.777 17 20.001 17.224 20.001 17.5C20.001 17.776 19.777 18 19.501 18Z" fill="none"/>
<path d="M0.5 20C0.224 20 0 19.776 0 19.5V15.5C0 15.224 0.224 15 0.5 15C0.776 15 1 15.224 1 15.5V19.5C1 19.776 0.776 20 0.5 20Z" fill="none"/>
<path d="M19.499 20C19.223 20 18.999 19.776 18.999 19.5V15.5C18.999 15.224 19.223 15 19.499 15C19.775 15 19.999 15.224 19.999 15.5V19.5C19.999 19.776 19.775 20 19.499 20Z" fill="none"/>
</g>
</svg>
