<svg width="169" height="104" viewBox="0 0 169 104" fill="none" xmlns="http://www.w3.org/2000/svg">
<g>
<path d="M124.314 59.7928L125.315 52.387C125.556 50.5005 126.043 47.6707 126.664 44.3137H126.524C125.455 47.6707 124.276 50.5682 123.688 52.0532L120.713 59.309H117L116.793 52.0532C116.76 50.6021 116.62 47.6997 116.721 44.3137H116.654C116.033 47.6707 115.407 50.5005 114.959 52.387L113.197 59.7928H108.863L114.843 36.2404H120.236L120.477 46.3743C120.51 48.0867 120.583 50.8488 120.51 52.4547H120.583C121.148 50.3947 121.818 48.3652 122.59 46.3743L126.442 36.2404H131.767L128.758 59.7928H124.314Z" fill="url(#paint0_linear)"/>
<path d="M93.5961 59.2945C92.5424 59.6171 91.4419 59.7577 90.3413 59.7105C83.9809 59.7105 83.2539 53.9784 83.2539 51.7436C83.2539 45.5568 85.1798 41.3291 87.7172 38.7412C88.6579 37.7781 89.7825 37.0156 91.0235 36.4994C92.2645 35.9832 93.5964 35.724 94.9395 35.7373C95.901 35.7191 96.8556 35.9037 97.7417 36.2791L96.3261 40.7873C95.6689 40.5172 94.9599 40.3983 94.2509 40.4391C93.2495 40.4391 91.9687 41.1743 91.1021 42.3256C89.7539 44.1444 88.6946 46.9741 88.6946 50.6794C88.6946 53.3351 89.4554 55.0813 91.4921 55.0813C92.2898 55.0838 93.0834 54.9664 93.8465 54.733L93.5961 59.2945Z" fill="url(#paint1_linear)"/>
<path d="M106.701 59.2945C105.649 59.6169 104.55 59.7576 103.451 59.7105C97.0855 59.7105 96.3633 53.9784 96.3633 51.7436C96.3633 45.5568 98.2892 41.3291 100.827 38.7412C101.767 37.7783 102.892 37.0159 104.133 36.4998C105.374 35.9837 106.706 35.7243 108.049 35.7373C109.009 35.7197 109.962 35.9042 110.846 36.2791L109.431 40.7873C108.773 40.5174 108.064 40.3984 107.356 40.4391C106.354 40.4391 105.073 41.1743 104.207 42.3256C102.858 44.1444 101.799 46.9741 101.799 50.6794C101.799 53.3351 102.56 55.0813 104.601 55.0813C105.399 55.0833 106.193 54.9659 106.956 54.733L106.701 59.2945Z" fill="url(#paint2_linear)"/>
<path d="M62.4912 57.1758C61.4079 57.8482 59.8864 57.8288 57.9845 56.8179C54.5371 54.9797 49.9245 50.9745 45.2253 50.3167C40.7186 49.6878 38.7108 52.2515 38.3738 53.0787L37.252 58.8834C37.589 58.0707 39.592 55.4973 44.1034 56.1213C48.7979 56.7792 53.4105 60.7844 56.8627 62.6225C60.3149 64.4607 62.5442 63.0289 63.0834 60.1023V59.9862V60.112C63.1164 59.1003 62.9136 58.0948 62.4912 57.1758Z" fill="#E5261E"/>
<path d="M79.7051 49.4653L79.8399 49.3686C80.8946 48.4582 81.736 47.3248 82.3037 46.0495C82.8713 44.7742 83.1513 43.3886 83.1236 41.9918C83.1171 41.5411 83.0655 41.0922 82.9695 40.6519L79.888 48.9477C79.8351 49.1122 79.7725 49.2863 79.7051 49.4653Z" fill="url(#paint3_linear)"/>
<path d="M82.9728 40.6326C82.7825 39.5912 82.3225 38.6185 81.6391 37.8125C80.0502 36.1001 77.4887 35.8196 75.8998 35.8196C75.1054 35.8196 74.1954 35.8631 73.2854 35.9453C72.3754 36.0276 71.5424 36.134 70.7817 36.2694L67.3535 54.3896C67.3684 55.4924 67.7109 56.5656 68.3372 57.4715C68.9635 58.3773 69.8449 59.0745 70.8683 59.4735H71.3498L72.828 51.734L72.9098 51.318H73.8102C73.9835 51.318 74.1665 51.318 74.3446 51.318C75.5121 51.2537 76.6615 51.0005 77.7487 50.5682C78.4359 50.2929 79.0836 49.9268 79.6746 49.4798L79.8094 49.3831C80.8642 48.4727 81.7055 47.3393 82.2732 46.064C82.8409 44.7887 83.1209 43.4031 83.0932 42.0063C83.1 41.5455 83.0597 41.0851 82.9728 40.6326ZM77.3539 45.2424C77.0848 45.8095 76.6566 46.2852 76.122 46.6109C75.5873 46.9366 74.9695 47.0982 74.3446 47.0757H73.7572L73.9835 45.8664L75.0669 40.086C75.3735 40.0197 75.6877 39.9953 76.0009 40.0134C76.3175 40.008 76.6314 40.0724 76.9206 40.2021C77.6476 40.5407 78.0087 41.3146 78.0087 42.3208C78.0217 43.339 77.7974 44.3461 77.3539 45.2618V45.2424Z" fill="url(#paint4_linear)"/>
<path d="M54.8019 50.3747C52.6063 48.3624 52.6063 46.7371 52.8182 45.3247C50.7093 44.0622 48.456 42.9641 46.1882 42.6449C41.6815 42.016 39.6737 44.5797 39.3367 45.4117L38.2148 51.2164C38.5519 50.3989 40.5548 47.8303 45.0663 48.4543C49.7608 49.1122 54.3734 53.1222 57.8208 54.9555C58.7002 55.4667 59.6939 55.7462 60.7097 55.7682C58.9474 53.4995 56.333 51.7581 54.8019 50.3747Z" fill="#2C4F9E"/>
<path d="M64.5179 51.8355L65.6061 45.5858C65.9816 43.443 64.4794 39.6941 61.215 37.1933C55.6201 32.9075 55.8224 30.6969 55.8224 30.6969C55.8224 30.6969 55.1675 34.4361 54.9027 35.9646C54.6379 37.4932 54.4838 39.104 56.7998 41.5419C59.1157 43.9799 64.6961 46.9935 64.5179 51.8355Z" fill="url(#paint5_linear)"/>
<path d="M65.9334 43.7477C66.8145 38.6929 66.3042 41.6145 67.0167 37.4981C67.3923 35.3552 66.6508 32.4722 62.6256 29.1055C57.2138 24.5827 57.2282 22.6091 57.2282 22.6091L56.3327 27.8768C56.0679 29.4102 56.3327 31.3645 58.2297 33.4542C60.4734 35.9308 66.1019 38.9057 65.9334 43.7477Z" fill="url(#paint6_linear)"/>
<path d="M47.5515 35.0117C43.04 34.3829 41.037 36.9466 40.7 37.7738L39.5781 43.5784C39.9152 42.7609 41.9181 40.1924 46.4296 40.8164C48.76 41.1405 51.0615 42.2917 53.2185 43.5929L54.2392 37.7302C52.1159 36.4484 49.8433 35.3116 47.5515 35.0117Z" fill="white"/>
<path d="M42.5299 35.3116C41.3792 36.0082 40.8736 37.3771 40.7051 37.7883C41.071 36.9031 43.228 34.5715 47.5325 35.1762C49.9028 35.549 52.1703 36.4121 54.1914 37.7109C52.641 36.637 50.6717 34.8085 47.6191 34.4506C45.6643 34.2136 43.9117 34.4603 42.5299 35.3116Z" fill="#2C4F9E"/>
<path d="M41.4693 41.0147C40.3186 41.7064 39.813 43.0753 39.6445 43.4913C40.0105 42.6061 42.1675 40.2746 46.4719 40.8792C48.8425 41.2509 51.1102 42.1141 53.1308 43.4139C51.5805 42.3401 49.6112 40.5116 46.5586 40.1537C44.6086 39.9311 42.8512 40.1827 41.4693 41.0147Z" fill="#2C4F9E"/>
<path d="M63.0739 60.1072L64.162 53.8575C64.5376 51.7098 63.0305 47.9658 59.7709 45.4601C54.1809 41.1695 54.4072 38.9637 54.4072 38.9637C54.4072 38.9637 53.7572 42.7029 53.4876 44.2363C53.2179 45.7697 52.8905 47.5449 55.3702 49.8233C57.8498 52.1016 63.2568 55.2651 63.0739 60.1072Z" fill="url(#paint7_linear)"/>
<path d="M66.5801 32.4819C67.0526 33.3555 67.3349 34.3201 67.4082 35.3116L67.5864 34.3055C67.5768 32.6453 67.4319 30.9886 67.153 29.3522L66.5801 32.4819Z" fill="url(#paint8_linear)"/>
<path d="M57.3887 21.84C57.6297 22.4735 57.964 23.067 58.3805 23.6007L59.4879 17.3124C59.0955 17.0928 58.6847 16.9083 58.2602 16.7609L57.3887 21.84Z" fill="url(#paint9_linear)"/>
<path d="M59.5879 25.0471C59.9089 25.3953 60.2764 25.771 60.6905 26.1741L61.9375 19.0779C61.5753 18.745 61.1943 18.4333 60.7964 18.1444L59.5879 25.0471Z" fill="url(#paint10_linear)"/>
<path d="M61.9531 27.3302C62.2228 27.5721 62.5068 27.814 62.815 28.0703L63.0846 28.3025L64.2353 21.7674C63.9084 21.2821 63.5547 20.8154 63.1761 20.3695L61.9531 27.3302Z" fill="url(#paint11_linear)"/>
<path d="M64.3398 29.4779C64.7243 29.8692 65.0876 30.281 65.428 30.7114L66.2658 25.9371C66.0102 25.1734 65.7062 24.427 65.3558 23.7023L64.3398 29.4779Z" fill="url(#paint12_linear)"/>
<path d="M67.2863 69.8154C67.6041 69.7576 67.9262 69.7268 68.2492 69.7235C68.4624 69.7122 68.6755 69.7445 68.8759 69.8185C69.0762 69.8926 69.2594 70.0067 69.4144 70.154C69.6461 70.4367 69.7676 70.7943 69.7563 71.1602C69.7574 71.7708 69.5365 72.3608 69.1352 72.8194C68.9453 73.0183 68.7173 73.1767 68.465 73.2847C68.2126 73.3928 67.941 73.4484 67.6666 73.4482C67.528 73.4474 67.3895 73.4361 67.2526 73.4143L66.7711 75.9684H66.1211L67.2863 69.8154ZM67.3681 72.8387C67.4847 72.8672 67.6045 72.8802 67.7244 72.8774C68.6874 72.8774 69.0822 71.939 69.0822 71.2376C69.0822 70.6765 68.8607 70.2701 68.1915 70.2701C68.0752 70.2717 67.9592 70.283 67.8448 70.304L67.3681 72.8387Z" fill="#0069B4"/>
<path d="M71.2314 76.0361C70.0373 76.0361 69.9121 74.7397 69.9121 74.0722C69.9121 72.8532 70.3503 71.1699 71.0484 70.3476C71.2021 70.147 71.3977 69.9828 71.6215 69.8666C71.8454 69.7504 72.0919 69.6851 72.3436 69.6752C73.5184 69.6752 73.6292 70.899 73.6292 71.6826C73.6292 72.771 73.2103 74.5559 72.5217 75.3589C72.3722 75.5593 72.1801 75.7236 71.9594 75.8399C71.7387 75.9562 71.4949 76.0216 71.2458 76.0313L71.2314 76.0361ZM71.3325 75.4363C72.4303 75.4363 72.9262 72.5678 72.9262 71.702C72.9262 70.9667 72.8829 70.2508 72.2377 70.2508C71.1736 70.2508 70.5958 72.8677 70.5958 74.0142C70.5958 74.5366 70.6247 75.417 71.318 75.417L71.3325 75.4363Z" fill="#0069B4"/>
<path d="M76.3864 75.8813C76.1264 75.9853 75.8475 76.0331 75.5679 76.0216C74.2824 76.0216 73.9694 74.8703 73.9694 73.8642C73.9161 72.6176 74.3321 71.3966 75.1346 70.4443C75.3473 70.2141 75.604 70.0295 75.8895 69.9015C76.1749 69.7735 76.4831 69.7047 76.7957 69.6994C77.0068 69.6898 77.2174 69.7278 77.412 69.8106L77.2194 70.4008C77.0655 70.343 76.9021 70.3151 76.7379 70.3185C76.5175 70.3263 76.3012 70.3812 76.1036 70.4797C75.906 70.5781 75.7316 70.7178 75.592 70.8893C74.9906 71.6953 74.6708 72.678 74.682 73.6852C74.682 74.7107 74.9275 75.4169 75.7316 75.4169C75.9476 75.4176 76.1618 75.3766 76.3624 75.296L76.3864 75.8813Z" fill="#0069B4"/>
<path d="M79.4441 75.8813C79.1856 75.9847 78.9084 76.0325 78.6303 76.0216C77.3448 76.0216 77.0318 74.8703 77.0318 73.8642C76.979 72.6177 77.3949 71.3968 78.197 70.4443C78.41 70.2146 78.6669 70.0302 78.9522 69.9022C79.2376 69.7743 79.5457 69.7053 79.8581 69.6993C80.0692 69.6907 80.2796 69.7287 80.4744 69.8106L80.2818 70.4007C80.128 70.3429 79.9646 70.315 79.8004 70.3185C79.5799 70.3263 79.3637 70.3812 79.1661 70.4796C78.9685 70.5781 78.794 70.7177 78.6544 70.8893C78.0527 71.6951 77.7328 72.678 77.7444 73.6852C77.7444 74.7107 77.99 75.4169 78.7892 75.4169C79.0069 75.418 79.2226 75.3769 79.4248 75.296L79.4441 75.8813Z" fill="#0069B4"/>
<path d="M81.8509 69.7525L81.302 72.6548C81.1527 73.3998 80.9987 74.0722 80.8205 74.8364H80.8494C81.2153 74.0722 81.6487 73.3272 82.0146 72.6597L83.6661 69.7574H84.3064L83.1316 75.9442H82.525L83.1027 72.8919C83.2568 72.0792 83.4061 71.4407 83.5553 70.8167C83.1942 71.5907 82.8235 72.2679 82.4287 72.9838L80.729 75.9442H80.0742L81.249 69.7332L81.8509 69.7525Z" fill="#0069B4"/>
<path d="M86.0316 69.7525L85.4827 72.6549C85.3335 73.3998 85.1794 74.0722 85.0012 74.8364H85.0301C85.3961 74.0722 85.8294 73.3272 86.1953 72.6597L87.8468 69.7574H88.4872L87.2979 75.9442H86.6913L87.269 72.8919C87.4231 72.0792 87.5724 71.4407 87.7216 70.8167C87.3653 71.5907 86.9898 72.2679 86.595 72.9838L84.8905 75.9442H84.2598L85.4346 69.7332L86.0316 69.7525ZM86.5805 68.461C86.5759 68.5273 86.5849 68.5939 86.607 68.6565C86.6291 68.7192 86.6639 68.7766 86.709 68.8251C86.7542 68.8737 86.8089 68.9124 86.8696 68.9388C86.9303 68.9652 86.9958 68.9787 87.062 68.9786C87.2124 68.9843 87.3597 68.935 87.4766 68.8398C87.5935 68.7446 87.672 68.61 87.6975 68.461H88.179C88.1309 68.73 87.9851 68.9715 87.7698 69.1387C87.5545 69.3058 87.2851 69.3866 87.0138 69.3656C86.8904 69.3812 86.765 69.3689 86.6469 69.3295C86.5288 69.2901 86.421 69.2246 86.3314 69.1378C86.2418 69.0511 86.1727 68.9452 86.1291 68.8281C86.0856 68.711 86.0687 68.5855 86.0798 68.461H86.5805Z" fill="#0069B4"/>
<path d="M91.0426 75.8813C90.7825 75.9851 90.5037 76.0329 90.2241 76.0216C88.9385 76.0216 88.6256 74.8703 88.6256 73.8642C88.5727 72.6177 88.9887 71.3968 89.7908 70.4443C90.0036 70.2144 90.2604 70.0299 90.5458 69.9019C90.8312 69.7739 91.1394 69.705 91.4519 69.6994C91.663 69.6898 91.8736 69.7278 92.0681 69.8106L91.8756 70.4008C91.7217 70.3429 91.5583 70.315 91.3941 70.3185C91.1736 70.326 90.9572 70.3808 90.7596 70.4792C90.5619 70.5777 90.3875 70.7175 90.2482 70.8893C89.6458 71.6948 89.3259 72.6779 89.3382 73.6852C89.3382 74.7107 89.5837 75.417 90.383 75.417C90.6006 75.4179 90.8163 75.3768 91.0185 75.296L91.0426 75.8813Z" fill="#0069B4"/>
<path d="M93.489 69.7525L92.9546 72.592H93.1135L95.0009 69.7525H95.7327L93.6575 72.6839C94.2931 72.8677 94.4134 73.4869 94.4375 74.2947C94.4204 74.8529 94.4543 75.4115 94.5386 75.9635H93.8886C93.8313 75.4399 93.8071 74.9132 93.8164 74.3866C93.8164 73.6223 93.6864 73.0757 92.9883 73.0757H92.8872L92.3286 75.978H91.6738L92.8486 69.7671L93.489 69.7525Z" fill="#0069B4"/>
<path d="M96.96 69.7525L96.4111 72.6548C96.2667 73.3998 96.1078 74.0722 95.9296 74.8364H95.9585C96.3244 74.0722 96.7578 73.3272 97.1237 72.6597L98.7752 69.7574H99.4156L98.2215 75.9442H97.6148L98.1926 72.8919C98.3467 72.0792 98.4959 71.4407 98.6452 70.8167C98.2889 71.5907 97.9133 72.2679 97.5185 72.9838L95.8141 75.9442H95.1641L96.3389 69.7332L96.96 69.7525Z" fill="#0069B4"/>
<path d="M101.112 69.7525L100.558 72.6549C100.414 73.3998 100.255 74.0722 100.077 74.8364H100.105C100.471 74.0722 100.905 73.3272 101.271 72.6597L102.922 69.7574H103.562L102.392 75.9442H101.786L102.364 72.8919C102.518 72.0792 102.667 71.4407 102.811 70.8167C102.455 71.5907 102.079 72.2679 101.685 72.9838L99.9898 75.9442H99.3398L100.515 69.7332L101.112 69.7525ZM101.661 68.461C101.656 68.5273 101.665 68.5939 101.687 68.6565C101.709 68.7192 101.744 68.7766 101.789 68.8251C101.834 68.8737 101.889 68.9124 101.95 68.9388C102.01 68.9652 102.076 68.9787 102.142 68.9786C102.292 68.9833 102.439 68.9336 102.556 68.8386C102.672 68.7435 102.751 68.6095 102.778 68.461H103.259C103.211 68.73 103.065 68.9715 102.85 69.1387C102.635 69.3058 102.365 69.3866 102.094 69.3656C101.97 69.3812 101.845 69.3689 101.727 69.3295C101.609 69.2901 101.501 69.2246 101.411 69.1378C101.322 69.0511 101.253 68.9452 101.209 68.8281C101.166 68.711 101.149 68.5855 101.16 68.461H101.661Z" fill="#0069B4"/>
<path d="M107.481 75.8813C107.221 75.9853 106.942 76.0331 106.663 76.0216C105.382 76.0216 105.069 74.8703 105.069 73.8642C105.016 72.6177 105.432 71.3968 106.234 70.4443C106.447 70.2144 106.704 70.0299 106.989 69.9019C107.275 69.7739 107.583 69.705 107.895 69.6994C108.106 69.6898 108.317 69.7278 108.512 69.8106L108.319 70.4008C108.165 70.3427 108.002 70.3148 107.837 70.3185C107.617 70.326 107.401 70.3808 107.203 70.4792C107.005 70.5777 106.831 70.7175 106.692 70.8893C106.089 71.6946 105.769 72.6778 105.782 73.6852C105.782 74.7107 106.027 75.4169 106.826 75.4169C107.044 75.4179 107.26 75.3768 107.462 75.296L107.481 75.8813Z" fill="#0069B4"/>
<path d="M109.426 76.0361C108.232 76.0361 108.102 74.7397 108.102 74.0722C108.102 72.8532 108.545 71.1699 109.238 70.3476C109.392 70.1472 109.587 69.9832 109.811 69.867C110.035 69.7509 110.281 69.6854 110.533 69.6752C111.708 69.6752 111.819 70.899 111.819 71.6826C111.819 72.771 111.4 74.5559 110.711 75.3589C110.562 75.5595 110.37 75.724 110.149 75.8404C109.928 75.9567 109.684 76.0219 109.435 76.0313L109.426 76.0361ZM109.527 75.4363C110.629 75.4363 111.125 72.5678 111.125 71.702C111.125 70.9667 111.077 70.2508 110.437 70.2508C109.373 70.2508 108.795 72.8677 108.795 74.0142C108.795 74.5366 108.824 75.417 109.522 75.417L109.527 75.4363Z" fill="#0069B4"/>
<path d="M113.788 69.7526L113.273 72.4469H114.01C114.154 71.6942 114.454 70.9805 114.891 70.3524C115.029 70.1545 115.21 69.991 115.42 69.8744C115.63 69.7578 115.864 69.6913 116.104 69.68C117.207 69.68 117.332 70.9038 117.332 71.6875C117.332 72.7758 116.928 74.5608 116.287 75.3734C116.15 75.5685 115.97 75.7296 115.762 75.8444C115.553 75.9592 115.321 76.0248 115.084 76.0361C113.938 76.0361 113.808 74.7397 113.808 74.0722C113.813 73.7238 113.844 73.3762 113.899 73.0322H113.148L112.609 75.9442H111.949L113.148 69.7526H113.788ZM115.156 75.4605C116.191 75.4605 116.653 72.592 116.653 71.7358C116.653 70.9909 116.605 70.2847 115.999 70.2847C115.007 70.2847 114.477 72.9016 114.477 74.048C114.477 74.5704 114.501 75.4508 115.146 75.4508L115.156 75.4605Z" fill="#0069B4"/>
<path d="M118.257 72.3985H118.421C118.591 72.4037 118.761 72.3747 118.92 72.3132C119.079 72.2518 119.224 72.1591 119.347 72.0407C119.47 71.9222 119.568 71.7803 119.635 71.6234C119.703 71.4664 119.739 71.2974 119.74 71.1263C119.754 71.0216 119.745 70.9152 119.716 70.8139C119.686 70.7126 119.635 70.6187 119.567 70.5381C119.499 70.4575 119.416 70.3921 119.321 70.3459C119.226 70.2998 119.123 70.274 119.018 70.2701C118.722 70.2734 118.433 70.3661 118.19 70.5362L118.06 70.0525C118.397 69.8315 118.789 69.7107 119.192 69.7042C119.36 69.6975 119.528 69.7268 119.684 69.79C119.841 69.8532 119.982 69.949 120.099 70.071C120.216 70.193 120.306 70.3384 120.362 70.4978C120.419 70.6572 120.442 70.8269 120.429 70.9957C120.436 71.3625 120.324 71.7216 120.111 72.0191C119.897 72.3166 119.593 72.5363 119.245 72.6452V72.6839C119.53 72.7833 119.774 72.9761 119.937 73.2313C120.1 73.4866 120.173 73.7895 120.145 74.0915C120.145 74.3489 120.094 74.6037 119.995 74.841C119.896 75.0783 119.75 75.2934 119.567 75.4736C119.384 75.6538 119.167 75.7955 118.929 75.8904C118.691 75.9853 118.437 76.0316 118.18 76.0264C117.788 76.0345 117.4 75.9359 117.059 75.741L117.29 75.1847C117.552 75.3477 117.853 75.4348 118.161 75.4363C118.338 75.4367 118.513 75.4005 118.675 75.33C118.837 75.2594 118.984 75.1559 119.104 75.0261C119.225 74.8963 119.318 74.7428 119.376 74.5754C119.435 74.4079 119.459 74.23 119.447 74.0528C119.458 73.907 119.438 73.7605 119.388 73.623C119.339 73.4855 119.26 73.3601 119.159 73.2553C119.057 73.1506 118.935 73.0687 118.799 73.0152C118.664 72.9617 118.518 72.9378 118.373 72.9451H118.161L118.257 72.3985Z" fill="#0069B4"/>
<path d="M68.7644 85.8653C68.5043 85.9692 68.2255 86.017 67.9458 86.0056C66.6603 86.0056 66.3521 84.8495 66.3521 83.8482C66.2993 82.6017 66.7152 81.3808 67.5173 80.4283C67.7307 80.199 67.9876 80.015 68.2729 79.887C68.5582 79.7591 68.8661 79.6898 69.1784 79.6834C69.3974 79.6779 69.6147 79.7226 69.814 79.814L69.6214 80.4041C69.4674 80.3467 69.3041 80.3188 69.1399 80.3219C68.9195 80.3297 68.7032 80.3846 68.5056 80.483C68.308 80.5815 68.1336 80.7211 67.994 80.8927C67.3923 81.6985 67.0724 82.6813 67.084 83.6886C67.084 84.7092 67.3344 85.4203 68.1288 85.4203C68.3464 85.421 68.5621 85.38 68.7644 85.2994V85.8653Z" fill="#0069B4"/>
<path d="M72.1398 82.9824H70.6183L70.1657 85.3526H71.9086L71.7883 85.9524H69.3809L70.5557 79.7414H72.8427L72.732 80.3316H71.1094L70.7049 82.4164H72.236L72.1398 82.9824Z" fill="#0069B4"/>
<path d="M76.8449 79.7366L75.6605 85.9476H75.0009L76.0746 80.3267H74.7649L74.3508 82.4938C74.1101 83.7128 73.8694 84.7237 73.4601 85.3042C73.3481 85.501 73.1918 85.6687 73.0037 85.7939C72.8155 85.919 72.6008 85.9982 72.3768 86.0249L72.2949 85.4445C72.4482 85.4082 72.592 85.3393 72.7166 85.2426C72.8411 85.1458 72.9436 85.0233 73.0171 84.8834C73.3699 84.1586 73.6024 83.3809 73.7057 82.5809L74.2497 79.7414L76.8449 79.7366Z" fill="#0069B4"/>
<path d="M78.6026 79.7366L78.1211 82.2519C78.278 82.21 78.4403 82.1921 78.6026 82.1987C79.5126 82.1987 80.0181 82.8276 80.0181 83.7369C80.0398 84.3092 79.8396 84.8676 79.4596 85.2945C79.2323 85.5272 78.9588 85.7091 78.6568 85.8283C78.3548 85.9475 78.0311 86.0013 77.707 85.9862C77.4056 85.9931 77.1042 85.9721 76.8066 85.9234L77.9718 79.7366H78.6026ZM77.5192 85.3961C77.6314 85.4217 77.7461 85.4346 77.8611 85.4348C78.0625 85.4295 78.2607 85.3831 78.4437 85.2985C78.6267 85.214 78.7907 85.0929 78.9258 84.9427C79.0609 84.7926 79.1641 84.6164 79.2294 84.4249C79.2947 84.2335 79.3206 84.0307 79.3055 83.8289C79.3055 83.1855 79.0648 82.7502 78.3715 82.7502C78.2546 82.7554 78.1386 82.7715 78.0248 82.7985L77.5192 85.3961Z" fill="#0069B4"/>
<path d="M82.9695 85.8653C82.7095 85.9691 82.4306 86.0169 82.151 86.0055C80.8654 86.0055 80.5573 84.8495 80.5573 83.8482C80.504 82.6016 80.92 81.3805 81.7225 80.4283C81.9357 80.1988 82.1925 80.0146 82.4779 79.8866C82.7632 79.7587 83.0712 79.6895 83.3836 79.6833C83.5946 79.6747 83.805 79.7127 83.9999 79.7946L83.8073 80.3847C83.6534 80.327 83.49 80.2991 83.3258 80.3025C83.1054 80.3103 82.8891 80.3652 82.6915 80.4636C82.4939 80.5621 82.3195 80.7017 82.1799 80.8733C81.5776 81.6787 81.2576 82.6618 81.2699 83.6692C81.2699 84.6898 81.5203 85.4009 82.3147 85.4009C82.5307 85.4011 82.7447 85.3601 82.9454 85.28L82.9695 85.8653Z" fill="#0069B4"/>
<path d="M85.4148 79.7366L84.8852 82.576H85.0392L86.9315 79.7366H87.6633L85.5881 82.6679C86.2237 82.8517 86.3392 83.4709 86.3681 84.2787C86.352 84.8369 86.3859 85.3954 86.4692 85.9476H85.8096C85.7524 85.424 85.7283 84.8973 85.7374 84.3706C85.7374 83.6063 85.6074 83.0597 84.9141 83.0597H84.8129L84.2496 85.9621H83.5996L84.7744 79.7511L85.4148 79.7366Z" fill="#0069B4"/>
<path d="M88.5341 86.0249C87.34 86.0249 87.2148 84.7286 87.2148 84.061C87.2148 82.8469 87.6578 81.1587 88.3511 80.3364C88.5052 80.1363 88.701 79.9724 88.9247 79.8563C89.1484 79.7401 89.3947 79.6745 89.6463 79.664C90.8211 79.664 90.9319 80.8878 90.9319 81.6714C90.9319 82.7598 90.5082 84.5496 89.8196 85.3477C89.6701 85.5481 89.478 85.7124 89.2573 85.8287C89.0366 85.945 88.7928 86.0104 88.5437 86.0201L88.5341 86.0249ZM88.6352 85.4251C89.7378 85.4251 90.2337 82.5566 90.2337 81.6908C90.2337 80.9555 90.1856 80.2396 89.5452 80.2396C88.4811 80.2396 87.9034 82.8565 87.9034 83.9981C87.9034 84.5254 87.9274 85.4009 88.6304 85.4009L88.6352 85.4251Z" fill="#0069B4"/>
<path d="M92.8483 79.7366L92.2994 82.6389C92.155 83.3838 91.9961 84.0562 91.8179 84.8205H91.8468C92.2127 84.0562 92.6461 83.3113 93.012 82.6437L94.6635 79.7414H95.3087L94.1338 85.9524H93.5272L94.105 82.9001C94.259 82.0875 94.4083 81.449 94.5527 80.825C94.1964 81.5989 93.8209 82.2761 93.4261 82.992L91.7457 85.9524H91.0957L92.2705 79.7414L92.8483 79.7366ZM93.3972 78.445C93.3926 78.5114 93.4016 78.5779 93.4237 78.6406C93.4458 78.7032 93.4805 78.7606 93.5257 78.8092C93.5709 78.8578 93.6256 78.8965 93.6863 78.9229C93.747 78.9493 93.8125 78.9628 93.8787 78.9626C94.0288 78.9673 94.1756 78.9176 94.2923 78.8226C94.4089 78.7276 94.4877 78.5936 94.5142 78.445H94.9957C94.9476 78.7141 94.8018 78.9556 94.5865 79.1227C94.3712 79.2898 94.1018 79.3707 93.8305 79.3496C93.7071 79.3653 93.5817 79.353 93.4636 79.3135C93.3454 79.2741 93.2376 79.2086 93.148 79.1219C93.0584 79.0351 92.9893 78.9293 92.9458 78.8121C92.9023 78.695 92.8854 78.5696 92.8964 78.445H93.3972Z" fill="#0069B4"/>
<path d="M100.379 85.9524L100.86 82.4116C100.923 81.8843 101.024 81.3716 101.125 80.7427H101.111C100.889 81.3861 100.629 81.9956 100.422 82.4938L98.9102 85.9137H98.4769L98.2458 82.4212C98.2169 81.894 98.1976 81.3716 98.2073 80.7427C98.058 81.3861 97.9761 81.8843 97.851 82.4212L97.0324 85.9524H96.4258L97.9521 79.7414H98.6887L98.9006 83.3355C98.9295 83.8192 98.9487 84.2642 98.9391 84.7866H98.9776C99.1413 84.3029 99.3339 83.8192 99.5361 83.3355L101.077 79.7511H101.838L101.014 85.9621L100.379 85.9524Z" fill="#0069B4"/>
<path d="M103.476 86.0249C102.281 86.0249 102.156 84.7286 102.156 84.061C102.156 82.8469 102.594 81.1587 103.293 80.3364C103.446 80.136 103.642 79.972 103.866 79.8558C104.09 79.7397 104.336 79.6742 104.588 79.664C105.763 79.664 105.873 80.8878 105.873 81.6714C105.873 82.7598 105.454 84.5496 104.766 85.3477C104.616 85.5481 104.424 85.7124 104.204 85.8287C103.983 85.945 103.739 86.0104 103.49 86.0201L103.476 86.0249ZM103.577 85.4251C104.679 85.4251 105.175 82.5566 105.175 81.6908C105.175 80.9555 105.132 80.2396 104.487 80.2396C103.423 80.2396 102.845 82.8565 102.845 83.9981C102.845 84.5254 102.874 85.4009 103.572 85.4009L103.577 85.4251Z" fill="#0069B4"/>
<path d="M110.125 79.7366L108.941 85.9476H108.281L109.345 80.3219H108.031L107.616 82.489C107.381 83.7079 107.135 84.7189 106.726 85.2994C106.614 85.4962 106.457 85.6639 106.269 85.789C106.081 85.9142 105.866 85.9933 105.642 86.0201L105.561 85.4397C105.714 85.4034 105.858 85.3345 105.982 85.2377C106.107 85.1409 106.209 85.0185 106.283 84.8785C106.634 84.1532 106.867 83.3757 106.971 82.576L107.515 79.7366H110.125Z" fill="#0069B4"/>
<path d="M111.583 86.0249C110.389 86.0249 110.264 84.7286 110.264 84.061C110.264 82.8469 110.702 81.1587 111.4 80.3364C111.554 80.136 111.75 79.972 111.973 79.8558C112.197 79.7397 112.443 79.6742 112.695 79.664C113.87 79.664 113.976 80.8878 113.976 81.6714C113.976 82.7598 113.557 84.5496 112.868 85.3477C112.719 85.5481 112.527 85.7124 112.306 85.8287C112.085 85.945 111.842 86.0104 111.593 86.0201L111.583 86.0249ZM111.684 85.4251C112.787 85.4251 113.283 82.5566 113.283 81.6908C113.283 80.9555 113.239 80.2396 112.594 80.2396C111.53 80.2396 110.952 82.8565 110.952 83.9981C110.952 84.5254 110.981 85.4009 111.679 85.4009L111.684 85.4251Z" fill="#0069B4"/>
<path d="M118.198 79.7365L117.134 85.3477H117.548L117.134 87.2197H116.585L116.807 85.9282H114.173L113.889 87.2197H113.359L113.653 85.3477H114.019C114.345 84.7948 114.618 84.2117 114.833 83.6063C115.116 82.8018 115.331 81.975 115.478 81.1345L115.743 79.7317L118.198 79.7365ZM116.036 81.3425C115.885 82.1616 115.679 82.9696 115.42 83.7611C115.225 84.3185 114.979 84.8562 114.683 85.367H116.455L117.418 80.3509H116.224L116.036 81.3425Z" fill="#0069B4"/>
<path d="M120.954 82.9824H119.408L118.961 85.3526H120.704L120.583 85.9524H118.176L119.351 79.7414H121.638L121.527 80.3316H119.904L119.5 82.4164H121.031L120.954 82.9824Z" fill="#0069B4"/>
<path d="M122.779 79.7366L123.539 82.576H123.689L124.228 79.7366H124.854L124.315 82.576H124.478L126.313 79.7366H127.049L124.998 82.7163C125.619 82.9195 125.735 83.5531 125.749 84.2497C125.736 84.8255 125.77 85.4015 125.851 85.9717H125.186C125.125 85.455 125.101 84.9344 125.114 84.4142C125.114 83.6305 124.984 83.0888 124.324 83.0888H124.223L123.674 85.9911H123.039L123.588 83.0888H123.486C122.788 83.0888 122.523 83.6402 122.211 84.4238C121.989 84.9801 121.777 85.5461 121.565 85.9814H120.867C121.143 85.4386 121.391 84.8816 121.609 84.3126C121.922 83.4999 122.259 82.8179 123 82.7018L122.109 79.7704L122.779 79.7366Z" fill="#0069B4"/>
<path d="M128.266 79.7366L127.718 82.6389C127.573 83.3838 127.414 84.0562 127.236 84.8205H127.265C127.631 84.0562 128.064 83.3113 128.43 82.6437L130.082 79.7414H130.722L129.518 85.9524H128.912L129.489 82.9001C129.644 82.0875 129.793 81.449 129.942 80.825C129.581 81.5989 129.205 82.2761 128.811 82.992L127.111 85.9524H126.461L127.636 79.7414L128.266 79.7366Z" fill="#0069B4"/>
</g>
<defs>
<linearGradient id="paint0_linear" x1="120.284" y1="41.0341" x2="120.284" y2="60.6731" gradientUnits="userSpaceOnUse">
<stop offset="0.01" stop-color="#FCBD1B"/>
<stop offset="0.4" stop-color="#FDCE19"/>
<stop offset="0.49" stop-color="#FBC018"/>
<stop offset="0.81" stop-color="#F49617"/>
<stop offset="0.97" stop-color="#F18516"/>
</linearGradient>
<linearGradient id="paint1_linear" x1="2806.23" y1="2055.61" x2="2806.23" y2="3029.34" gradientUnits="userSpaceOnUse">
<stop offset="0.01" stop-color="#FCBD1B"/>
<stop offset="0.4" stop-color="#FDCE19"/>
<stop offset="0.49" stop-color="#FBC018"/>
<stop offset="0.81" stop-color="#F49617"/>
<stop offset="0.97" stop-color="#F18516"/>
</linearGradient>
<linearGradient id="paint2_linear" x1="3212.81" y1="2055.6" x2="3212.81" y2="3029.32" gradientUnits="userSpaceOnUse">
<stop offset="0.01" stop-color="#FCBD1B"/>
<stop offset="0.4" stop-color="#FDCE19"/>
<stop offset="0.49" stop-color="#FBC018"/>
<stop offset="0.81" stop-color="#F49617"/>
<stop offset="0.97" stop-color="#F18516"/>
</linearGradient>
<linearGradient id="paint3_linear" x1="658.094" y1="782.916" x2="658.094" y2="1140.83" gradientUnits="userSpaceOnUse">
<stop offset="0.01" stop-color="#FCBD1B"/>
<stop offset="0.4" stop-color="#FDCE19"/>
<stop offset="0.49" stop-color="#FBC018"/>
<stop offset="0.81" stop-color="#F49617"/>
<stop offset="0.97" stop-color="#F18516"/>
</linearGradient>
<linearGradient id="paint4_linear" x1="2584.74" y1="1858.12" x2="2321.37" y2="2984.86" gradientUnits="userSpaceOnUse">
<stop offset="0.01" stop-color="#FCBD1B"/>
<stop offset="0.4" stop-color="#FDCE19"/>
<stop offset="0.49" stop-color="#FBC018"/>
<stop offset="0.81" stop-color="#F49617"/>
<stop offset="0.97" stop-color="#F18516"/>
</linearGradient>
<linearGradient id="paint5_linear" x1="1418.5" y1="1828.32" x2="1418.5" y2="2686.76" gradientUnits="userSpaceOnUse">
<stop offset="0.01" stop-color="#FCBD1B"/>
<stop offset="0.4" stop-color="#FDCE19"/>
<stop offset="0.49" stop-color="#FBC018"/>
<stop offset="0.81" stop-color="#F49617"/>
<stop offset="0.97" stop-color="#F18516"/>
</linearGradient>
<linearGradient id="paint6_linear" x1="1446.81" y1="1820.24" x2="1446.81" y2="2678.46" gradientUnits="userSpaceOnUse">
<stop offset="0.01" stop-color="#FCBD1B"/>
<stop offset="0.4" stop-color="#FDCE19"/>
<stop offset="0.49" stop-color="#FBC018"/>
<stop offset="0.81" stop-color="#F49617"/>
<stop offset="0.97" stop-color="#F18516"/>
</linearGradient>
<linearGradient id="paint7_linear" x1="1385.21" y1="1837" x2="1385.21" y2="2695.43" gradientUnits="userSpaceOnUse">
<stop offset="0.01" stop-color="#FCBD1B"/>
<stop offset="0.4" stop-color="#FDCE19"/>
<stop offset="0.49" stop-color="#FBC018"/>
<stop offset="0.81" stop-color="#F49617"/>
<stop offset="0.97" stop-color="#F18516"/>
</linearGradient>
<linearGradient id="paint8_linear" x1="206.756" y1="536.143" x2="206.756" y2="778.216" gradientUnits="userSpaceOnUse">
<stop offset="0.01" stop-color="#FCBD1B"/>
<stop offset="0.4" stop-color="#FDCE19"/>
<stop offset="0.49" stop-color="#FBC018"/>
<stop offset="0.81" stop-color="#F49617"/>
<stop offset="0.97" stop-color="#F18516"/>
</linearGradient>
<linearGradient id="paint9_linear" x1="312.175" y1="598.487" x2="312.175" y2="876.184" gradientUnits="userSpaceOnUse">
<stop offset="0.01" stop-color="#FCBD1B"/>
<stop offset="0.4" stop-color="#FDCE19"/>
<stop offset="0.49" stop-color="#FBC018"/>
<stop offset="0.81" stop-color="#F49617"/>
<stop offset="0.97" stop-color="#F18516"/>
</linearGradient>
<linearGradient id="paint10_linear" x1="356.11" y1="700.996" x2="356.11" y2="1027.08" gradientUnits="userSpaceOnUse">
<stop offset="0.01" stop-color="#FCBD1B"/>
<stop offset="0.4" stop-color="#FDCE19"/>
<stop offset="0.49" stop-color="#FBC018"/>
<stop offset="0.81" stop-color="#F49617"/>
<stop offset="0.97" stop-color="#F18516"/>
</linearGradient>
<linearGradient id="paint11_linear" x1="361.015" y1="695.073" x2="361.015" y2="1017.15" gradientUnits="userSpaceOnUse">
<stop offset="0.01" stop-color="#FCBD1B"/>
<stop offset="0.4" stop-color="#FDCE19"/>
<stop offset="0.49" stop-color="#FBC018"/>
<stop offset="0.81" stop-color="#F49617"/>
<stop offset="0.97" stop-color="#F18516"/>
</linearGradient>
<linearGradient id="paint12_linear" x1="325.552" y1="619.758" x2="325.552" y2="904.398" gradientUnits="userSpaceOnUse">
<stop offset="0.01" stop-color="#FCBD1B"/>
<stop offset="0.4" stop-color="#FDCE19"/>
<stop offset="0.49" stop-color="#FBC018"/>
<stop offset="0.81" stop-color="#F49617"/>
<stop offset="0.97" stop-color="#F18516"/>
</linearGradient>
</defs>
</svg>
