<svg width="36" height="36" viewBox="0 0 36 36" fill="none" xmlns="http://www.w3.org/2000/svg">
<path d="M26.9999 15H11.9999C11.6687 15 11.3999 15.2682 11.3999 15.6C11.3999 15.9318 11.6687 16.2 11.9999 16.2H26.9999C27.3311 16.2 27.5999 15.9318 27.5999 15.6C27.5999 15.2682 27.3311 15 26.9999 15Z" fill="#C3CAD6"/>
<path d="M11.9999 11.4H17.9999C18.3311 11.4 18.5999 11.1318 18.5999 10.8C18.5999 10.4682 18.3311 10.2 17.9999 10.2H11.9999C11.6687 10.2 11.3999 10.4682 11.3999 10.8C11.3999 11.1318 11.6687 11.4 11.9999 11.4Z" fill="#C3CAD6"/>
<path d="M26.9999 19.8H11.9999C11.6687 19.8 11.3999 20.0682 11.3999 20.4C11.3999 20.7318 11.6687 21 11.9999 21H26.9999C27.3311 21 27.5999 20.7318 27.5999 20.4C27.5999 20.0682 27.3311 19.8 26.9999 19.8Z" fill="#C3CAD6"/>
<path d="M26.9999 24.6H11.9999C11.6687 24.6 11.3999 24.8682 11.3999 25.2C11.3999 25.5318 11.6687 25.8 11.9999 25.8H26.9999C27.3311 25.8 27.5999 25.5318 27.5999 25.2C27.5999 24.8682 27.3311 24.6 26.9999 24.6Z" fill="#C3CAD6"/>
<path d="M26.9999 29.4H11.9999C11.6687 29.4 11.3999 29.6682 11.3999 30C11.3999 30.3318 11.6687 30.6 11.9999 30.6H26.9999C27.3311 30.6 27.5999 30.3318 27.5999 30C27.5999 29.6682 27.3311 29.4 26.9999 29.4Z" fill="#C3CAD6"/>
<path d="M29.4001 8.7516V0H3.6001V33H6.6001V36H32.4001V11.7516L29.4001 8.7516ZM24.0001 5.0484L29.4001 10.4484L30.3517 11.4H24.0001V5.0484ZM4.8001 31.8V1.2H28.2001V7.5516L23.6485 3H6.6001V31.8H4.8001ZM7.8001 34.8V33V4.2H22.8001V12.6H31.2001V34.8H7.8001Z" fill="#C3CAD6"/>
</svg>
