<svg width="26" height="34" viewBox="0 0 26 34" fill="none" xmlns="http://www.w3.org/2000/svg">
<path d="M2.58912 33.4688H23.3313C24.4077 33.4688 25.2293 33.0609 25.6446 32.3379C26.0622 31.611 25.9857 30.6471 25.4356 29.7034L16.8857 14.8949V3.79688H17.3461C18.5316 3.79688 19.4602 2.96592 19.4602 1.89844C19.4602 0.830953 18.494 0 17.2607 0H8.6599C7.42655 0 6.46053 0.830953 6.46053 1.89844C6.46053 2.96592 7.3703 3.79688 8.53187 3.79688H9.01069V14.8951L3.48694 24.4724C3.46063 24.5067 3.43895 24.5443 3.42247 24.5842L0.473631 29.697C-0.0754398 30.6392 -0.150815 31.6058 0.266841 32.3326C0.67824 33.0486 1.52466 33.4688 2.58912 33.4688ZM9.92926 15.274C9.97238 15.1988 9.99506 15.1135 9.99507 15.0268V3.3153C9.99548 3.18366 9.94409 3.05713 9.852 2.96305C9.75991 2.86898 9.63451 2.8149 9.50288 2.8125H8.53187C7.92233 2.8125 7.4449 2.41397 7.4449 1.89844C7.4449 1.39155 7.9899 0.984375 8.6599 0.984375H17.2607C17.9307 0.984375 18.4758 1.39155 18.4758 1.89844C18.4758 2.41397 17.9795 2.8125 17.3461 2.8125H16.3935C16.2619 2.8149 16.1365 2.86898 16.0444 2.96305C15.9523 3.05713 15.9009 3.18366 15.9013 3.3153V15.0268C15.9013 15.1137 15.9241 15.199 15.9673 15.2743L17.5818 18.0703H8.31727L9.92926 15.274ZM1.32554 30.1746L2.37643 28.3359H4.15913C4.28967 28.3359 4.41486 28.2841 4.50716 28.1918C4.59946 28.0995 4.65132 27.9743 4.65132 27.8438C4.65132 27.7132 4.59946 27.588 4.50716 27.4957C4.41486 27.4034 4.28967 27.3516 4.15913 27.3516H2.94413L4.16757 25.2422H5.91694C6.04748 25.2422 6.17267 25.1903 6.26497 25.098C6.35728 25.0057 6.40913 24.8805 6.40913 24.75C6.40913 24.6195 6.35728 24.4943 6.26497 24.402C6.17267 24.3097 6.04748 24.2578 5.91694 24.2578H4.7352L5.95864 22.1484H7.74507C7.8756 22.1484 8.00079 22.0966 8.0931 22.0043C8.1854 21.912 8.23726 21.7868 8.23726 21.6562C8.23726 21.5257 8.1854 21.4005 8.0931 21.3082C8.00079 21.2159 7.8756 21.1641 7.74507 21.1641H6.5262L7.74964 19.0547H18.15L24.5843 30.1941C24.9531 30.8269 25.0286 31.4352 24.7913 31.8482C24.5588 32.2527 24.0404 32.4844 23.3315 32.4844H2.58926C1.87658 32.4844 1.35493 32.2421 1.12051 31.8342C0.88306 31.4212 0.95731 30.8058 1.32554 30.1746Z" fill="#C3CAD6"/>
</svg>
