<svg width="33" height="33" viewBox="0 0 33 33" fill="none" xmlns="http://www.w3.org/2000/svg">
<path d="M32.2136 31.9452L22.9558 22.3173C25.3171 19.9492 26.78 16.6844 26.78 13.0839C26.78 5.86905 20.911 0 13.6962 0C6.48135 0 0.612305 5.86905 0.612305 13.0839C0.612305 20.2987 6.48135 26.1677 13.6962 26.1677C16.8631 26.1677 19.7696 25.0357 22.035 23.1572L31.3152 32.8087C31.4373 32.9365 31.6005 33 31.7644 33C31.9201 33 32.0753 32.9421 32.1961 32.8262C32.4441 32.5875 32.4516 32.1932 32.2136 31.9452ZM13.6962 24.9216C7.16857 24.9216 1.85839 19.6115 1.85839 13.0839C1.85839 6.55626 7.16857 1.24608 13.6962 1.24608C20.2238 1.24608 25.534 6.55626 25.534 13.0839C25.534 19.6115 20.2232 24.9216 13.6962 24.9216Z" fill="#C9CFDA"/>
</svg>
