<svg width="110" height="110" viewBox="0 0 110 110" fill="none" xmlns="http://www.w3.org/2000/svg">
<path d="M98.3956 6.77424C97.8181 5.27098 95.5998 4.94098 94.5823 6.0225C89.9761 10.0787 84.0681 12.3062 77.9218 12.3062C69.4518 12.3062 61.5961 8.08951 56.9164 1.02674C56.4903 0.385 55.7753 0 55.0053 0C54.2398 0 53.5203 0.385 53.0986 1.02201C48.4053 8.085 40.5493 12.3015 32.0793 12.3015C25.8643 12.3015 19.8968 10.0235 15.2768 5.88479C14.6031 5.27979 13.6406 5.13305 12.8111 5.49979C11.9861 5.86652 11.4543 6.6868 11.4543 7.58979V57.2868C11.4543 85.9051 52.1543 108.753 53.8868 109.711C54.2306 109.904 54.6156 110 54.9961 110C55.3766 110 55.7616 109.904 56.1053 109.72C57.8378 108.762 98.5378 85.9098 98.5378 57.296V7.79603C98.5653 7.4525 98.5193 7.10424 98.3956 6.77424ZM93.9543 57.2917C93.9543 80.7447 61.4631 101.218 54.9961 105.059C48.5243 101.218 16.0378 80.7675 16.0378 57.2917V12.2055C20.7998 15.2487 26.3503 16.8897 32.0796 16.8897C41.0125 16.8897 49.3678 12.916 54.9963 6.12799C60.6338 12.9205 68.9893 16.8897 77.9221 16.8897C83.6466 16.8897 89.1971 15.249 93.9546 12.2102V57.2917H93.9543Z" fill="#2BC584"/>
<path d="M70.3778 41.9237C69.4841 41.03 68.0311 41.03 67.1374 41.9237L50.4128 58.6345L42.8778 51.0903C41.9841 50.1965 40.5311 50.1965 39.6374 51.0903C38.7436 51.9795 38.7436 53.437 39.6374 54.3307L48.7856 63.4975C49.2164 63.9237 49.7986 64.1667 50.4081 64.1667C51.0176 64.1667 51.5999 63.9237 52.0261 63.4975L70.3778 45.1642C71.2716 44.2705 71.2716 42.8175 70.3778 41.9237Z" fill="#2BC584"/>
</svg>
