<svg width="36" height="36" viewBox="0 0 36 36" fill="none" xmlns="http://www.w3.org/2000/svg">
<path d="M33.4698 4.80005H2.5302C1.1352 4.80005 0 5.93525 0 7.33025V28.6698C0 30.0648 1.1352 31.2001 2.5302 31.2001H33.4698C34.8648 31.2001 36 30.0648 36 28.6698V7.33025C36 5.93525 34.8648 4.80005 33.4698 4.80005ZM34.8 28.6698C34.8 29.4037 34.2036 30 33.4698 30H2.5302C1.7964 30 1.2 29.4037 1.2 28.6698V7.33025C1.2 6.59645 1.7964 6.00005 2.5302 6.00005H33.4698C34.2036 6.00005 34.8 6.59645 34.8 7.33025V28.6698Z" fill="#C3CAD6"/>
<path d="M13.5828 21.7476L11.4 20.6328V20.4006C12.3768 19.8672 13.0638 18.9888 13.4472 17.7822C14.0286 17.4738 14.4 16.8732 14.4 16.2V15.6C14.4 15.0444 14.1414 14.529 13.7094 14.1906C13.335 11.9226 11.7522 10.773 9 10.773C8.8698 10.773 8.7426 10.7778 8.6184 10.7874C8.1 10.83 7.341 10.785 6.684 10.3434C6.4386 10.1778 6.2532 10.017 6.135 9.8676C5.9334 9.6102 5.5944 9.52021 5.2938 9.64381C4.9926 9.76741 4.8156 10.0686 4.8534 10.392C4.8786 10.6164 4.9164 10.8774 4.9734 11.1636C5.0892 11.7486 5.0892 11.7486 4.9266 12.0984C4.8654 12.231 4.7898 12.3924 4.701 12.6102C4.5024 13.0968 4.3614 13.6296 4.2804 14.1984C3.8544 14.5374 3.6 15.0498 3.6 15.6V16.2C3.6 16.8732 3.9714 17.4738 4.5528 17.7822C4.9362 18.9894 5.6232 19.8678 6.6 20.4006V20.6262L4.3386 21.741C3.513 22.191 3 23.055 3 23.9958V24.7908C3 25.2726 3 26.4 9 26.4C15 26.4 15 25.2726 15 24.7908V24.0438C15 23.0652 14.457 22.1862 13.5828 21.7476ZM13.8 24.6552C13.4256 24.8832 11.9028 25.2 9 25.2C6.0972 25.2 4.5744 24.8832 4.2 24.6552V23.9958C4.2 23.4948 4.473 23.034 4.8912 22.8066L7.2054 21.666C7.5666 21.4896 7.7994 21.1158 7.7994 20.7132V19.6314L7.437 19.4754C6.5268 19.083 5.9352 18.3348 5.628 17.187L5.5422 16.8672L5.2266 16.7688C4.9758 16.6902 4.8 16.4568 4.8 16.2V15.6C4.8 15.3828 4.9242 15.1812 5.1246 15.0744L5.406 14.9244L5.439 14.607C5.4984 14.0442 5.6238 13.5252 5.8122 13.065C5.892 12.87 5.9598 12.7242 6.015 12.6048C6.2184 12.168 6.2922 11.9424 6.2412 11.4798C6.9468 11.883 7.7946 12.0546 8.7144 11.9844C8.8074 11.9766 8.9028 11.973 9.0006 11.973C11.247 11.973 12.3438 12.7866 12.558 14.6118L12.5952 14.925L12.8742 15.0726C13.0746 15.1794 13.2 15.3816 13.2 15.6V16.2C13.2 16.4568 13.0242 16.6902 12.7728 16.7682L12.4572 16.8666L12.3714 17.1864C12.0642 18.3342 11.4726 19.0824 10.5624 19.4748L10.2 19.6314V20.718C10.2 21.1194 10.422 21.4812 10.7784 21.663L13.0434 22.8204C13.5102 23.0532 13.8 23.5224 13.8 24.0438V24.6552Z" fill="#C3CAD6"/>
<path d="M17.9999 13.8001H23.9999C24.3317 13.8001 24.5999 13.5319 24.5999 13.2001C24.5999 12.8683 24.3317 12.6001 23.9999 12.6001H17.9999C17.6681 12.6001 17.3999 12.8683 17.3999 13.2001C17.3999 13.5319 17.6681 13.8001 17.9999 13.8001Z" fill="#C3CAD6"/>
<path d="M26.3998 13.8001H26.9998C27.3316 13.8001 27.5998 13.5319 27.5998 13.2001C27.5998 12.8683 27.3316 12.6001 26.9998 12.6001H26.3998C26.068 12.6001 25.7998 12.8683 25.7998 13.2001C25.7998 13.5319 26.068 13.8001 26.3998 13.8001Z" fill="#C3CAD6"/>
<path d="M18.5999 22.8H17.9999C17.6681 22.8 17.3999 23.0682 17.3999 23.4C17.3999 23.7318 17.6681 24 17.9999 24H18.5999C18.9317 24 19.1999 23.7318 19.1999 23.4C19.1999 23.0682 18.9317 22.8 18.5999 22.8Z" fill="#C3CAD6"/>
<path d="M22.1999 22.8H20.9999C20.6681 22.8 20.3999 23.0682 20.3999 23.4C20.3999 23.7318 20.6681 24 20.9999 24H22.1999C22.5317 24 22.7999 23.7318 22.7999 23.4C22.7999 23.0682 22.5317 22.8 22.1999 22.8Z" fill="#C3CAD6"/>
<path d="M25.2 22.8H24.6C24.2682 22.8 24 23.0682 24 23.4C24 23.7318 24.2682 24 24.6 24H25.2C25.5318 24 25.8 23.7318 25.8 23.4C25.8 23.0682 25.5318 22.8 25.2 22.8Z" fill="#C3CAD6"/>
<path d="M28.8 22.8H27.6C27.2682 22.8 27 23.0682 27 23.4C27 23.7318 27.2682 24 27.6 24H28.8C29.1318 24 29.4 23.7318 29.4 23.4C29.4 23.0682 29.1318 22.8 28.8 22.8Z" fill="#C3CAD6"/>
<path d="M30.7741 22.974C30.6655 23.0874 30.6001 23.244 30.6001 23.4C30.6001 23.556 30.6655 23.712 30.7741 23.826C30.8875 23.934 31.0441 24 31.2001 24C31.3561 24 31.5121 23.934 31.6261 23.826C31.7341 23.712 31.8001 23.556 31.8001 23.4C31.8001 23.244 31.7341 23.0874 31.6261 22.974C31.3981 22.752 30.9961 22.752 30.7741 22.974Z" fill="#C3CAD6"/>
<path d="M31.1999 16.2001H17.9999C17.6681 16.2001 17.3999 16.4683 17.3999 16.8001C17.3999 17.1319 17.6681 17.4001 17.9999 17.4001H31.1999C31.5317 17.4001 31.7999 17.1319 31.7999 16.8001C31.7999 16.4683 31.5317 16.2001 31.1999 16.2001Z" fill="#C3CAD6"/>
<path d="M31.1999 19.8H17.9999C17.6681 19.8 17.3999 20.0682 17.3999 20.4C17.3999 20.7318 17.6681 21 17.9999 21H31.1999C31.5317 21 31.7999 20.7318 31.7999 20.4C31.7999 20.0682 31.5317 19.8 31.1999 19.8Z" fill="#C3CAD6"/>
</svg>
