<svg width="29" height="36" viewBox="0 0 29 36" fill="none" xmlns="http://www.w3.org/2000/svg">
<path d="M19.4484 0H0V36H28.2V8.7516L19.4484 0ZM19.8 2.0484L26.1516 8.4H19.8V2.0484ZM1.2 34.8V1.2H18.6V9.6H27V34.8H1.2Z" fill="#C3CAD6"/>
<path d="M21.5999 12.6H11.9999C11.6687 12.6 11.3999 12.8682 11.3999 13.2C11.3999 13.5318 11.6687 13.8 11.9999 13.8H21.5999C21.9311 13.8 22.1999 13.5318 22.1999 13.2C22.1999 12.8682 21.9311 12.6 21.5999 12.6Z" fill="#C3CAD6"/>
<path d="M9.82505 10.9315L7.24445 12.9961L6.42425 12.1759C6.18965 11.9413 5.81045 11.9413 5.57585 12.1759C5.34125 12.4105 5.34125 12.7897 5.57585 13.0243L6.77585 14.2243C6.89225 14.3407 7.04585 14.4001 7.20005 14.4001C7.33205 14.4001 7.46465 14.3569 7.57445 14.2687L10.5745 11.8687C10.8337 11.6611 10.8751 11.2837 10.6681 11.0251C10.4617 10.7659 10.0837 10.7245 9.82505 10.9315Z" fill="#C3CAD6"/>
<path d="M21.5999 19.2H11.9999C11.6687 19.2 11.3999 19.4682 11.3999 19.8C11.3999 20.1318 11.6687 20.4 11.9999 20.4H21.5999C21.9311 20.4 22.1999 20.1318 22.1999 19.8C22.1999 19.4682 21.9311 19.2 21.5999 19.2Z" fill="#C3CAD6"/>
<path d="M9.82505 17.5313L7.24445 19.5959L6.42425 18.7757C6.18965 18.5411 5.81045 18.5411 5.57585 18.7757C5.34125 19.0103 5.34125 19.3895 5.57585 19.6241L6.77585 20.8241C6.89225 20.9405 7.04585 20.9999 7.20005 20.9999C7.33205 20.9999 7.46465 20.9567 7.57445 20.8685L10.5745 18.4685C10.8337 18.2609 10.8751 17.8835 10.6681 17.6249C10.4617 17.3657 10.0837 17.3243 9.82505 17.5313Z" fill="#C3CAD6"/>
<path d="M21.5999 25.8H11.9999C11.6687 25.8 11.3999 26.0682 11.3999 26.4C11.3999 26.7318 11.6687 27 11.9999 27H21.5999C21.9311 27 22.1999 26.7318 22.1999 26.4C22.1999 26.0682 21.9311 25.8 21.5999 25.8Z" fill="#C3CAD6"/>
<path d="M9.82505 24.1314L7.24445 26.196L6.42425 25.3758C6.18965 25.1412 5.81045 25.1412 5.57585 25.3758C5.34125 25.6104 5.34125 25.9896 5.57585 26.2242L6.77585 27.4242C6.89225 27.5406 7.04585 27.6 7.20005 27.6C7.33205 27.6 7.46465 27.5568 7.57445 27.4686L10.5745 25.0686C10.8337 24.861 10.8751 24.4836 10.6681 24.225C10.4617 23.9658 10.0837 23.9244 9.82505 24.1314Z" fill="#C3CAD6"/>
</svg>
