<svg width="36" height="36" viewBox="0 0 36 36" fill="none" xmlns="http://www.w3.org/2000/svg">
<path d="M34.875 32.0625H34.3125V22.7812C34.3119 22.2593 34.1043 21.7589 33.7352 21.3898C33.3661 21.0207 32.8657 20.8131 32.3438 20.8125H31.7812C31.308 20.8132 30.8509 20.984 30.4932 21.2938C30.1355 21.6036 29.9011 22.0317 29.8329 22.5H28.6875V21.375C28.6875 21.2258 28.6282 21.0827 28.5227 20.9773C28.4173 20.8718 28.2742 20.8125 28.125 20.8125H16.3125C16.1633 20.8125 16.0202 20.8718 15.9148 20.9773C15.8093 21.0827 15.75 21.2258 15.75 21.375V22.5H14.625V21.0938C14.6244 20.5718 14.4168 20.0714 14.0477 19.7023C13.6786 19.3332 13.1782 19.1256 12.6562 19.125H8.71875C8.19678 19.1256 7.69636 19.3332 7.32727 19.7023C6.95818 20.0714 6.75058 20.5718 6.75 21.0938V22.5H6.1875V17.1562C6.18692 16.6343 5.97932 16.1339 5.61023 15.7648C5.24114 15.3957 4.74072 15.1881 4.21875 15.1875H3.65625C3.13428 15.1881 2.63386 15.3957 2.26477 15.7648C1.89568 16.1339 1.68808 16.6343 1.6875 17.1562V32.0625H1.125C0.975816 32.0625 0.832742 32.1218 0.727252 32.2273C0.621763 32.3327 0.5625 32.4758 0.5625 32.625C0.5625 32.7742 0.621763 32.9173 0.727252 33.0227C0.832742 33.1282 0.975816 33.1875 1.125 33.1875H34.875C35.0242 33.1875 35.1673 33.1282 35.2727 33.0227C35.3782 32.9173 35.4375 32.7742 35.4375 32.625C35.4375 32.4758 35.3782 32.3327 35.2727 32.2273C35.1673 32.1218 35.0242 32.0625 34.875 32.0625ZM5.0625 32.0625H2.8125V17.1562C2.81269 16.9325 2.90164 16.718 3.05983 16.5598C3.21803 16.4016 3.43253 16.3127 3.65625 16.3125H4.21875C4.44247 16.3127 4.65697 16.4016 4.81517 16.5598C4.97336 16.718 5.06231 16.9325 5.0625 17.1562V32.0625ZM16.875 21.9375H27.5625V29.5312C27.5623 29.755 27.4734 29.9695 27.3152 30.1277C27.157 30.2859 26.9425 30.3748 26.7188 30.375H17.7188C17.495 30.3748 17.2805 30.2859 17.1223 30.1277C16.9641 29.9695 16.8752 29.755 16.875 29.5312V21.9375ZM7.875 21.0938C7.87519 20.87 7.96414 20.6555 8.12233 20.4973C8.28053 20.3391 8.49503 20.2502 8.71875 20.25H12.6562C12.88 20.2502 13.0945 20.3391 13.2527 20.4973C13.4109 20.6555 13.4998 20.87 13.5 21.0938V22.5H7.875V21.0938ZM6.1875 23.625H15.75V29.25H6.1875V23.625ZM29.8125 32.0625H6.1875V30.375H15.9405C16.1004 30.7114 16.3522 30.9956 16.6669 31.1947C16.9816 31.3938 17.3463 31.4997 17.7188 31.5H26.7188C27.0912 31.4997 27.4559 31.3938 27.7706 31.1947C28.0853 30.9956 28.3372 30.7114 28.497 30.375H29.8125V32.0625ZM29.8125 29.25H28.6875V23.625H29.8125V29.25ZM33.1875 32.0625H30.9375V22.7812C30.9377 22.5575 31.0266 22.343 31.1848 22.1848C31.343 22.0266 31.5575 21.9377 31.7812 21.9375H32.3438C32.5675 21.9377 32.782 22.0266 32.9402 22.1848C33.0984 22.343 33.1873 22.5575 33.1875 22.7812V32.0625Z" fill="#C3CAD6"/>
<path d="M13.5 13.5C13.5 13.6492 13.5593 13.7923 13.6648 13.8977C13.7702 14.0032 13.9133 14.0625 14.0625 14.0625H15.1421L13.6234 15.9609C13.5572 16.0437 13.5156 16.1434 13.5036 16.2487C13.4916 16.354 13.5096 16.4605 13.5555 16.5561C13.6014 16.6516 13.6733 16.7322 13.763 16.7886C13.8527 16.8451 13.9565 16.875 14.0625 16.875H16.3125C16.4617 16.875 16.6048 16.8157 16.7102 16.7102C16.8157 16.6048 16.875 16.4617 16.875 16.3125C16.875 16.1633 16.8157 16.0202 16.7102 15.9148C16.6048 15.8093 16.4617 15.75 16.3125 15.75H15.2329L16.7516 13.8516C16.8178 13.7688 16.8594 13.6691 16.8714 13.5638C16.8834 13.4585 16.8654 13.352 16.8195 13.2564C16.7736 13.1609 16.7017 13.0803 16.612 13.0239C16.5223 12.9674 16.4185 12.9375 16.3125 12.9375H14.0625C13.9133 12.9375 13.7702 12.9968 13.6648 13.1023C13.5593 13.2077 13.5 13.3508 13.5 13.5Z" fill="#C3CAD6"/>
<path d="M19.125 8.4375H20.2047L18.6859 10.3359C18.6197 10.4187 18.5781 10.5184 18.5661 10.6237C18.5541 10.729 18.5721 10.8355 18.618 10.9311C18.6639 11.0266 18.7358 11.1072 18.8255 11.1636C18.9152 11.2201 19.019 11.25 19.125 11.25H21.375C21.5242 11.25 21.6673 11.1907 21.7728 11.0852C21.8783 10.9798 21.9375 10.8367 21.9375 10.6875C21.9375 10.5383 21.8783 10.3952 21.7728 10.2898C21.6673 10.1843 21.5242 10.125 21.375 10.125H20.2954L21.8141 8.22656C21.8804 8.14384 21.9219 8.04408 21.9339 7.93879C21.9459 7.8335 21.9279 7.72695 21.882 7.63143C21.8362 7.53591 21.7642 7.45529 21.6745 7.39886C21.5848 7.34244 21.481 7.3125 21.375 7.3125H19.125C18.9758 7.3125 18.8327 7.37176 18.7273 7.47725C18.6218 7.58274 18.5625 7.72582 18.5625 7.875C18.5625 8.02418 18.6218 8.16726 18.7273 8.27275C18.8327 8.37824 18.9758 8.4375 19.125 8.4375Z" fill="#C3CAD6"/>
<path d="M12.375 5.0625H13.4546L11.9359 6.96094C11.8697 7.04366 11.8281 7.14342 11.8161 7.24871C11.8041 7.354 11.8221 7.46055 11.868 7.55607C11.9139 7.65159 11.9858 7.73221 12.0755 7.78864C12.1652 7.84506 12.269 7.875 12.375 7.875H14.625C14.7742 7.875 14.9173 7.81574 15.0227 7.71025C15.1282 7.60476 15.1875 7.46168 15.1875 7.3125C15.1875 7.16332 15.1282 7.02024 15.0227 6.91475C14.9173 6.80926 14.7742 6.75 14.625 6.75H13.5454L15.0641 4.85156C15.1303 4.76884 15.1719 4.66908 15.1839 4.56379C15.1959 4.4585 15.1779 4.35195 15.132 4.25643C15.0861 4.16091 15.0142 4.08029 14.9245 4.02386C14.8348 3.96744 14.731 3.9375 14.625 3.9375H12.375C12.2258 3.9375 12.0827 3.99676 11.9773 4.10225C11.8718 4.20774 11.8125 4.35082 11.8125 4.5C11.8125 4.64918 11.8718 4.79226 11.9773 4.89775C12.0827 5.00324 12.2258 5.0625 12.375 5.0625Z" fill="#C3CAD6"/>
</svg>
