<svg width="36" height="37" viewBox="0 0 36 37" fill="none" xmlns="http://www.w3.org/2000/svg">
<path id="Subtract" fill-rule="evenodd" clip-rule="evenodd" d="M36 18.9646C36 28.9088 27.9411 36.9702 18 36.9702C8.05888 36.9702 0 28.9088 0 18.9646C0 9.02037 8.05888 0.958984 18 0.958984C27.9411 0.958984 36 9.02037 36 18.9646ZM12.0536 17.3152C10.2505 18.1028 8.39781 18.9119 6.70369 19.8454L6.70357 19.8455C5.81896 20.4934 6.99479 20.9516 8.09779 21.3815C8.27315 21.4498 8.44667 21.5174 8.60977 21.585C8.74549 21.6267 8.88352 21.6707 9.02339 21.7153C10.2501 22.1062 11.6181 22.5422 12.809 21.8864C14.7654 20.7622 16.6118 19.4625 18.4567 18.1637C19.0611 17.7382 19.6654 17.3128 20.2733 16.8937C20.3018 16.8755 20.3339 16.8547 20.3691 16.8319C20.887 16.4961 22.0518 15.7408 21.621 16.7815C20.6021 17.896 19.5108 18.8827 18.4136 19.8746C17.6741 20.5432 16.932 21.2142 16.2075 21.9284C15.5764 22.4412 14.9212 23.4726 15.6278 24.1908C17.2552 25.3304 18.908 26.4424 20.5599 27.5538C21.0974 27.9155 21.6349 28.2771 22.1714 28.6395C23.0805 29.3656 24.5014 28.7783 24.7013 27.6437C24.7902 27.1217 24.8794 26.5997 24.9687 26.0777C25.4619 23.1934 25.9552 20.308 26.391 17.4142C26.4503 16.9603 26.5174 16.5064 26.5846 16.0523C26.7474 14.9516 26.9104 13.8496 26.9613 12.743C26.8301 11.6387 25.4916 11.8815 24.7466 12.1298C20.9177 13.5872 17.127 15.1527 13.3514 16.7457C12.9237 16.9352 12.4901 17.1246 12.0536 17.3152Z" fill="#4E95EE"/>
</svg>
