<svg width="48" height="48" viewBox="0 0 48 48" fill="none" xmlns="http://www.w3.org/2000/svg">
<path d="M24 48C37.2548 48 48 37.2548 48 24C48 10.7452 37.2548 0 24 0C10.7452 0 0 10.7452 0 24C0 37.2548 10.7452 48 24 48Z" fill="url(#paint0_linear)"/>
<path d="M24 48C37.2548 48 48 37.2548 48 24C48 10.7452 37.2548 0 24 0C10.7452 0 0 10.7452 0 24C0 37.2548 10.7452 48 24 48Z" fill="#3464E0"/>
<path d="M10.9825 23.4799L34.1225 14.5579C35.1965 14.1699 36.1345 14.8199 35.7865 16.4439L35.7885 16.4419L31.8485 35.0039C31.5565 36.3199 30.7745 36.6399 29.6805 36.0199L23.6805 31.5979L20.7865 34.3859C20.4665 34.7059 20.1965 34.9759 19.5765 34.9759L20.0025 28.8699L31.1225 18.8239C31.6065 18.3979 31.0145 18.1579 30.3765 18.5819L16.6345 27.2339L10.7105 25.3859C9.42452 24.9779 9.39653 24.0999 10.9825 23.4799Z" fill="white"/>
<defs>
<linearGradient id="paint0_linear" x1="-2" y1="5.2" x2="9.3542" y2="49.8448" gradientUnits="userSpaceOnUse">
<stop stop-color="#3464E0"/>
<stop offset="1" stop-color="#2955C9"/>
</linearGradient>
</defs>
</svg>
