<svg width="48" height="48" viewBox="0 0 48 48" fill="none" xmlns="http://www.w3.org/2000/svg">
    <path d="M24 48C37.2548 48 48 37.2548 48 24C48 10.7452 37.2548 0 24 0C10.7452 0 0 10.7452 0 24C0 37.2548 10.7452 48 24 48Z" fill="#3464E0"/>
    <path d="M10.9825 23.48L34.1225 14.558C35.1965 14.17 36.1345 14.82 35.7865 16.444L35.7885 16.442L31.8485 35.004C31.5565 36.32 30.7745 36.64 29.6805 36.02L23.6805 31.598L20.7865 34.386C20.4665 34.7061 20.1965 34.976 19.5765 34.976L20.0025 28.87L31.1225 18.824C31.6065 18.398 31.0145 18.158 30.3765 18.582L16.6345 27.234L10.7105 25.386C9.42452 24.978 9.39653 24.1 10.9825 23.48Z" fill="white"/>
</svg>
