<svg width="26" height="26" viewBox="0 0 26 26" fill="none" xmlns="http://www.w3.org/2000/svg">
<path d="M13.7083 16.4618C14.1594 16.4267 14.5706 16.1966 14.8376 15.8296L18.8949 10.2205C19.0192 10.0485 19.0006 9.81103 18.8498 9.66023C18.699 9.50986 18.4615 9.49123 18.2895 9.61516L12.6796 13.6738C12.3138 13.9398 12.0837 14.3511 12.0486 14.8022C12.0135 15.2533 12.1769 15.6948 12.4963 16.0142C12.787 16.3054 13.1792 16.4666 13.587 16.4666C13.6273 16.4666 13.6676 16.4649 13.7083 16.4618ZM12.9127 14.8698C12.9279 14.6717 13.0293 14.491 13.1887 14.3749L16.6108 11.8993L14.136 15.3204C14.019 15.4812 13.8383 15.5822 13.6403 15.5978C13.4431 15.6108 13.2494 15.5423 13.1086 15.4015C12.969 15.2615 12.8971 15.0674 12.9127 14.8698Z" fill="#C3CAD6"/>
<path d="M23.4148 8.47773C23.4105 8.46863 23.4105 8.4591 23.4057 8.45C23.4005 8.44133 23.3923 8.43657 23.3866 8.42833C22.9485 7.67693 22.4303 6.97797 21.8418 6.34443L22.7726 5.41407L23.3853 6.0268L25.2235 4.18817L23.3853 2.34997L21.5467 4.18817L22.1599 4.80133L21.2291 5.7317C20.5955 5.14323 19.897 4.62453 19.1452 4.18643C19.1369 4.1808 19.1322 4.17257 19.1235 4.16737C19.1144 4.16217 19.1049 4.1626 19.0958 4.15783C17.7555 3.38563 16.2496 2.87127 14.6441 2.68277V2.16667H15.2941C15.8917 2.16667 16.3775 1.6809 16.3775 1.08333C16.3775 0.485767 15.8913 0 15.2937 0H11.3937C10.7961 0 10.3104 0.485767 10.3104 1.08333C10.3104 1.6809 10.7961 2.16667 11.3937 2.16667H12.0437V2.6676C11.5757 2.71743 11.1086 2.7937 10.6466 2.89943C10.4135 2.95273 10.2675 3.18543 10.3212 3.41857C10.3745 3.6517 10.6072 3.79817 10.8403 3.744C11.239 3.65257 11.6416 3.58367 12.045 3.5373L12.51 3.50133C12.6521 3.4905 12.783 3.4827 12.9104 3.47663V4.33333C12.9104 4.57297 13.1041 4.76667 13.3437 4.76667C13.5833 4.76667 13.777 4.57297 13.777 4.33333V3.47967C15.4068 3.55463 16.9425 3.9923 18.308 4.7125L17.8807 5.4522C17.7611 5.65977 17.8322 5.92453 18.0393 6.04413C18.1073 6.08357 18.1819 6.1022 18.2555 6.1022C18.4055 6.1022 18.5511 6.02463 18.6312 5.88553L19.0572 5.14757C20.4131 6.00773 21.5649 7.15953 22.4251 8.51543L21.6871 8.9414C21.4804 9.061 21.4093 9.32577 21.5294 9.53333C21.61 9.67243 21.7551 9.75 21.9051 9.75C21.9787 9.75 22.0533 9.73137 22.1213 9.69193L22.861 9.26467C23.5912 10.6496 24.0301 12.2105 24.0956 13.8662H23.2397C23.0001 13.8662 22.8064 14.0599 22.8064 14.2996C22.8064 14.5392 23.0001 14.7329 23.2397 14.7329H24.0956C24.0301 16.3887 23.5912 17.9495 22.861 19.3345L22.1213 18.9072C21.9142 18.7876 21.649 18.8578 21.5294 19.0658C21.4098 19.2734 21.4808 19.5381 21.688 19.6577L22.4259 20.0837C21.5658 21.4396 20.414 22.5914 19.0581 23.4516L18.6321 22.7136C18.5121 22.5056 18.2464 22.435 18.0402 22.555C17.8326 22.6746 17.7615 22.9398 17.8816 23.1469L18.3088 23.8866C16.9434 24.6068 15.4077 25.0445 13.7779 25.1195V24.2667C13.7779 24.027 13.5842 23.8333 13.3446 23.8333C13.1049 23.8333 12.9112 24.027 12.9112 24.2667V25.1229C12.2192 25.0991 11.525 25.0124 10.8416 24.8556C10.6085 24.7997 10.3758 24.9479 10.3225 25.181C10.2688 25.4141 10.4148 25.6468 10.6479 25.7001C11.5129 25.8995 12.3964 26 13.2731 26C13.2943 26 13.3147 25.9987 13.3359 25.9983C13.3389 25.9983 13.3411 26 13.3437 26C13.3472 26 13.3502 25.9978 13.3537 25.9978C15.4367 25.9835 17.391 25.4211 19.0819 24.4495C19.0953 24.4435 19.1096 24.4404 19.1226 24.4326C19.1313 24.4274 19.1361 24.4192 19.1443 24.4136C20.8945 23.3935 22.357 21.9327 23.3793 20.1838C23.3875 20.1721 23.3979 20.163 23.4053 20.15C23.4105 20.1409 23.41 20.1314 23.4144 20.1223C24.4041 18.4063 24.9731 16.419 24.9731 14.3C24.9731 12.181 24.4041 10.1937 23.4148 8.47773ZM23.3849 3.57543L23.9976 4.18817L23.3849 4.80133L22.7717 4.18817L23.3849 3.57543ZM12.9104 2.6091V1.3H11.3937C11.2745 1.3 11.177 1.2025 11.177 1.08333C11.177 0.964167 11.2745 0.866667 11.3937 0.866667H15.2937C15.4129 0.866667 15.5104 0.964167 15.5104 1.08333C15.5104 1.2025 15.4129 1.3 15.2937 1.3H13.777V2.6091C13.6262 2.60303 13.4824 2.6 13.3437 2.6C13.3316 2.6 13.3177 2.60087 13.3056 2.60087C13.2947 2.60087 13.2839 2.6 13.2731 2.6C13.202 2.6 13.1309 2.60477 13.0599 2.60607C13.0096 2.60737 12.9624 2.60693 12.9104 2.6091Z" fill="#C3CAD6"/>
<path d="M9.44375 6.06665H7.27708C7.03745 6.06665 6.84375 6.26035 6.84375 6.49998C6.84375 6.73962 7.03745 6.93332 7.27708 6.93332H9.44375C9.68338 6.93332 9.87708 6.73962 9.87708 6.49998C9.87708 6.26035 9.68338 6.06665 9.44375 6.06665Z" fill="#C3CAD6"/>
<path d="M9.44367 9.1001H5.11034C4.8707 9.1001 4.677 9.2938 4.677 9.53343C4.677 9.77306 4.8707 9.96676 5.11034 9.96676H9.44367C9.6833 9.96676 9.877 9.77306 9.877 9.53343C9.877 9.2938 9.6833 9.1001 9.44367 9.1001Z" fill="#C3CAD6"/>
<path d="M9.44383 12.1333H2.94383C2.7042 12.1333 2.5105 12.327 2.5105 12.5666C2.5105 12.8063 2.7042 13 2.94383 13H9.44383C9.68346 13 9.87716 12.8063 9.87716 12.5666C9.87716 12.327 9.68346 12.1333 9.44383 12.1333Z" fill="#C3CAD6"/>
<path d="M9.44377 15.1667H1.21043C0.9708 15.1667 0.7771 15.3604 0.7771 15.6001C0.7771 15.8397 0.9708 16.0334 1.21043 16.0334H9.44377C9.6834 16.0334 9.8771 15.8397 9.8771 15.6001C9.8771 15.3604 9.6834 15.1667 9.44377 15.1667Z" fill="#C3CAD6"/>
<path d="M9.44386 18.2H3.81053C3.5709 18.2 3.3772 18.3937 3.3772 18.6333C3.3772 18.8729 3.5709 19.0666 3.81053 19.0666H9.44386C9.6835 19.0666 9.8772 18.8729 9.8772 18.6333C9.8772 18.3937 9.6835 18.2 9.44386 18.2Z" fill="#C3CAD6"/>
<path d="M9.44372 21.2334H6.41038C6.17075 21.2334 5.97705 21.4271 5.97705 21.6667C5.97705 21.9064 6.17075 22.1001 6.41038 22.1001H9.44372C9.68335 22.1001 9.87705 21.9064 9.87705 21.6667C9.87705 21.4271 9.68335 21.2334 9.44372 21.2334Z" fill="#C3CAD6"/>
</svg>
