<svg width="36" height="36" viewBox="0 0 36 36" fill="none" xmlns="http://www.w3.org/2000/svg">
<path d="M34.8 17.5032V8.99997C34.8 8.00758 33.9924 7.19997 33 7.19997H29.3965L27.4546 1.95234C27.3988 1.80173 27.2855 1.67994 27.1396 1.61336C26.9926 1.54677 26.827 1.54319 26.6764 1.60014L23.8612 2.68337L22.3635 0.282554C22.2789 0.147555 22.1451 0.051578 21.9897 0.0149452C21.8349 -0.0198595 21.6723 0.00714046 21.5367 0.0905311L10.1391 7.19997H3.00002C1.34578 7.19997 0 8.54575 0 10.1999V32.9999C0 34.6541 1.34578 36 3.00002 36H33C33.9924 36 34.8 35.1923 34.8 34.2V25.6967C35.4983 25.4489 36 24.782 36 23.9999V19.1999C36 18.4179 35.4983 17.7509 34.8 17.5032ZM28.118 7.19997H15.4669L23.8163 3.98669C23.8219 3.98472 23.8273 3.98247 23.8328 3.98036L26.5409 2.93812L28.118 7.19997ZM21.6627 1.42675L22.7204 3.12241L12.8647 6.91464L21.6627 1.42675ZM33 34.7999H3.00002C2.00763 34.7999 1.20002 33.9923 1.20002 32.9999V10.1999C1.20002 9.20753 2.00763 8.39992 3.00002 8.39992H33C33.3312 8.39992 33.6 8.66872 33.6 8.9999V17.3999H30.6C28.2846 17.3999 26.4 19.2845 26.4 21.5999C26.4 23.9153 28.2846 25.7999 30.6 25.7999H33.6V34.1999C33.6 34.5311 33.3312 34.7999 33 34.7999ZM34.8 23.9999C34.8 24.3311 34.5312 24.5999 34.2 24.5999H30.6C28.9458 24.5999 27.6 23.2541 27.6 21.5999C27.6 19.9457 28.9458 18.5999 30.6 18.5999H34.2C34.5312 18.5999 34.8 18.8687 34.8 19.1998V23.9999Z" fill="#C3CAD6"/>
<path d="M32.3999 20.9999H29.9999C29.6681 20.9999 29.3999 21.268 29.3999 21.5999C29.3999 21.9317 29.6681 22.1998 29.9999 22.1998H32.3999C32.7317 22.1998 32.9998 21.9317 32.9998 21.5999C32.9998 21.268 32.7317 20.9999 32.3999 20.9999Z" fill="#C3CAD6"/>
</svg>
