<svg width="19" height="19" viewBox="0 0 19 19" fill="none" xmlns="http://www.w3.org/2000/svg">
<path fill-rule="evenodd" clip-rule="evenodd" d="M1.36976 17.6245L4.73679 16.741L5.06164 16.9339C6.42752 17.7447 7.99323 18.1737 9.58958 18.1743H9.59318C14.4965 18.1743 18.4873 14.1822 18.4893 9.27531C18.4902 6.89747 17.5657 4.66169 15.8861 2.97959C14.2065 1.2975 11.9729 0.370697 9.59669 0.369873C4.68958 0.369873 0.698726 4.36161 0.696778 9.2681C0.69609 10.9496 1.16642 12.5872 2.05695 14.004L2.26847 14.3407L1.36976 17.6245ZM14.6192 11.581C14.8057 11.6712 14.9317 11.7321 14.9855 11.8219C15.0523 11.9335 15.0523 12.4691 14.8296 13.0941C14.6066 13.719 13.5382 14.2894 13.0243 14.3661C12.5636 14.4351 11.9805 14.4638 11.3398 14.2601C10.9514 14.1369 10.4533 13.9722 9.8152 13.6966C7.30799 12.6136 5.61363 10.1829 5.29339 9.72343C5.27096 9.69125 5.25527 9.66874 5.24652 9.65705L5.24436 9.65416C5.10282 9.46526 4.15448 8.19954 4.15448 6.88958C4.15448 5.65729 4.75962 5.01138 5.03816 4.71407C5.05724 4.6937 5.07479 4.67497 5.09051 4.65779C5.33565 4.38996 5.6254 4.323 5.80368 4.323C5.98196 4.323 6.16044 4.32465 6.31626 4.33248C6.33549 4.33344 6.35549 4.33332 6.37616 4.3332C6.53202 4.33229 6.72632 4.33115 6.91799 4.79171C6.99173 4.96895 7.09963 5.23172 7.21343 5.50886C7.44356 6.0693 7.69783 6.68852 7.74256 6.77812C7.80944 6.91204 7.854 7.06821 7.76486 7.24683C7.75148 7.27361 7.7391 7.29889 7.72728 7.32304C7.66032 7.45978 7.61107 7.56036 7.49743 7.69309C7.45274 7.74528 7.40656 7.80155 7.36037 7.85781C7.26836 7.96989 7.17637 8.08197 7.09625 8.1618C6.96237 8.2952 6.82299 8.43994 6.979 8.70777C7.13501 8.97561 7.67174 9.85164 8.4668 10.561C9.32145 11.3236 10.0642 11.6459 10.4408 11.8093C10.5143 11.8412 10.5738 11.867 10.6175 11.8889C10.8849 12.0228 11.0409 12.0004 11.1969 11.8219C11.3529 11.6434 11.8655 11.0407 12.0437 10.7729C12.222 10.5052 12.4003 10.5498 12.6454 10.639C12.8906 10.7284 14.2055 11.3755 14.4729 11.5094C14.5251 11.5356 14.574 11.5592 14.6192 11.581Z" fill="#4AA168"/>
</svg>
