<svg width="19" height="15" viewBox="0 0 19 15" fill="none" xmlns="http://www.w3.org/2000/svg">
<path d="M18.6085 2.93902C18.3895 2.12508 17.7478 1.4835 16.934 1.26432C15.4471 0.857422 9.49981 0.857422 9.49981 0.857422C9.49981 0.857422 3.55263 0.857422 2.06579 1.24881C1.26766 1.46784 0.610273 2.12522 0.391241 2.93902C0 4.42571 0 7.50896 0 7.50896C0 7.50896 0 10.6077 0.391241 12.0789C0.610418 12.8927 1.252 13.5344 2.06594 13.7536C3.56828 14.1605 9.49996 14.1605 9.49996 14.1605C9.49996 14.1605 15.4471 14.1605 16.934 13.7691C17.7479 13.5501 18.3895 12.9084 18.6087 12.0946C18.9999 10.6077 18.9999 7.52462 18.9999 7.52462C18.9999 7.52462 19.0156 4.42571 18.6085 2.93902Z" fill="#E06364"/>
</svg>
