<svg width="20" height="20" fill="none" xmlns="http://www.w3.org/2000/svg"><g clip-path="url(#clip0)" fill="#C3CAD6"><path d="M18.165 5.635l-8-3.6a.4.4 0 00-.322-.002l-8.4 3.6a.4.4 0 000 .735l8.4 3.6a.402.402 0 00.322-.003l8-3.6a.4.4 0 000-.73zM9.997 9.163L2.617 6l7.38-3.163L17.027 6l-7.03 3.163z"/><path d="M19.964 9.433a.4.4 0 00-.53-.197L10 13.56.567 9.236a.4.4 0 10-.333.728l9.6 4.4a.4.4 0 00.333 0l9.6-4.4a.4.4 0 00.197-.53z"/><path d="M19.964 13.033a.4.4 0 00-.53-.197L10 17.16.567 12.836a.4.4 0 10-.333.728l9.6 4.4a.399.399 0 00.333 0l9.6-4.4a.4.4 0 00.197-.53z"/></g><defs><clipPath id="clip0"><path fill="#fff" d="M0 0h20v20H0z"/></clipPath></defs></svg>