<svg width="48" height="48" fill="none" xmlns="http://www.w3.org/2000/svg"><path d="M24.774 27.871h12.387v-1.548H24.774v-4.646h1.549V20.13h-1.549v-3.097h9.29v-1.548h-9.29V6.968A6.976 6.976 0 0017.806 0c-2.792 0-5.2 1.655-6.31 4.034l-.037.007c-3.948.801-6.814 4.312-6.814 8.346 0 .975.166 1.93.494 2.846C1.995 17.004 0 20.37 0 24a10.1 10.1 0 004.306 8.25 7.689 7.689 0 00-1.21 4.137c0 4.27 3.474 7.742 7.743 7.742.233 0 .47-.012.714-.036 1.16 2.36 3.599 3.907 6.253 3.907a6.976 6.976 0 006.968-6.968v-8.516h5.42v-1.548h-5.42V27.87zm-1.548 13.161a5.425 5.425 0 01-5.42 5.42 5.45 5.45 0 01-5.056-3.483l-.228-.595-.626.108c-.38.067-.726.099-1.057.099a6.2 6.2 0 01-6.194-6.194 6.2 6.2 0 016.194-6.194v-1.548a7.715 7.715 0 00-5.566 2.374C2.968 29.439 1.548 26.815 1.548 24c0-3.279 1.925-6.302 4.903-7.703l.694-.325-.319-.697a6.905 6.905 0 01-.632-2.888c0-3.01 1.952-5.659 4.753-6.6a6.92 6.92 0 00-.108 1.18c0 1.226.322 2.43.933 3.485l1.34-.775a5.42 5.42 0 1110.114-2.71v34.065z" fill="#fff"/><path d="M17.807 43.355v1.548a3.875 3.875 0 003.87-3.87H20.13a2.326 2.326 0 01-2.322 2.322zM7.742 36.387H6.193a4.65 4.65 0 004.646 4.645v-1.548a3.1 3.1 0 01-3.097-3.097zm35.613 1.691v-3.24a3.875 3.875 0 00-3.871-3.87h-7.742v1.548h7.742a2.326 2.326 0 012.322 2.323v3.239a2.32 2.32 0 00-1.548 2.18 2.326 2.326 0 002.322 2.323 2.326 2.326 0 002.323-2.323 2.32 2.32 0 00-1.548-2.18zm-.775 2.954a.776.776 0 01-.774-.774c0-.426.348-.774.774-.774.427 0 .775.348.775.774a.776.776 0 01-.775.774zm3.097-16.258a2.32 2.32 0 00-2.18 1.549H38.71v1.548h4.788a2.32 2.32 0 002.18 1.548A2.326 2.326 0 0048 27.097a2.326 2.326 0 00-2.323-2.323zm0 3.097a.776.776 0 01-.774-.774.775.775 0 011.548 0 .776.776 0 01-.774.774zm-2.179-7.742H27.87v1.548h15.627a2.32 2.32 0 002.18 1.549A2.326 2.326 0 0048 20.903a2.326 2.326 0 00-2.322-2.322 2.32 2.32 0 00-2.18 1.548zm2.18 0c.426 0 .774.348.774.774a.776.776 0 01-.774.774.776.776 0 01-.775-.774c0-.426.348-.774.775-.774zm-2.323-6.968V9.922a2.32 2.32 0 001.548-2.18 2.326 2.326 0 00-2.322-2.323 2.326 2.326 0 00-2.323 2.323c0 1.008.65 1.86 1.548 2.18v3.24a2.326 2.326 0 01-2.322 2.322h-3.871v1.548h3.87a3.875 3.875 0 003.872-3.87zm-.774-6.193c.426 0 .774.348.774.774a.776.776 0 01-.774.774.776.776 0 01-.775-.774c0-.426.348-.774.775-.774zM8.423 20.035a3.875 3.875 0 000 5.475l1.094-1.095a2.327 2.327 0 010-3.285 2.325 2.325 0 013.285 0l1.095-1.095a3.876 3.876 0 00-5.474 0zm9.383-16.938a3.876 3.876 0 00-3.87 3.87h1.548a2.326 2.326 0 012.322-2.322 2.326 2.326 0 012.323 2.323h1.548a3.876 3.876 0 00-3.87-3.871zm3.097 14.709a3.876 3.876 0 00-3.87-3.87v1.548a2.326 2.326 0 012.322 2.322 2.326 2.326 0 01-2.323 2.323v1.548a3.876 3.876 0 003.871-3.87zm-7.742 16.259a3.876 3.876 0 003.871 3.87v-1.548a2.326 2.326 0 01-2.322-2.322 2.326 2.326 0 012.322-2.323v-1.548a3.876 3.876 0 00-3.87 3.87z" fill="#fff"/></svg>