<svg width="20" height="20" fill="none" xmlns="http://www.w3.org/2000/svg"><path d="M19.643 1.333h-2.5v-1c0-.184-.16-.333-.357-.333h-2.5c-.198 0-.357.149-.357.333v1H6.07v-1C6.071.15 5.911 0 5.714 0h-2.5c-.197 0-.357.149-.357.333v1h-2.5c-.197 0-.357.15-.357.334v18c0 .184.16.333.357.333h19.286c.197 0 .357-.149.357-.333v-18c0-.185-.16-.334-.357-.334zm-5-.666h1.786v2h-1.786v-2zM3.57.667h1.786v2H3.571v-2zM.714 2h2.143v1c0 .184.16.333.357.333h2.5c.198 0 .357-.149.357-.333V2h7.858v1c0 .184.16.333.357.333h2.5c.197 0 .357-.149.357-.333V2h2.143v3H.714V2zm0 17.333V5.667h18.572v13.666H.714z" fill="#C3CAD6"/><path d="M12.858 7.667H3.215v9.666h13.572V7.666h-3.929zm-2.5.666h2.5v2.333h-2.5V8.333zm2.5 5.333h-2.5v-2.333h2.5v2.333zm-5.714-2.333h2.5v2.333h-2.5v-2.333zm0-3h2.5v2.333h-2.5V8.333zm-3.214 0h2.5v2.333h-2.5V8.333zm0 3h2.5v2.333h-2.5v-2.333zm2.5 5.333h-2.5v-2.333h2.5v2.333zm3.214 0h-2.5v-2.333h2.5v2.333zm3.214 0h-2.5v-2.333h2.5v2.333zm3.215 0h-2.5v-2.333h2.5v2.333zm0-3h-2.5v-2.333h2.5v2.333zm0-5.333v2.333h-2.5V8.333h2.5z" fill="#C3CAD6"/></svg>