<svg width="20" height="20" fill="none" xmlns="http://www.w3.org/2000/svg"><path d="M19.427 7.441a.387.387 0 00-.548 0L8.304 18.017a4.114 4.114 0 01-2.93 1.208 4.113 4.113 0 01-2.931-1.208 4.116 4.116 0 01-1.208-2.931 4.11 4.11 0 011.208-2.93L13.018 1.58c1.122-1.122 2.884-1.053 4.099.16 1.214 1.214 1.282 2.976.16 4.099l-9.934 9.935a1.428 1.428 0 01-2.016 0 1.427 1.427 0 010-2.016l6.73-6.73a.387.387 0 10-.548-.548l-6.73 6.73a2.203 2.203 0 000 3.111 2.203 2.203 0 003.112 0l9.934-9.935c1.435-1.435 1.366-3.668-.16-5.194-1.526-1.526-3.76-1.595-5.195-.16L1.895 11.607a4.883 4.883 0 00-1.436 3.479c0 1.318.51 2.553 1.436 3.479A4.883 4.883 0 005.374 20c1.317 0 2.553-.51 3.478-1.435L19.427 7.989a.387.387 0 000-.548z" fill="#3464E0"/></svg>