<svg width="36" height="36" fill="none" xmlns="http://www.w3.org/2000/svg"><path d="M18 0C8.075 0 0 8.075 0 18s8.075 18 18 18 18-8.075 18-18S27.925 0 18 0zm0 34.8C8.737 34.8 1.2 27.263 1.2 18 1.2 8.737 8.737 1.2 18 1.2c9.263 0 16.8 7.537 16.8 16.8 0 9.263-7.537 16.8-16.8 16.8z" fill="#C3CAD6"/><path d="M18.6 15.613V9.527a.6.6 0 10-1.2 0v6.086a2.397 2.397 0 00-1.715 1.715H11.4a.6.6 0 100 1.2h4.285a2.398 2.398 0 002.315 1.8c1.323 0 2.4-1.077 2.4-2.4a2.397 2.397 0 00-1.8-2.315zm-.6 3.515a1.201 1.201 0 010-2.4 1.201 1.201 0 010 2.4zm0-13.201a.6.6 0 00.6-.6v-.6a.6.6 0 10-1.2 0v.6a.6.6 0 00.6.6zm0 24a.6.6 0 00-.6.6v.6a.6.6 0 101.2 0v-.6a.6.6 0 00-.6-.6zm13.2-12.6h-.6a.6.6 0 100 1.2h.6a.6.6 0 100-1.2zm-25.8 0h-.6a.6.6 0 100 1.2h.6a.6.6 0 100-1.2zM26.91 8.17l-.425.423a.6.6 0 10.848.849l.425-.424a.6.6 0 10-.849-.849zM8.667 26.413l-.425.424a.6.6 0 10.849.848l.424-.424a.6.6 0 10-.848-.848zm18.666 0a.6.6 0 10-.848.848l.424.424a.598.598 0 00.849 0 .6.6 0 000-.848l-.425-.424zM9.09 8.169a.6.6 0 10-.848.848l.425.424a.598.598 0 00.848 0 .6.6 0 000-.848l-.424-.424z" fill="#C3CAD6"/></svg>