<svg width="54" height="54" fill="none" xmlns="http://www.w3.org/2000/svg"><g clip-path="url(#clip0)" fill="#3464E0"><path d="M15.163 14.373a4.178 4.178 0 00-4.173 4.173c0 2.3 1.872 4.172 4.173 4.172 2.3 0 4.173-1.872 4.173-4.172a4.178 4.178 0 00-4.173-4.173zm0 6.763a2.594 2.594 0 01-2.59-2.59 2.594 2.594 0 012.59-2.591 2.594 2.594 0 012.59 2.59 2.594 2.594 0 01-2.59 2.591zm17.756 12.682a4.178 4.178 0 00-4.173 4.173c0 2.3 1.872 4.173 4.173 4.173 2.3 0 4.173-1.872 4.173-4.173 0-2.3-1.872-4.173-4.173-4.173zm0 6.763a2.594 2.594 0 01-2.59-2.59 2.594 2.594 0 012.59-2.591 2.594 2.594 0 012.59 2.59 2.594 2.594 0 01-2.59 2.591zm-16.064-8.454a3.331 3.331 0 00-3.328 3.328 3.331 3.331 0 003.328 3.327 3.331 3.331 0 003.327-3.327 3.331 3.331 0 00-3.327-3.328zm0 5.073a1.747 1.747 0 01-1.746-1.745c0-.963.783-1.746 1.746-1.746.962 0 1.745.783 1.745 1.746 0 .962-.783 1.745-1.745 1.745zm9.301-16.909a2.485 2.485 0 00-2.482 2.482 2.485 2.485 0 002.482 2.482 2.485 2.485 0 002.482-2.482 2.485 2.485 0 00-2.482-2.482zm0 3.382a.901.901 0 010-1.8.901.901 0 010 1.8zm16.77 10.582l-.845-1.69a.79.79 0 10-1.415.707l.845 1.69a.79.79 0 101.415-.707zm-7.61-5.918a.79.79 0 00-1.06-.353l-1.692.845a.79.79 0 10.708 1.415l1.69-.845a.79.79 0 00.354-1.062zM10.8 27.492L9.953 25.8a.79.79 0 10-1.415.707l.845 1.691a.79.79 0 101.415-.707zm12.68 14.372a.791.791 0 00-1.06-.353l-1.692.845a.79.79 0 10.708 1.415l1.69-.846a.79.79 0 00.355-1.06zm-.148-32.332l-.845-.846a.79.79 0 10-1.119 1.119l.846.845a.788.788 0 001.119 0 .791.791 0 000-1.118zm-1.691 19.445l-.845-.845a.791.791 0 10-1.119 1.118l.845.846a.789.789 0 001.119 0 .79.79 0 000-1.119zm8.742 16.677a.791.791 0 00-.791.791v.846a.791.791 0 101.582 0v-.846a.791.791 0 00-.791-.79zm-3.67-31.894a.791.791 0 00-1.118 0l-.846.845a.79.79 0 101.119 1.118l.845-.845a.791.791 0 000-1.119zm18.643-8.907a3.29 3.29 0 00-3.254-.78l-2.67.8a3.349 3.349 0 00-2.326 2.64l-.242 1.456a3.334 3.334 0 002.114 3.663l2.147.805a3.324 3.324 0 002.715-.17 3.331 3.331 0 001.681-2.139l.765-3.061a3.29 3.29 0 00-.93-3.214zm-.604 2.83l-.766 3.062a1.725 1.725 0 01-.881 1.122 1.724 1.724 0 01-1.425.089l-2.147-.806a1.749 1.749 0 01-1.109-1.92l.243-1.456a1.757 1.757 0 011.22-1.385l2.67-.801a1.726 1.726 0 011.707.41c.46.438.642 1.068.488 1.685zM50.79 18.92a2.459 2.459 0 00-.977-1.697l-1.122-.841a2.468 2.468 0 00-2.599-.235l-1.02.51a2.485 2.485 0 00-1.172 3.198l.821 1.917a2.465 2.465 0 002.288 1.505c.73 0 1.422-.32 1.9-.894l1.322-1.586a2.46 2.46 0 00.558-1.877zm-1.775.864l-1.321 1.586a.882.882 0 01-.822.315.882.882 0 01-.697-.536l-.821-1.917a.9.9 0 01.425-1.16l1.02-.51a.9.9 0 01.943.085l1.122.841c.2.15.325.369.354.616a.892.892 0 01-.203.68zM51.519 9.3a2.485 2.485 0 00-2.482 2.482 2.485 2.485 0 002.482 2.482 2.485 2.485 0 002.482-2.482A2.485 2.485 0 0051.519 9.3zm0 3.382a.901.901 0 010-1.8.901.901 0 010 1.8z"/><path d="M53.204 29.99a1.685 1.685 0 00-1.442-.48 7.637 7.637 0 01-8.381-5.237 2.458 2.458 0 00-1.868-1.678c-5.991-1.14-10.34-6.4-10.34-12.504 0-2.52.739-4.96 2.136-7.053a1.64 1.64 0 00-1.05-2.523 27.204 27.204 0 00-8.207-.356C18.541.752 13.403 3.026 9.196 6.734a.79.79 0 101.046 1.186c3.96-3.49 8.795-5.63 13.98-6.188a25.624 25.624 0 017.73.335c.018.004.038.011.05.036.009.024 0 .042-.01.057a14.24 14.24 0 00-2.4 7.931c0 6.864 4.889 12.776 11.625 14.058a.878.878 0 01.657.609 9.214 9.214 0 0010.117 6.318c.059-.009.089.026.09.035a25.325 25.325 0 01-5.991 12.66.791.791 0 001.188 1.043 26.904 26.904 0 006.364-13.45 1.578 1.578 0 00-.438-1.374zm-8.317 16.172a.791.791 0 00-1.116-.072A25.377 25.377 0 0127 52.419a25.23 25.23 0 01-10.235-2.144 25.331 25.331 0 01-8.25-5.826 25.286 25.286 0 01-5.333-8.551 25.364 25.364 0 01-1.558-10.395c.32-5.585 2.557-11.004 6.298-15.26a.79.79 0 10-1.188-1.044C2.762 13.718.386 19.475.046 25.41a26.935 26.935 0 007.32 20.123 26.909 26.909 0 008.762 6.188A26.807 26.807 0 0027 54a26.958 26.958 0 0017.816-6.722.791.791 0 00.071-1.116z"/></g><defs><clipPath id="clip0"><path fill="#fff" d="M0 0h54v54H0z"/></clipPath></defs></svg>