<svg width="36" height="36" fill="none" xmlns="http://www.w3.org/2000/svg"><path d="M34.268 5.57C33.51 2.762 27.868 0 18 0 8.13 0 2.49 2.762 1.732 5.57a.641.641 0 00-.096.32v24.22c0 .106.028.206.077.295C2.486 33.608 9.402 36 18 36c8.578 0 15.483-2.382 16.282-5.574a.647.647 0 00.082-.317V5.891a.633.633 0 00-.096-.32zm-1.265 16.675a1.614 1.614 0 01-.17.432 2.245 2.245 0 01-.294.423 3.528 3.528 0 01-.408.41 6.03 6.03 0 01-.344.28c-.054.04-.112.078-.169.117a7.563 7.563 0 01-.472.303c-.044.027-.092.053-.138.079-.195.11-.399.22-.619.325l-.086.04a14 14 0 01-.777.34l-.023.009c-1.487.594-3.388 1.093-5.604 1.42l-.033.005c-.43.063-.873.12-1.326.17-.074.007-.152.012-.227.02-.396.042-.796.08-1.209.11-.188.013-.386.02-.578.032-.31.018-.617.038-.935.05a45.246 45.246 0 01-3.183-.002c-.318-.012-.625-.032-.935-.05-.192-.011-.39-.018-.578-.032a38.88 38.88 0 01-1.21-.11l-.226-.02a37.707 37.707 0 01-1.36-.175c-2.215-.327-4.116-.826-5.603-1.42l-.023-.01c-.275-.11-.532-.223-.777-.339l-.086-.04a10.4 10.4 0 01-.619-.325c-.045-.026-.094-.052-.138-.079-.17-.1-.324-.2-.472-.303-.057-.039-.115-.078-.168-.117a5.393 5.393 0 01-.345-.28 3.417 3.417 0 01-.551-.592 2.44 2.44 0 01-.245-.436 1.586 1.586 0 01-.076-.237c-.024-.104-.05-.21-.05-.316 0-.074.008-.148.02-.221a.652.652 0 00-.02-.291v-4.86c.018.017.04.034.06.05.142.127.288.252.451.372C5.923 18.842 10.854 20.29 18 20.29c7.116 0 12.034-1.438 14.51-3.291a6.74 6.74 0 00.544-.444v4.859a.653.653 0 00-.02.291c.013.073.02.147.02.221 0 .106-.026.212-.051.318zM33.054 8.7v4.86a.653.653 0 00-.02.29c.013.074.02.148.02.222 0 .105-.026.211-.051.317a1.618 1.618 0 01-.17.432 2.234 2.234 0 01-.294.423 3.529 3.529 0 01-.408.411c-.108.094-.22.187-.344.279-.054.04-.112.079-.169.118a7.564 7.564 0 01-.472.303c-.044.027-.092.052-.138.078-.195.11-.399.22-.619.326l-.086.04c-.246.115-.502.23-.777.34l-.023.008c-1.487.594-3.388 1.093-5.604 1.42l-.033.005c-.43.064-.873.12-1.326.17-.074.008-.152.013-.227.02-.396.042-.796.08-1.209.11-.188.014-.386.02-.578.032-.31.019-.617.039-.935.05a45.246 45.246 0 01-3.183-.002c-.318-.011-.625-.032-.935-.05-.192-.01-.39-.018-.578-.032a39.19 39.19 0 01-1.21-.11c-.074-.007-.152-.012-.226-.02a37.24 37.24 0 01-1.36-.174c-2.215-.327-4.116-.827-5.603-1.42a13.9 13.9 0 01-.8-.349l-.086-.04c-.22-.106-.424-.215-.619-.326-.045-.026-.094-.051-.138-.078-.17-.1-.324-.201-.472-.303-.057-.04-.115-.078-.168-.118a5.359 5.359 0 01-.345-.279 3.416 3.416 0 01-.551-.592 2.44 2.44 0 01-.245-.436 1.586 1.586 0 01-.076-.238c-.024-.104-.05-.21-.05-.315 0-.074.008-.148.02-.222a.653.653 0 00-.02-.29V8.7c.078.071.168.141.253.212.047.04.09.078.14.118.197.154.409.307.639.455.047.031.101.061.15.092a11.194 11.194 0 00.851.478c.239.122.49.24.753.355.044.02.083.039.127.057.307.13.633.255.972.375.093.034.191.065.288.098.27.09.548.178.837.262.104.03.206.062.313.09.383.107.778.207 1.193.3.057.013.118.024.176.036.366.08.746.154 1.136.223.132.024.266.046.4.069.372.06.754.116 1.146.167.101.013.197.028.3.04.487.06.99.11 1.508.153l.39.028c.415.03.838.055 1.271.074a51.204 51.204 0 002.21.053c.596 0 1.171-.013 1.735-.032l.476-.02c.434-.02.857-.045 1.271-.075.13-.01.262-.017.39-.028a39.496 39.496 0 001.51-.152c.101-.013.198-.028.298-.04.392-.052.774-.107 1.146-.168.135-.023.269-.045.401-.069.39-.069.77-.143 1.136-.223.057-.012.119-.023.176-.036.415-.093.81-.194 1.193-.3.107-.029.209-.06.313-.09.288-.084.567-.171.837-.262.096-.033.194-.064.288-.098.34-.12.666-.245.972-.375.044-.018.083-.038.126-.057a13.973 13.973 0 00.994-.48 10.4 10.4 0 00.61-.353c.05-.03.103-.06.151-.092.23-.148.442-.3.638-.455.05-.04.093-.079.141-.118.085-.07.175-.14.253-.212zM18 1.309c8.872 0 15.054 2.587 15.054 4.91 0 2.322-6.182 4.908-15.054 4.908-8.873 0-15.055-2.586-15.055-4.909C2.945 3.896 9.127 1.31 18 1.31zm15.054 28.606a.653.653 0 00-.02.088c-.372 2.264-6.502 4.688-15.034 4.688-8.533 0-14.663-2.424-15.034-4.688a.713.713 0 00-.02-.086V24.41c.018.017.04.033.06.05.142.126.288.251.451.371 2.466 1.865 7.397 3.314 14.543 3.314 7.116 0 12.034-1.437 14.51-3.29a6.96 6.96 0 00.544-.444v-.001 5.505z" fill="#C3CAD6"/></svg>