<svg width="22" height="23" fill="none" xmlns="http://www.w3.org/2000/svg"><path d="M20.964 2.333h-2.583V1.226a.369.369 0 00-.37-.369h-2.583a.369.369 0 00-.369.37v1.106H6.94V1.226a.369.369 0 00-.369-.369H3.988a.369.369 0 00-.37.37v1.106H1.037a.369.369 0 00-.37.37V22.63c0 .204.165.369.37.369h19.928a.37.37 0 00.37-.369V2.702a.369.369 0 00-.37-.369zm-5.166-.738h1.845V3.81h-1.846V1.595zm-11.441 0h1.845V3.81H4.357V1.595zM1.405 3.071h2.214V4.18c0 .204.165.369.369.369H6.57a.369.369 0 00.37-.37V3.072h8.118V4.18c0 .204.165.369.37.369h2.583a.369.369 0 00.369-.37V3.072h2.214v3.322H1.405V3.07zm0 19.19V7.132h19.19v15.13H1.405z" fill="#C3CAD6"/><path d="M13.952 9.345H3.988v10.703h14.024V9.345h-4.06zm-2.583.738h2.583v2.584H11.37v-2.584zm2.583 5.905H11.37v-2.583h2.583v2.583zm-5.904-2.583h2.583v2.583H8.048v-2.583zm0-3.322h2.583v2.584H8.048v-2.584zm-3.322 0H7.31v2.584H4.726v-2.584zm0 3.322H7.31v2.583H4.726v-2.583zM7.31 19.31H4.726v-2.584H7.31v2.584zm3.322 0H8.048v-2.584h2.583v2.584zm3.321 0H11.37v-2.584h2.583v2.584zm3.322 0H14.69v-2.584h2.584v2.584zm0-3.322H14.69v-2.583h2.584v2.583zm0-5.905v2.584H14.69v-2.584h2.584z" fill="#C3CAD6"/></svg>