<svg width="23" height="19" fill="none" xmlns="http://www.w3.org/2000/svg"><path d="M21.771.962H1.228c-.63 0-1.141.511-1.141 1.142v15.221c0 .63.51 1.142 1.141 1.142h20.543c.63 0 1.142-.511 1.142-1.142V2.104c0-.63-.511-1.142-1.142-1.142zm.38 16.364c0 .21-.17.38-.38.38H1.228a.38.38 0 01-.38-.38V2.104c0-.21.17-.38.38-.38h20.543c.21 0 .38.17.38.38v15.222z" fill="#C3CAD6"/><path d="M21.044 2.486a.38.38 0 00-.278.088l-8.777 7.374a.76.76 0 01-.979 0L2.233 2.574a.38.38 0 10-.489.583l8.777 7.374a1.52 1.52 0 001.957 0l8.777-7.374a.38.38 0 00-.211-.67zm-13.64 7.993a.38.38 0 00-.367.118L1.71 16.305a.38.38 0 10.556.52l5.326-5.71a.38.38 0 00-.19-.636zm8.559.118a.38.38 0 10-.556.519l5.326 5.708a.38.38 0 00.556-.52l-5.326-5.707z" fill="#C3CAD6"/></svg>