<svg width="18" height="18" fill="none" xmlns="http://www.w3.org/2000/svg"><g clip-path="url(#clip0)" fill="#C3CAD6"><path d="M2.443 10.928L.568 9.803a.375.375 0 10-.386.643l1.875 1.126a.376.376 0 00.386-.643zm6.153-7.536c-1.443-.44-3.143-.508-5.05-.206a1.88 1.88 0 01-1.504-.41L.615 1.588a.375.375 0 10-.48.576l1.427 1.19a2.641 2.641 0 002.101.574c1.794-.286 3.38-.224 4.714.184a.374.374 0 00.468-.25.375.375 0 00-.249-.469zm7.421 7.644l-5.645-4.943a.374.374 0 10-.495.564l5.647 4.944a.653.653 0 01-.428 1.149h-.1a.654.654 0 01-.417-.15l-.06-.05-.021-.018-4.133-3.443a.376.376 0 00-.48.575l4.146 3.456a.646.646 0 01-.427 1.13h-.11a.643.643 0 01-.412-.149l-.788-.657-.015-.012-3.414-2.844a.375.375 0 10-.48.575l3.423 2.853a.562.562 0 01-.37.984 1.23 1.23 0 01-.76-.263l-1.81-1.54a.375.375 0 00-.486.572l1.818 1.547c.35.28.79.434 1.238.434.612 0 1.128-.422 1.272-.99.23.155.503.24.783.24h.111a1.397 1.397 0 001.392-1.5h.1a1.405 1.405 0 00.921-2.464z"/><path d="M10.337 14.45a.375.375 0 00-.53.53c.097.098.024.469-.168.661a.378.378 0 01-.539-.009l-.97-.905a.374.374 0 10-.512.547l.96.897a1.124 1.124 0 001.591 0c.446-.446.612-1.276.168-1.721zm7.608-4.518a.374.374 0 00-.514-.129l-1.875 1.125a.376.376 0 00.386.644l1.875-1.125a.376.376 0 00.128-.515zm-.035-8.3a.377.377 0 00-.53-.042l-2.541 2.18c-1.278.171-2.198-.133-3.013-.402-.572-.189-1.113-.367-1.7-.367-1.013 0-1.75.485-2.401.914-.142.093-.28.184-.417.265a.345.345 0 00-.072.056L5.248 6.221a1.625 1.625 0 00-.304 1.88c.277.554.835.9 1.456.9h.3a1.63 1.63 0 001.025-.364c.145-.118.312-.257.49-.406.637-.534 1.6-1.338 2.042-1.505a.375.375 0 00-.264-.702c-.52.195-1.298.827-2.26 1.63-.175.148-.34.285-.481.4a.866.866 0 01-.553.196h-.3a.88.88 0 01-.62-1.498l1.954-1.954c.132-.081.266-.169.403-.259.59-.387 1.2-.789 1.989-.789.467 0 .93.153 1.466.329.872.289 1.958.649 3.466.417a.368.368 0 00.187-.086l2.625-2.25a.375.375 0 00.04-.528zM3.392 10.125c-.372 0-.716.184-.922.493l-.41.614a1.103 1.103 0 00-.185.614v.17a1.11 1.11 0 002.03.616l.409-.614c.121-.182.186-.395.186-.614v-.17a1.11 1.11 0 00-1.108-1.109zm.358 1.278c0 .071-.021.14-.06.2l-.41.614a.358.358 0 01-.655-.2v-.17c0-.071.02-.14.06-.199l.41-.614a.358.358 0 01.655.199v.17z"/><path d="M4.867 10.874c-.348 0-.68.166-.887.444l-.759 1.01a1.12 1.12 0 00-.221.666v.147c0 .612.497 1.109 1.133 1.109.347 0 .679-.166.887-.443l.759-1.01a1.12 1.12 0 00.22-.667v-.147c0-.61-.496-1.108-1.132-1.109zm.383 1.256a.363.363 0 01-.071.216l-.76 1.011a.375.375 0 01-.311.143.358.358 0 01-.358-.358v-.147c0-.078.025-.154.071-.216l.759-1.011a.374.374 0 01.312-.143c.197 0 .358.16.358.358v.147z"/><path d="M6.367 11.624c-.348 0-.68.166-.887.444l-.759 1.01a1.12 1.12 0 00-.221.666v.147c0 .612.497 1.109 1.133 1.109.347 0 .679-.166.887-.443l.759-1.01a1.12 1.12 0 00.22-.667v-.147c0-.61-.497-1.108-1.132-1.109zm.383 1.256a.363.363 0 01-.072.216l-.758 1.011a.375.375 0 01-.312.143.358.358 0 01-.358-.358v-.147c0-.078.025-.154.071-.216l.759-1.011a.374.374 0 01.312-.143c.197 0 .358.16.358.358v.147z"/><path d="M7.867 12.374c-.348 0-.68.166-.887.444l-.759 1.01a1.12 1.12 0 00-.221.666v.147c0 .612.497 1.109 1.133 1.109.347 0 .679-.166.887-.443l.759-1.011a1.12 1.12 0 00.22-.666v-.147c0-.612-.496-1.109-1.132-1.109zm.383 1.256a.364.364 0 01-.071.216l-.76 1.011a.374.374 0 01-.311.143.358.358 0 01-.358-.358v-.147c0-.078.025-.154.071-.216l.76-1.011a.375.375 0 01.311-.143c.197 0 .358.16.358.358v.147z"/></g><defs><clipPath id="clip0"><path fill="#fff" d="M0 0h18v18H0z"/></clipPath></defs></svg>