<svg width="36" height="32" fill="none" xmlns="http://www.w3.org/2000/svg"><path d="M34.194 6.1H33V4.3h-6v1.8h-2.4V2.624A1.926 1.926 0 0022.676.7h-9.352A1.926 1.926 0 0011.4 2.624V6.1H9V4.3H3v1.8H1.806C.811 6.1 0 6.91 0 7.906v21.588C0 30.49.81 31.3 1.806 31.3h32.388c.995 0 1.806-.81 1.806-1.806V7.906c0-.995-.81-1.806-1.806-1.806zM28.2 5.5h3.6v.6h-3.6v-.6zM12.6 2.624c0-.4.325-.724.724-.724h9.352c.4 0 .724.325.724.724V6.1H12.6V2.624zM11.4 7.3H30v22.8H6V7.3h5.4zM4.2 5.5h3.6v.6H4.2v-.6zm-3 23.994V7.906c0-.334.272-.606.606-.606H4.8v22.8H1.806a.607.607 0 01-.606-.606zm33.6 0a.607.607 0 01-.606.606H31.2V7.3h2.994c.334 0 .606.272.606.606v21.588z" fill="#C3CAD6"/></svg>