<svg width="20" height="20" fill="none" xmlns="http://www.w3.org/2000/svg"><path d="M13.333 0a6.674 6.674 0 00-6.666 6.667c0 .437.047.887.141 1.338l-.744.372a.417.417 0 00-.109.668l.54.538-.418.417h-.66a.416.416 0 00-.417.417v.66l-.59.59h-.66a.416.416 0 00-.417.416v.661l-.589.59h-.66a.416.416 0 00-.417.416v.66L.122 15.956A.416.416 0 000 16.25v3.333c0 .23.186.417.417.417H3.75a.42.42 0 00.295-.122l6.372-6.372.538.539a.417.417 0 00.667-.108l.373-.745C16.235 14.075 20 10.78 20 6.667A6.674 6.674 0 0013.333 0zm-1.46 12.308a.419.419 0 00-.476.217l-.261.521-.425-.424a.416.416 0 00-.589 0l-6.545 6.545H.833v-2.745l1.545-1.544a.416.416 0 00.122-.295v-.416h.417c.11 0 .216-.044.294-.122l.834-.834a.417.417 0 00.122-.294V12.5h.416a.417.417 0 00.295-.122l.833-.833a.416.416 0 00.122-.295v-.417h.417a.42.42 0 00.295-.122l.833-.833a.416.416 0 000-.59l-.424-.424.52-.26a.417.417 0 00.218-.477 5.872 5.872 0 01-.192-1.46A5.84 5.84 0 0113.333.833a5.84 5.84 0 015.834 5.834c0 3.69-3.445 6.632-7.294 5.64z" fill="#fff"/><path d="M15.417 2.5a2.086 2.086 0 00-2.083 2.083c0 1.149.934 2.084 2.083 2.084A2.086 2.086 0 0017.5 4.583 2.086 2.086 0 0015.417 2.5zm0 3.333a1.25 1.25 0 110-2.5 1.25 1.25 0 010 2.5zm-6.962 5.123l-5.833 5.833a.417.417 0 10.59.59l5.833-5.834a.417.417 0 10-.59-.59z" fill="#fff"/></svg>