<svg width="36" height="36" fill="none" xmlns="http://www.w3.org/2000/svg"><path d="M23.348 0H3.9v36h28.2V8.752L23.348 0zm.352 2.048L30.052 8.4H23.7V2.048zM5.1 34.8V1.2h17.4v8.4h8.4v25.2H5.1z" fill="#C3CAD6"/><path d="M20.7 22.2a.6.6 0 100-1.2H10.5a.6.6 0 100 1.2h10.2zm6-4.2h-4.2a.6.6 0 100 1.2h4.2a.6.6 0 100-1.2zm-13.8.6a.6.6 0 00.6.6h6a.6.6 0 100-1.2h-6a.6.6 0 00-.6.6zm-2.826-.426a.629.629 0 00-.174.426.605.605 0 00.6.6.62.62 0 00.426-.174.63.63 0 00.174-.426.629.629 0 00-.174-.426c-.222-.222-.636-.216-.852 0zm13.2 3a.617.617 0 00-.174.426c0 .162.06.312.174.426a.63.63 0 00.426.174.63.63 0 00.426-.174.594.594 0 00.174-.426.629.629 0 00-.174-.426.628.628 0 00-.852 0zm3 0a.617.617 0 00-.174.426c0 .162.06.312.174.426a.63.63 0 00.426.174.61.61 0 00.426-.18.59.59 0 00.174-.42.629.629 0 00-.174-.426.628.628 0 00-.852 0zM13.815 24.1c-1.314.684-1.756 1.992-1.918 3.349l-.745-.624c-.588-.493-1.441.351-.848.849l1.683 1.41c.395.331 1.006.122 1.024-.424.044-1.3.105-2.845 1.41-3.524.685-.357.078-1.393-.606-1.036zm8.058 2.365c-.875-.055-2.155 1.293-2.83.092a.607.607 0 00-.82-.216c-.85.522-1.96 1.272-2.854.3-.524-.57-1.371.281-.848.849 1.121 1.22 2.565.849 3.839.157.287.321.643.556 1.102.649.475.096 2.415-.685 2.52-.54.451.617 1.493.019 1.036-.606-.31-.424-.596-.65-1.145-.685zM17.2 14.378l.404-.288-.207-.45a1.89 1.89 0 00-.87-.92l-1.272-.65c.585-.373 1.006-.936 1.257-1.68.41-.25.67-.695.67-1.19v-.4c0-.407-.177-.785-.477-1.047-.214-1.14-.986-2.371-3.324-2.371-.092 0-.182.004-.27.01-.314.027-.772 0-1.163-.262a1.394 1.394 0 01-.32-.275.677.677 0 00-.795-.21.675.675 0 00-.416.707c.018.154.044.334.083.53.05.252.053.325.051.344-.004.021-.04.096-.067.156-.042.09-.093.2-.154.349a4.58 4.58 0 00-.283 1.031A1.394 1.394 0 009.581 8.8v.4c0 .496.258.94.669 1.19.25.742.669 1.303 1.25 1.677l-1.323.652c-.368.2-.655.52-.83.924l-.191.445.393.281a6.561 6.561 0 003.832 1.231 6.552 6.552 0 003.818-1.222zm-6.39-.634l1.466-.722a.902.902 0 00.506-.813v-.853l-.363-.157c-.547-.235-.903-.69-1.091-1.393l-.086-.32-.316-.098a.202.202 0 01-.144-.188v-.4a.2.2 0 01.11-.173l.282-.15.033-.318c.037-.357.115-.684.234-.973.052-.126.096-.22.132-.298.093-.2.15-.347.17-.513a3.16 3.16 0 001.464.215 2.08 2.08 0 01.175-.007c1.751 0 2.081.8 2.173 1.582l.036.314.28.147a.2.2 0 01.111.174v.4a.202.202 0 01-.144.188l-.316.099-.086.32c-.188.701-.545 1.157-1.091 1.392l-.363.157v.856c0 .342.19.652.495.809l1.45.74a5.448 5.448 0 01-5.118-.017z" fill="#C3CAD6"/></svg>