<svg width="18" height="18" fill="none" xmlns="http://www.w3.org/2000/svg"><path d="M14.263 0H2.536v16.236h1.202V18l1.203-.802L6.143 18v-1.764h8.12c.662 0 1.202-.54 1.202-1.202V1.202c0-.663-.54-1.202-1.202-1.202zM3.137.601h8.419v4.513h-8.42V.6zm8.419 9.925h-8.42V5.715h8.42v4.811zm-6.014 6.35l-.601-.4-.602.4v-.64h1.203v.64zm.601-1.242H3.137v-4.507h8.419v4.507H6.143zm6.014 0V.601h.902v15.033h-.902zm1.504-9.919h1.202v4.811h-1.202V5.715zm1.202 9.32a.6.6 0 01-.6.6h-.602v-4.508h1.202v3.907zm-1.202-9.921V.6h.602a.6.6 0 01.6.6v3.913h-1.202z" fill="#C3CAD6"/></svg>