<svg width="36" height="33" fill="none" xmlns="http://www.w3.org/2000/svg"><path d="M28.215 17.4v-5.396c.025-4.115-2.741-6.843-5.119-7.93A12.062 12.062 0 0021 3.344V3c0-1.654-1.346-3-3-3s-3 1.346-3 3v.397c-.643.173-1.274.4-1.887.682C10.486 5.29 7.824 8.21 7.8 12v5.4c0 3.833-1.353 7.121-4.023 9.775a.601.601 0 00.321 1.017l5.695.983c1.06.183 2.037.333 2.967.457C13.807 31.684 15.863 33 18.11 33c2.246 0 4.303-1.318 5.35-3.371a76.063 76.063 0 002.952-.455l5.694-.983a.6.6 0 00.321-1.017c-2.795-2.779-4.212-6.068-4.212-9.775zM16.2 3c0-.992.808-1.8 1.8-1.8s1.8.808 1.8 1.8v.11a11.93 11.93 0 00-3.6.027V3zm1.91 28.8c-1.52 0-2.939-.755-3.85-1.989a37.16 37.16 0 003.843.208c1.256 0 2.512-.07 3.858-.21-.912 1.236-2.332 1.991-3.851 1.991zm8.099-3.808c-1.152.198-2.207.36-3.204.487H23c-.44.056-.866.104-1.285.146l-.01.001a39.273 39.273 0 01-2.29.16c-.065.002-.13.006-.194.007-.746.026-1.483.026-2.228.001l-.2-.008a36.5 36.5 0 01-2.26-.158l-.04-.003a48.09 48.09 0 01-1.275-.145h-.005a73.833 73.833 0 01-3.217-.489L5.4 27.198C7.79 24.466 9 21.175 9 17.4v-5.396c.02-3.261 2.333-5.783 4.615-6.835a10.726 10.726 0 012.098-.71c.006-.001.013 0 .019-.002a10.908 10.908 0 014.547-.04c.008.001.016-.002.024-.001.782.163 1.553.41 2.295.75C24.81 6.177 27.036 8.681 27.015 12v5.4c0 3.62 1.305 6.985 3.787 9.798l-4.593.793z" fill="#C3CAD6"/><path d="M21.85 6.803c-2.325-1.063-5.172-1.064-7.481.001-1.317.607-3.551 2.384-3.57 5.192a.6.6 0 00.597.604h.004a.6.6 0 00.6-.596c.014-2.207 1.811-3.621 2.87-4.11 1.999-.923 4.468-.92 6.48 0a.6.6 0 00.5-1.091zM2.881 12.176a.6.6 0 00-.848 0A6.902 6.902 0 000 17.09a6.9 6.9 0 002.033 4.914.598.598 0 00.848 0 .6.6 0 000-.849A5.71 5.71 0 011.2 17.09c0-1.538.597-2.982 1.681-4.066a.6.6 0 000-.848z" fill="#C3CAD6"/><path d="M4.983 20.814a.598.598 0 00.424-1.024 3.94 3.94 0 010-5.566.6.6 0 10-.848-.848 5.141 5.141 0 000 7.262c.117.118.27.176.424.176zm28.984-8.638a.6.6 0 10-.848.848A5.71 5.71 0 0134.8 17.09a5.71 5.71 0 01-1.681 4.066.6.6 0 10.848.848A6.9 6.9 0 0036 17.09a6.902 6.902 0 00-2.033-4.914z" fill="#C3CAD6"/><path d="M30.593 13.376a.6.6 0 000 .848 3.94 3.94 0 010 5.566.6.6 0 10.848.848 5.141 5.141 0 000-7.262.6.6 0 00-.848 0z" fill="#C3CAD6"/></svg>