<svg width="18" height="18" fill="none" xmlns="http://www.w3.org/2000/svg"><g clip-path="url(#clip0)" fill="#C3CAD6"><path d="M17.999 8.907C17.952 4.18 14.072.186 9.35.007a8.928 8.928 0 00-6.59 2.509A8.926 8.926 0 000 9a8.946 8.946 0 008.531 8.988c.03.008.062.012.094.012.039 0 .078-.002.116-.003h.02a.416.416 0 00.108-.013 1.877 1.877 0 001.266-2.97c-.175-.265-.335-.48-.477-.672-.38-.511-.59-.792-.648-1.469A.75.75 0 019.75 12c.522 0 1.142.155 1.8.32 1.515.378 3.4.85 5.165-.389 1.306-.916 1.29-2.34 1.284-3.024zm-1.715 2.411c-1.485 1.042-3.044.654-4.552.274-.703-.175-1.367-.342-1.982-.342-.827 0-1.5.673-1.5 1.5 0 .065.004.13.019.218h-.001c.071.858.388 1.284.789 1.822.139.187.295.396.466.656a1.12 1.12 0 01.227.679c0 .587-.452 1.07-1.025 1.12A8.202 8.202 0 01.75 9a8.18 8.18 0 012.528-5.943 8.182 8.182 0 016.044-2.3c4.328.165 7.884 3.824 7.928 8.159.006.599.017 1.713-.966 2.402z"/><path d="M13.875 6C12.84 6 12 6.841 12 7.875s.841 1.875 1.875 1.875c1.033 0 1.875-.84 1.875-1.875A1.877 1.877 0 0013.875 6zm0 3A1.126 1.126 0 1115 7.875C15 8.495 14.495 9 13.875 9zm-3.75-6.75a1.876 1.876 0 10.001 3.749 1.876 1.876 0 00-.001-3.749zm0 3a1.126 1.126 0 010-2.25 1.126 1.126 0 010 2.25zm-5.25-1.5C3.841 3.75 3 4.591 3 5.625S3.84 7.5 4.875 7.5c1.033 0 1.875-.84 1.875-1.875 0-1.034-.84-1.875-1.875-1.875zm0 3a1.126 1.126 0 010-2.25 1.126 1.126 0 010 2.25zM4.125 9c-1.034 0-1.875.841-1.875 1.875s.84 1.875 1.875 1.875C5.158 12.75 6 11.91 6 10.875 6 9.841 5.16 9 4.125 9zm0 3a1.126 1.126 0 010-2.25 1.126 1.126 0 010 2.25z"/></g><defs><clipPath id="clip0"><path fill="#fff" d="M0 0h18v18H0z"/></clipPath></defs></svg>