<svg width="29" height="29" fill="none" xmlns="http://www.w3.org/2000/svg"><g clip-path="url(#clip0)"><path d="M27.619 1.381a4.731 4.731 0 00-6.682 0L2.01 20.309c-.01.01-.014.02-.022.03-.011.012-.02.026-.03.04a.51.51 0 00-.066.125c-.005.014-.012.026-.016.04l-.006.015-1.855 7.795a.52.52 0 00-.012.106L0 28.48a.522.522 0 00.05.211.55.55 0 00.103.156.529.529 0 00.492.14L8.44 27.13c.014-.003.026-.011.04-.016a.484.484 0 00.158-.085c.012-.01.025-.017.037-.028l.014-.01 18.929-18.93a4.73 4.73 0 000-6.681zm-.743.742a3.678 3.678 0 01.341 4.796L22.08 1.782a3.678 3.678 0 014.796.341zm-2.598 7.795L19.082 4.72l.742-.742 5.196 5.197-.742.742zM2.604 26.395a.524.524 0 00-.742 0l-.398.398 1.341-5.631 2.321-.258-.299 2.689c-.002.02.006.038.006.057 0 .02-.008.038-.006.058.002.017.011.032.015.048a.535.535 0 00.129.249.53.53 0 00.263.149c.02.004.036.015.057.018a.515.515 0 00.057.003h.002a.522.522 0 00.057-.003l2.689-.299-.258 2.322-5.631 1.34.397-.397a.525.525 0 000-.743zm6.587-2.875l11.746-11.747a.524.524 0 10-.742-.742L8.449 22.777l-2.505.279.278-2.506L17.969 8.804a.524.524 0 10-.742-.742L5.48 19.808l-1.67.186 14.53-14.53 5.196 5.196-14.53 14.53.185-1.67zM25.763 8.433l-5.197-5.196.743-.743 5.196 5.197-.742.742z" fill="#fff"/></g><defs><clipPath id="clip0"><path fill="#fff" d="M0 0h29v29H0z"/></clipPath></defs></svg>