<svg width="16" height="16" fill="none" xmlns="http://www.w3.org/2000/svg"><path d="M13.333 8.533c.736 0 1.334-.598 1.334-1.333A1.335 1.335 0 0012 7.2c0 .735.598 1.333 1.333 1.333zm0-2.133a.801.801 0 010 1.6.801.801 0 010-1.6zM11.2 11.467H4.8a.266.266 0 100 .533h6.4a.266.266 0 100-.533zm0 1.333H4.8a.266.266 0 100 .533h6.4a.266.266 0 100-.533z" fill="#C3CAD6"/><path d="M13.6 4.533V0H2.4v4.533H0V13.6h1.6v.8h.8V16h11.2v-1.6h.8v-.8H16V4.533h-2.4zm-10.667-4h10.134v4H2.933v-4zM2.4 5.067h13.067v4.266H.533V5.067H2.4zm-.267 8.8V12a.266.266 0 10-.533 0v1.067H.533v-3.2H2.4v4h-.267zm10.934 1.6H2.933v-5.6h10.134v5.6zm1.333-2.4V12a.266.266 0 10-.533 0v1.867H13.6v-4h1.867v3.2H14.4z" fill="#C3CAD6"/></svg>