<svg width="36" height="36" fill="none" xmlns="http://www.w3.org/2000/svg"><path d="M34.147 14h-3.368c-.542 0-.988-.298-1.195-.798a1.258 1.258 0 01.28-1.41l2.381-2.38c.35-.35.543-.816.543-1.31 0-.496-.193-.961-.543-1.312L29.21 3.755c-.7-.7-1.92-.702-2.622 0l-2.38 2.38a1.259 1.259 0 01-1.41.281A1.257 1.257 0 0122 5.221V1.853A1.855 1.855 0 0020.147 0h-4.294A1.855 1.855 0 0014 1.853v3.368c0 .542-.298.988-.798 1.195a1.256 1.256 0 01-1.41-.28l-2.38-2.381c-.701-.702-1.922-.7-2.622 0L3.755 6.79c-.35.35-.543.816-.543 1.311s.193.96.543 1.311l2.381 2.38c.382.383.487.91.28 1.41-.207.5-.653.798-1.195.798H1.853A1.855 1.855 0 000 15.853v4.293C0 21.169.831 22 1.853 22h3.368c.542 0 .988.298 1.195.798a1.26 1.26 0 01-.28 1.41l-2.381 2.38c-.35.35-.543.816-.543 1.31 0 .496.193.961.543 1.312l3.035 3.035c.7.701 1.92.702 2.622 0l2.38-2.381a1.258 1.258 0 011.41-.28c.5.207.798.653.798 1.195v3.368c0 1.022.831 1.853 1.853 1.853h4.293a1.855 1.855 0 001.853-1.853v-3.368c0-.542.298-.988.798-1.195a1.257 1.257 0 011.41.28l2.38 2.381c.702.702 1.922.7 2.622 0l3.036-3.035c.35-.35.542-.816.542-1.311s-.192-.96-.542-1.311l-2.382-2.38a1.26 1.26 0 01-.28-1.41c.207-.5.654-.798 1.196-.798h3.368A1.855 1.855 0 0036 20.147v-4.294A1.855 1.855 0 0034.147 14zm.52 6.147a.52.52 0 01-.52.52h-3.368a2.586 2.586 0 00-2.427 1.621c-.415 1-.197 2.097.57 2.863l2.38 2.38a.52.52 0 010 .736l-3.035 3.036a.52.52 0 01-.736 0l-2.38-2.382a2.587 2.587 0 00-2.863-.569 2.586 2.586 0 00-1.621 2.427v3.368a.52.52 0 01-.52.52h-4.294a.52.52 0 01-.52-.52v-3.368a2.586 2.586 0 00-1.621-2.427 2.59 2.59 0 00-2.863.569l-2.38 2.381a.52.52 0 01-.736 0l-3.036-3.035a.52.52 0 010-.736L7.08 25.15a2.586 2.586 0 00.569-2.863 2.586 2.586 0 00-2.427-1.62H1.853a.52.52 0 01-.52-.52v-4.294a.52.52 0 01.52-.52h3.368a2.586 2.586 0 002.427-1.621c.415-1 .197-2.097-.57-2.863l-2.38-2.38a.52.52 0 010-.736l3.035-3.036a.52.52 0 01.736 0l2.38 2.381a2.586 2.586 0 002.863.57 2.584 2.584 0 001.621-2.427V1.853a.52.52 0 01.52-.52h4.293a.52.52 0 01.52.52v3.368c0 1.083.622 2.013 1.622 2.427a2.585 2.585 0 002.863-.57l2.38-2.38a.52.52 0 01.736 0l3.036 3.035a.52.52 0 010 .736L28.92 10.85a2.586 2.586 0 00-.569 2.863 2.586 2.586 0 002.427 1.621h3.368a.52.52 0 01.52.52v4.293z" fill="#C3CAD6"/><path d="M18 12c-3.309 0-6 2.691-6 6s2.691 6 6 6 6-2.691 6-6-2.691-6-6-6zm0 10.667A4.673 4.673 0 0113.333 18 4.673 4.673 0 0118 13.333 4.673 4.673 0 0122.667 18 4.673 4.673 0 0118 22.667z" fill="#C3CAD6"/></svg>