<svg width="24" height="24" fill="none" xmlns="http://www.w3.org/2000/svg"><path d="M19.61 6.75a.752.752 0 01-.75-.75.75.75 0 011.5 0c0 .413-.338.75-.75.75zm2.12-2.37a.502.502 0 01-.354-.146c-.945-.945-2.588-.945-3.533 0a.5.5 0 01-.706-.707c1.323-1.324 3.622-1.324 4.947 0a.5.5 0 01-.354.853z"/><path d="M23.5 2.61a.502.502 0 01-.353-.146A4.968 4.968 0 0019.61 1c-1.337 0-2.593.52-3.537 1.464a.5.5 0 01-.707-.707A5.962 5.962 0 0119.611 0a5.96 5.96 0 014.243 1.757.5.5 0 01-.353.853zM13.001 18c-1.103 0-2-.897-2-2s.897-2 2-2 2 .897 2 2-.897 2-2 2zm0-3a1 1 0 100 2 1 1 0 000-2zm-6 3c-1.103 0-2-.897-2-2s.897-2 2-2 2 .897 2 2-.897 2-2 2zm0-3a1 1 0 100 2 1 1 0 000-2z"/><path d="M15.501 24h-11a2.502 2.502 0 01-2.5-2.5v-8c0-1.379 1.121-2.5 2.5-2.5h11c1.379 0 2.5 1.121 2.5 2.5v8c0 1.379-1.121 2.5-2.5 2.5zm-11-12c-.827 0-1.5.673-1.5 1.5v8c0 .827.673 1.5 1.5 1.5h11c.827 0 1.5-.673 1.5-1.5v-8c0-.827-.673-1.5-1.5-1.5h-11z"/><path d="M10.001 12a.5.5 0 01-.5-.5v-3a.5.5 0 011 0v3a.5.5 0 01-.5.5zm2.498 9h-5a.5.5 0 010-1h5a.5.5 0 010 1z"/><path d="M10.001 9c-1.103 0-2-.897-2-2s.897-2 2-2 2 .897 2 2-.897 2-2 2zm0-3a1 1 0 100 2 1 1 0 000-2zM2.5 18h-2a.5.5 0 010-1h2a.5.5 0 010 1zm17.001 0h-2a.5.5 0 010-1h2a.5.5 0 010 1z"/><path d="M.5 20a.5.5 0 01-.5-.5v-4a.5.5 0 011 0v4a.5.5 0 01-.5.5zm18.999 0a.5.5 0 01-.5-.5v-4a.5.5 0 011 0v4a.5.5 0 01-.5.5z"/></svg>