<svg width="22" height="22" fill="none" xmlns="http://www.w3.org/2000/svg"><path fill-rule="evenodd" clip-rule="evenodd" d="M2.822 2.868a11.45 11.45 0 00-.757.979l4.636 2.79L16.598.665c-.402-.249-.82-.47-1.254-.665L6.701 5.198l-3.879-2.33zm-1.9 3.065c.16-.378.338-.746.534-1.101L6.7 7.982 17.647 1.4c.339.269.663.557.97.864L6.728 9.436.922 5.933zM11 22c6.075 0 11-5.133 11-11.464 0-1.904-.445-3.699-1.233-5.278l-14.091 8.48-6.65-3.993a12.19 12.19 0 00-.026.79C0 16.868 4.925 22 11 22zm8.446-18.81c.257.32.497.656.72 1.005l-13.49 8.081L.192 8.39c.08-.438.183-.867.309-1.285l6.228 3.755 12.717-7.67z" fill="#fff"/></svg>