<svg width="36" height="36" fill="none" xmlns="http://www.w3.org/2000/svg"><path d="M27 15H12a.6.6 0 100 1.2h15a.6.6 0 100-1.2zm-15-3.6h6a.6.6 0 100-1.2h-6a.6.6 0 100 1.2zm15 8.4H12a.6.6 0 100 1.2h15a.6.6 0 100-1.2zm0 4.8H12a.6.6 0 100 1.2h15a.6.6 0 100-1.2zm0 4.8H12a.6.6 0 100 1.2h15a.6.6 0 100-1.2z" fill="#C3CAD6"/><path d="M29.4 8.752V0H3.6v33h3v3h25.8V11.752l-3-3zM24 5.048l5.4 5.4.952.952H24V5.048zM4.8 31.8V1.2h23.4v6.352L23.648 3H6.6v28.8H4.8zm3 3V4.2h15v8.4h8.4v22.2H7.8z" fill="#C3CAD6"/></svg>