<svg width="26" height="34" fill="none" xmlns="http://www.w3.org/2000/svg"><path d="M2.59 33.469h20.74c1.077 0 1.898-.408 2.314-1.131.417-.727.34-1.69-.21-2.635l-8.55-14.808V3.797h.461c1.186 0 2.114-.831 2.114-1.899C19.46.831 18.494 0 17.26 0h-8.6c-1.233 0-2.2.831-2.2 1.898 0 1.068.91 1.899 2.072 1.899h.479v11.098l-5.524 9.577a.493.493 0 00-.065.112L.474 29.697c-.55.942-.625 1.909-.207 2.636.411.716 1.258 1.136 2.322 1.136zm7.34-18.195a.497.497 0 00.065-.247V3.315a.501.501 0 00-.492-.502h-.971c-.61 0-1.087-.399-1.087-.915 0-.506.545-.914 1.215-.914h8.6c.67 0 1.216.408 1.216.914 0 .516-.496.915-1.13.915h-.953a.501.501 0 00-.492.502v11.712c0 .087.023.172.066.247l1.615 2.796H8.317l1.612-2.796zm-8.604 14.9l1.05-1.838H4.16a.492.492 0 100-.984H2.944l1.224-2.11h1.749a.492.492 0 000-.984H4.735l1.224-2.11h1.786a.492.492 0 100-.984H6.526l1.224-2.11h10.4l6.434 11.14c.37.633.445 1.241.207 1.654-.232.405-.75.636-1.46.636H2.59c-.712 0-1.234-.242-1.468-.65-.238-.413-.164-1.028.205-1.66z" fill="#C3CAD6"/></svg>