<svg width="110" height="110" fill="none" xmlns="http://www.w3.org/2000/svg"><path d="M98.396 6.774c-.578-1.503-2.796-1.833-3.814-.752a25.172 25.172 0 01-16.66 6.284 25.143 25.143 0 01-21.006-11.28 2.291 2.291 0 00-3.817-.004 25.184 25.184 0 01-21.02 11.28 25.143 25.143 0 01-16.802-6.417 2.294 2.294 0 00-3.823 1.705v49.697c0 28.618 40.7 51.466 42.433 52.424.344.193.729.289 1.11.289.38 0 .765-.096 1.108-.28 1.733-.958 42.433-23.81 42.433-52.424v-49.5a2.368 2.368 0 00-.142-1.022zm-4.442 50.518c0 23.453-32.49 43.926-38.958 47.767-6.472-3.841-38.958-24.291-38.958-47.767V12.205A29.76 29.76 0 0032.08 16.89 29.72 29.72 0 0054.996 6.128 29.737 29.737 0 0077.922 16.89a29.763 29.763 0 0016.033-4.68v45.082z" fill="#2BC584"/><path d="M70.378 41.924a2.293 2.293 0 00-3.24 0l-16.725 16.71-7.535-7.544a2.293 2.293 0 00-3.24 0 2.293 2.293 0 000 3.24l9.148 9.168c.43.426 1.013.669 1.622.669a2.29 2.29 0 001.618-.67l18.352-18.333a2.293 2.293 0 000-3.24z" fill="#2BC584"/></svg>