<svg width="29" height="36" fill="none" xmlns="http://www.w3.org/2000/svg"><path d="M19.448 0H0v36h28.2V8.752L19.448 0zm.352 2.048L26.152 8.4H19.8V2.048zM1.2 34.8V1.2h17.4v8.4H27v25.2H1.2z" fill="#C3CAD6"/><path d="M21.6 12.6H12a.6.6 0 100 1.2h9.6a.6.6 0 100-1.2zM9.825 10.931l-2.58 2.065-.82-.82a.6.6 0 10-.85.848l1.2 1.2a.599.599 0 00.8.045l3-2.4a.6.6 0 00-.75-.938zM21.6 19.2H12a.6.6 0 100 1.2h9.6a.6.6 0 100-1.2zM9.825 17.531l-2.58 2.065-.82-.82a.6.6 0 10-.85.848l1.2 1.2a.599.599 0 00.8.044l3-2.4a.6.6 0 00-.75-.937zM21.6 25.8H12a.6.6 0 100 1.2h9.6a.6.6 0 100-1.2zM9.825 24.131l-2.58 2.065-.82-.82a.6.6 0 10-.85.848l1.2 1.2a.599.599 0 00.8.045l3-2.4a.6.6 0 00-.75-.938z" fill="#C3CAD6"/></svg>