<svg width="36" height="36" fill="none" xmlns="http://www.w3.org/2000/svg"><path d="M34.875 32.063h-.563V22.78a1.971 1.971 0 00-1.968-1.968h-.563a1.972 1.972 0 00-1.948 1.687h-1.145v-1.125a.562.562 0 00-.563-.563H16.312a.562.562 0 00-.562.563V22.5h-1.125v-1.406a1.971 1.971 0 00-1.969-1.969H8.72a1.971 1.971 0 00-1.969 1.969V22.5h-.563v-5.344a1.97 1.97 0 00-1.968-1.968h-.563a1.971 1.971 0 00-1.969 1.968v14.907h-.562a.563.563 0 000 1.124h33.75a.562.562 0 100-1.124zm-29.813 0h-2.25V17.155a.844.844 0 01.844-.843h.563a.844.844 0 01.843.843v14.907zm11.813-10.126h10.688v7.594a.845.845 0 01-.844.844h-9a.845.845 0 01-.844-.844v-7.593zm-9-.843a.845.845 0 01.844-.844h3.937a.845.845 0 01.844.844V22.5H7.875v-1.406zm-1.688 2.531h9.563v5.625H6.187v-5.625zm23.625 8.438H6.188v-1.688h9.753A1.971 1.971 0 0017.72 31.5h9a1.97 1.97 0 001.778-1.125h1.316v1.688zm0-2.813h-1.125v-5.625h1.125v5.625zm3.375 2.813h-2.25V22.78a.844.844 0 01.844-.843h.563a.844.844 0 01.843.843v9.282zM13.5 13.5a.562.562 0 00.563.563h1.08l-1.52 1.898a.563.563 0 00.44.914h2.25a.562.562 0 100-1.125h-1.08l1.519-1.898a.563.563 0 00-.44-.915h-2.25a.562.562 0 00-.562.563zm5.625-5.062h1.08l-1.52 1.898a.563.563 0 00.44.914h2.25a.563.563 0 000-1.125h-1.08l1.52-1.898a.562.562 0 00-.44-.915h-2.25a.562.562 0 100 1.125zm-6.75-3.375h1.08l-1.52 1.898a.563.563 0 00.44.914h2.25a.562.562 0 100-1.125h-1.08l1.52-1.898a.563.563 0 00-.44-.915h-2.25a.562.562 0 100 1.126z" fill="#C3CAD6"/></svg>