<svg width="36" height="36" fill="none" xmlns="http://www.w3.org/2000/svg"><path d="M33.47 4.8H2.53A2.533 2.533 0 000 7.33v21.34a2.533 2.533 0 002.53 2.53h30.94A2.533 2.533 0 0036 28.67V7.33a2.533 2.533 0 00-2.53-2.53zm1.33 23.87A1.33 1.33 0 0133.47 30H2.53a1.33 1.33 0 01-1.33-1.33V7.33C1.2 6.596 1.796 6 2.53 6h30.94c.734 0 1.33.596 1.33 1.33v21.34z" fill="#C3CAD6"/><path d="M13.583 21.748L11.4 20.633V20.4c.977-.534 1.664-1.412 2.047-2.619.582-.308.953-.909.953-1.582v-.6c0-.556-.259-1.071-.69-1.41-.375-2.267-1.958-3.417-4.71-3.417-.13 0-.257.005-.382.014-.518.043-1.277-.002-1.934-.444a2.46 2.46 0 01-.549-.475.715.715 0 00-.841-.224.712.712 0 00-.44.748c.025.224.062.485.12.772.115.585.115.585-.047.934-.062.133-.137.294-.226.512a6.7 6.7 0 00-.42 1.588A1.79 1.79 0 003.6 15.6v.6c0 .673.371 1.274.953 1.582.383 1.207 1.07 2.086 2.047 2.619v.225l-2.261 1.115A2.566 2.566 0 003 23.996v.795c0 .482 0 1.609 6 1.609s6-1.127 6-1.61v-.746c0-.979-.543-1.858-1.417-2.296zm.217 2.907c-.374.228-1.897.545-4.8.545-2.903 0-4.426-.317-4.8-.545v-.66c0-.5.273-.961.691-1.188l2.314-1.141c.362-.176.594-.55.594-.953v-1.082l-.362-.156c-.91-.392-1.502-1.14-1.809-2.288l-.086-.32-.315-.098A.606.606 0 014.8 16.2v-.6a.6.6 0 01.325-.526l.281-.15.033-.317c.06-.563.185-1.082.373-1.542.08-.195.148-.34.203-.46.203-.437.277-.663.226-1.125.706.403 1.554.575 2.473.504.093-.007.189-.011.287-.011 2.246 0 3.343.814 3.557 2.639l.037.313.28.148a.6.6 0 01.325.527v.6c0 .257-.176.49-.427.568l-.316.099-.086.32c-.307 1.147-.898 1.895-1.809 2.288l-.362.156v1.087c0 .401.222.763.578.945l2.265 1.157c.467.233.757.702.757 1.224v.611zM18 13.8h6a.6.6 0 100-1.2h-6a.6.6 0 100 1.2zm8.4 0h.6a.6.6 0 100-1.2h-.6a.6.6 0 100 1.2zm-7.8 9H18a.6.6 0 100 1.2h.6a.6.6 0 100-1.2zm3.6 0H21a.6.6 0 100 1.2h1.2a.6.6 0 100-1.2zm3 0h-.6a.6.6 0 100 1.2h.6a.6.6 0 100-1.2zm3.6 0h-1.2a.6.6 0 100 1.2h1.2a.6.6 0 100-1.2zm1.974.174a.627.627 0 00-.174.426.63.63 0 00.174.426.63.63 0 00.426.174.63.63 0 00.426-.174.63.63 0 00.174-.426.63.63 0 00-.174-.426.628.628 0 00-.852 0zM31.2 16.2H18a.6.6 0 100 1.2h13.2a.6.6 0 100-1.2zm0 3.6H18a.6.6 0 100 1.2h13.2a.6.6 0 100-1.2z" fill="#C3CAD6"/></svg>