<svg width="36" height="37" fill="none" xmlns="http://www.w3.org/2000/svg"><path fill-rule="evenodd" clip-rule="evenodd" d="M36 18.965c0 9.944-8.059 18.005-18 18.005S0 28.91 0 18.965C0 9.02 8.059.959 18 .959S36 9.02 36 18.965zm-23.946-1.65c-1.803.788-3.656 1.597-5.35 2.53-.885.648.29 1.107 1.394 1.537.175.068.349.135.512.203l.413.13c1.227.391 2.595.827 3.786.171 1.956-1.124 3.803-2.424 5.648-3.722.604-.426 1.208-.851 1.816-1.27.029-.018.06-.04.096-.062.518-.336 1.683-1.091 1.252-.05-1.019 1.114-2.11 2.1-3.207 3.093a69.47 69.47 0 00-2.207 2.053c-.63.513-1.286 1.545-.58 2.263 1.628 1.14 3.281 2.251 4.933 3.363.537.362 1.075.723 1.611 1.086.91.726 2.33.138 2.53-.996l.268-1.566c.493-2.885.986-5.77 1.422-8.664.06-.454.126-.908.194-1.362.162-1.1.325-2.202.376-3.309-.13-1.104-1.47-.861-2.214-.613-3.83 1.457-7.62 3.023-11.396 4.616-.427.19-.86.379-1.297.57z" fill="#4E95EE"/></svg>