<svg width="26" height="26" fill="none" xmlns="http://www.w3.org/2000/svg"><path d="M13.708 16.462a1.542 1.542 0 001.13-.632l4.057-5.61a.433.433 0 00-.605-.605l-5.61 4.059a1.541 1.541 0 00-.184 2.34 1.54 1.54 0 001.212.448zm-.795-1.592a.676.676 0 01.276-.495l3.422-2.476-2.475 3.421a.678.678 0 01-1.223-.45z" fill="#C3CAD6"/><path d="M23.415 8.478c-.005-.01-.005-.019-.01-.028-.005-.009-.013-.013-.018-.022a11.779 11.779 0 00-1.545-2.084l.93-.93.613.613 1.838-1.839-1.838-1.838-1.838 1.838.613.613-.93.93a11.77 11.77 0 00-2.085-1.545c-.008-.005-.013-.013-.021-.019-.01-.005-.02-.004-.028-.01a11.618 11.618 0 00-4.452-1.474v-.516h.65a1.084 1.084 0 000-2.167h-3.9a1.084 1.084 0 000 2.167h.65v.5c-.468.05-.935.127-1.397.232a.433.433 0 10.193.845c.399-.091.802-.16 1.205-.207l.465-.036c.142-.01.273-.018.4-.024v.856a.433.433 0 10.867 0V3.48a10.75 10.75 0 014.531 1.233l-.427.74a.433.433 0 00.75.433l.426-.738a10.918 10.918 0 013.368 3.367l-.738.426a.433.433 0 00.434.75l.74-.426a10.756 10.756 0 011.235 4.601h-.856a.433.433 0 100 .867h.856a10.756 10.756 0 01-1.235 4.601l-.74-.427a.433.433 0 10-.433.75l.738.427a10.917 10.917 0 01-3.368 3.368l-.426-.738a.433.433 0 10-.75.433l.427.74a10.749 10.749 0 01-4.531 1.232v-.852a.433.433 0 10-.867 0v.856a10.938 10.938 0 01-2.07-.267.433.433 0 10-.194.845c.866.198 1.75.299 2.626.299l.063-.002.008.002.01-.002a11.624 11.624 0 005.728-1.549c.013-.006.028-.009.04-.016.01-.006.014-.014.022-.02a11.787 11.787 0 004.235-4.23c.008-.01.019-.02.026-.033.005-.01.005-.019.01-.028a11.617 11.617 0 001.558-5.822 11.62 11.62 0 00-1.558-5.822zm-.03-4.903l.613.613-.613.613-.613-.613.613-.613zM12.91 2.61V1.3h-1.516a.217.217 0 01-.217-.217c0-.119.098-.216.217-.216h3.9a.216.216 0 010 .433h-1.517v1.31a9.3 9.3 0 00-.433-.01h-.071c-.071 0-.142.005-.213.006-.05.001-.098 0-.15.003zM9.444 6.067H7.277a.433.433 0 100 .866h2.167a.433.433 0 100-.866zm0 3.033H5.11a.433.433 0 100 .867h4.334a.433.433 0 100-.867zm0 3.033h-6.5a.433.433 0 100 .867h6.5a.433.433 0 100-.867zm0 3.034H1.21a.433.433 0 100 .866h8.234a.433.433 0 100-.866zm0 3.033H3.81a.433.433 0 100 .867h5.633a.433.433 0 100-.867zm0 3.033H6.41a.433.433 0 100 .867h3.034a.433.433 0 100-.867z" fill="#C3CAD6"/></svg>