<svg width="36" height="36" fill="none" xmlns="http://www.w3.org/2000/svg"><path d="M34.8 17.503V9c0-.992-.808-1.8-1.8-1.8h-3.604l-1.941-5.248a.602.602 0 00-.779-.352l-2.815 1.083-1.498-2.4a.604.604 0 00-.373-.268.61.61 0 00-.453.076L10.139 7.2H3c-1.654 0-3 1.346-3 3V33c0 1.654 1.346 3 3 3h30c.992 0 1.8-.808 1.8-1.8v-8.503A1.803 1.803 0 0036 24v-4.8c0-.782-.502-1.45-1.2-1.697zM28.118 7.2H15.467l8.35-3.213.016-.007 2.708-1.042L28.118 7.2zm-6.455-5.773l1.057 1.695-9.855 3.793 8.798-5.488zM33 34.8H3c-.992 0-1.8-.808-1.8-1.8V10.2c0-.992.808-1.8 1.8-1.8h30a.6.6 0 01.6.6v8.4h-3a4.205 4.205 0 00-4.2 4.2c0 2.315 1.885 4.2 4.2 4.2h3v8.4a.6.6 0 01-.6.6zM34.8 24a.6.6 0 01-.6.6h-3.6c-1.654 0-3-1.346-3-3s1.346-3 3-3h3.6a.6.6 0 01.6.6V24z" fill="#C3CAD6"/><path d="M32.4 21H30a.6.6 0 100 1.2h2.4a.6.6 0 100-1.2z" fill="#C3CAD6"/></svg>