<svg width="19" height="19" fill="none" xmlns="http://www.w3.org/2000/svg"><path fill-rule="evenodd" clip-rule="evenodd" d="M1.37 17.625l3.367-.884.325.193a8.88 8.88 0 004.528 1.24h.003c4.903 0 8.894-3.992 8.896-8.899a8.847 8.847 0 00-2.603-6.295A8.834 8.834 0 009.596.37C4.69.37.7 4.362.697 9.268c0 1.682.47 3.32 1.361 4.736l.211.337-.898 3.284zm13.25-6.044c.186.09.312.151.366.24.066.113.066.648-.156 1.273-.223.625-1.292 1.195-1.806 1.272-.46.07-1.043.098-1.684-.106a15.356 15.356 0 01-1.525-.563c-2.507-1.083-4.201-3.514-4.522-3.974a3.244 3.244 0 00-.046-.066l-.003-.003c-.141-.189-1.09-1.454-1.09-2.764 0-1.233.606-1.879.884-2.176l.053-.056a.982.982 0 01.713-.335c.178 0 .356.002.512.01h.06c.156 0 .35-.002.542.459.074.177.182.44.295.717.23.56.485 1.18.53 1.27.066.133.111.29.022.468l-.038.076a1.511 1.511 0 01-.23.37l-.137.165c-.092.112-.184.224-.264.304-.134.133-.273.278-.117.546.156.268.693 1.144 1.488 1.853a6.907 6.907 0 001.974 1.248c.073.032.133.058.176.08.268.134.424.111.58-.067.156-.179.669-.781.847-1.05.178-.267.356-.222.601-.133.246.09 1.56.737 1.828.87.052.027.101.05.146.072z" fill="#4AA168"/></svg>