<svg width="48" height="48" fill="none" xmlns="http://www.w3.org/2000/svg"><path d="M47.011 12.477a6.014 6.014 0 00-4.23-4.23C39.024 7.219 24 7.219 24 7.219s-15.025 0-18.781.989c-2.017.553-3.677 2.214-4.23 4.27C0 16.232 0 24.023 0 24.023s0 7.828.988 11.545a6.015 6.015 0 004.231 4.23C9.015 40.828 24 40.828 24 40.828s15.025 0 18.782-.99a6.014 6.014 0 004.23-4.23C48 31.851 48 24.062 48 24.062s.04-7.829-.989-11.585z" fill="#C3CAD6"/><path d="M19.216 31.219l12.494-7.196-12.494-7.196v14.392z" fill="#fff"/></svg>