<svg width="126" height="66" fill="none" xmlns="http://www.w3.org/2000/svg"><path d="M115.188 54.813c0 3.37-2.8 6.131-6.189 6.131h-92.02c-3.388 0-6.166-2.76-6.166-6.13V11.186c0-3.382 2.777-6.142 6.167-6.142h92.03c3.389 0 6.189 2.76 6.189 6.142v43.626h-.011z" fill="#E30613"/><path d="M57.028 45.511c.122-1.241.733-3.714 3.623-3.603 2.3 0 3.244 2.03 3.378 3.603h-7.001zm10.179.898c0-3.603-2.445-7.339-6.545-7.339-4.467 0-6.812 3.87-6.812 7.683 0 3.548 1.822 7.683 6.945 7.683 2.8 0 6.112-1.796 6.112-3.315 0-.942-.645-1.44-1.256-1.44-.433 0-.811.287-1.233.62-.712.554-1.678 1.308-3.6 1.308-2.157 0-3.623-1.408-3.79-3.547h8.456c1.178 0 1.723-.522 1.723-1.652zm33.358 5.2c-2.6 0-3.522-2.616-3.522-4.856 0-2.24.922-4.856 3.522-4.856 2.6 0 3.534 2.617 3.534 4.856 0 2.25-.923 4.856-3.534 4.856zm0-12.528c-4.378 0-6.678 3.87-6.678 7.683 0 3.814 2.3 7.683 6.678 7.683 4.389 0 6.679-3.869 6.679-7.683 0-3.825-2.29-7.683-6.679-7.683zm-24.88 2.816c.834 0 1.278.21 1.69.41.344.167.7.333 1.188.333.811 0 1.356-.72 1.356-1.386 0-1.308-1.7-2.195-4.234-2.195-4.722 0-6.834 3.858-6.834 7.683 0 3.825 2.112 7.683 6.834 7.683 2.734 0 4.156-1.13 4.156-2.24 0-.83-.522-1.385-1.311-1.385-.4 0-.711.155-1.022.333-.434.221-.912.465-1.823.465-2.9 0-3.678-3.049-3.678-4.856 0-1.785.778-4.845 3.678-4.845zm-43.882-6.053c-.244-.621-.677-1.763-2.044-1.763-1.356 0-1.778 1.086-2.034 1.73-.01.022-2.255 6.042-4.022 10.765h-3.378c-1.19 0-1.6.743-1.6 1.386 0 .665.422 1.374 1.6 1.374h2.344c-.622 1.663-1.044 2.783-1.044 2.783-.1.255-.222.666-.222 1.01 0 .664.5 1.34 1.444 1.34 1 0 1.322-.653 1.556-1.13l.055-.111 1.267-3.426s.078-.21.167-.477h3.89c1.188 0 1.61-.71 1.61-1.374 0-.643-.422-1.386-1.61-1.386h-2.879c.756-2.051 2.1-5.721 2.856-7.75.8 2.173 3.39 9.224 3.4 9.224l.634 1.752c0 .011 1.255 3.404 1.255 3.404.167.41.49 1.264 1.623 1.264.955 0 1.455-.677 1.455-1.342 0-.332-.122-.743-.233-1.02-.011.022-6.09-16.253-6.09-16.253zm56.406 6.053c.833 0 1.266.21 1.688.41.345.167.7.333 1.178.333.812 0 1.356-.72 1.356-1.386 0-1.308-1.7-2.195-4.234-2.195-4.722 0-6.845 3.858-6.845 7.683 0 3.825 2.123 7.683 6.845 7.683 2.723 0 4.156-1.13 4.156-2.24 0-.83-.522-1.385-1.31-1.385-.4 0-.701.155-1.034.333-.434.221-.912.465-1.812.465-2.911 0-3.689-3.049-3.689-4.856.022-1.785.79-4.845 3.7-4.845zM45.37 51.61c-2.6 0-3.522-2.616-3.522-4.856 0-2.24.922-4.856 3.522-4.856 2.6 0 3.523 2.617 3.523 4.856 0 2.25-.922 4.856-3.523 4.856zm4.856-18.803c-.944 0-1.577.665-1.577 1.652v5.965a5.124 5.124 0 00-3.468-1.353c-4.255 0-6.489 3.87-6.489 7.683 0 3.814 2.223 7.683 6.49 7.683 1.544 0 2.722-.443 3.533-1.297.145.776.7 1.297 1.523 1.297.944 0 1.577-.665 1.577-1.651V34.469c-.01-.998-.644-1.663-1.589-1.663z" fill="#fff"/></svg>