<svg width="136" height="71" fill="none" xmlns="http://www.w3.org/2000/svg"><g fill="#020203"><path d="M116.87 44.284H15.568v.787H116.87v-.787z"/><path fill-rule="evenodd" clip-rule="evenodd" d="M40.048 63.534c-.851.918-1.955 1.312-3.178 1.312-1.224 0-2.327-.394-3.179-1.181-1.103-1.18-1.103-2.361-1.103-4.973 0-2.493 0-3.662 1.103-4.843.852-.787 1.955-1.18 3.179-1.18 2.327 0 3.91 1.443 4.282 3.53h-1.344c-.371-1.443-1.463-2.493-2.938-2.493-.852 0-1.595.394-2.087.919-.732.787-.852 1.574-.852 4.055 0 2.612.12 3.399.852 4.186a2.864 2.864 0 002.087.918c.851 0 1.715-.393 2.327-1.05.491-.655.611-1.311.611-2.23v-.918H36.87v-1.18h4.27v1.955c0 1.467-.24 2.386-1.092 3.173zM52.4 53.85h-3.178v4.448h3.179c1.475 0 2.446-.787 2.446-2.23s-.983-2.219-2.446-2.219zm2.447 10.984l-2.686-5.367h-2.939v5.367H47.88V52.669h4.654c2.206 0 3.67 1.312 3.67 3.399 0 1.836-1.104 2.874-2.687 3.268l2.939 5.498h-1.608zm13.949-10.209c-.611-.525-1.343-.919-2.074-.919-.852 0-1.596.394-2.207.919-.732.787-.852 1.574-.852 4.055 0 2.612.12 3.399.852 4.186.611.525 1.343.918 2.207.918.731 0 1.463-.393 2.075-.918.731-.787.851-1.574.851-4.186 0-2.481-.12-3.268-.852-4.055zm.972 9.04a4.497 4.497 0 01-3.058 1.18c-1.344 0-2.327-.393-3.179-1.18-1.103-1.18-1.103-2.361-1.103-4.973 0-2.493 0-3.662 1.103-4.843.852-.787 1.835-1.18 3.179-1.18 1.103 0 2.207.393 3.058 1.18 1.103 1.181 1.103 2.362 1.103 4.843 0 2.611 0 3.792-1.103 4.973zm11.994 1.169c-2.447 0-4.281-1.575-4.281-4.055v-8.11h1.343v7.979c0 1.836 1.223 3.136 2.938 3.136 1.835 0 2.939-1.312 2.939-3.136v-7.98h1.343v8.11c0 2.494-1.835 4.056-4.282 4.056zM97.546 53.85h-3.178v4.842h3.178c1.464 0 2.567-.788 2.567-2.493 0-1.574-1.091-2.35-2.567-2.35zm.12 6.01h-3.298v4.974h-1.224V52.669h4.522c2.207 0 3.79 1.443 3.79 3.53.012 2.23-1.583 3.661-3.79 3.661zm21.938-48.744c-.887 0-1.607.727-1.607 1.622 0 .894.72 1.622 1.607 1.622.888 0 1.62-.728 1.62-1.622 0-.895-.732-1.622-1.62-1.622zm0 3.518a1.9 1.9 0 01-1.907-1.896c0-1.05.864-1.897 1.907-1.897 1.056 0 1.907.847 1.907 1.897.012 1.05-.851 1.896-1.907 1.896z"/><path fill-rule="evenodd" clip-rule="evenodd" d="M119.664 11.95h-.396v.74h.396c.228 0 .396-.155.396-.358 0-.226-.156-.381-.396-.381zm.408 1.825l-.48-.858h-.312v.858h-.288V11.7h.708c.36 0 .659.275.659.62 0 .298-.191.49-.443.573l.491.894h-.335v-.012zm-6.993 20.359c-5.218 0-8.324-2.647-8.516-6.416h4.917c0 1.169.744 2.898 3.911 2.958 2.11 0 3.106-1.229 3.106-2.16-.12-1.49-1.991-1.61-3.982-1.92-1.979-.31-3.658-.68-4.906-1.3-1.547-.799-2.602-2.516-2.602-4.508 0-3.34 2.914-5.987 7.76-5.987 4.725 0 7.712 2.469 8.012 6.118h-4.714c-.072-.99-.252-2.528-3.046-2.528-1.859 0-3.095.37-3.227 1.658 0 1.932 3.91 1.8 6.969 2.6 2.926.74 4.773 2.528 4.773 5.069 0 4.615-3.79 6.416-8.455 6.416zm-25.715-9.696c0 2.898 2.482 5.307 5.409 5.307 2.926 0 5.337-2.409 5.337-5.307 0-2.898-2.41-5.38-5.337-5.38-2.927-.011-5.41 2.47-5.41 5.38zm5.205 9.696c-5.325 0-9.751-4.389-9.751-9.696 0-5.38 4.414-9.649 9.75-9.649 2.052 0 3.983.56 5.542 1.67v-1.49h4.654v18.724H98.11v-1.24c-1.56 1.061-3.406 1.681-5.541 1.681zm-26.71-9.696c0 2.898 2.482 5.307 5.337 5.307 2.986 0 5.457-2.409 5.457-5.307 0-2.898-2.483-5.38-5.457-5.38-2.855-.011-5.338 2.47-5.338 5.38zM76.664 8.61h4.606v25.082h-4.606v-1.24c-1.547 1.061-3.478 1.67-5.59 1.67-5.337 0-9.75-4.39-9.75-9.697 0-5.379 4.413-9.649 9.75-9.649 2.112 0 3.995.56 5.59 1.67V8.611zm-17.2 25.082H54.8V14.968h4.666v18.725zm-22.512-9.255c0 2.898 2.482 5.307 5.469 5.307 2.927 0 5.421-2.409 5.421-5.307 0-2.898-2.494-5.38-5.421-5.38-2.974-.011-5.47 2.47-5.47 5.38zm5.361 9.696c-5.41 0-9.835-4.389-9.835-9.696 0-5.38 4.426-9.649 9.835-9.649 2.051 0 3.91.56 5.541 1.67V8.61h4.654v25.082h-4.654v-1.24c-1.63 1.061-3.49 1.681-5.54 1.681zm-26.927-9.696c0 2.898 2.495 5.307 5.422 5.307 2.974 0 5.47-2.409 5.47-5.307 0-2.898-2.496-5.38-5.47-5.38-2.927-.011-5.422 2.47-5.422 5.38zm5.29 9.696c-5.337 0-9.751-4.389-9.751-9.696 0-5.38 4.414-9.649 9.75-9.649 2.052 0 3.983.56 5.602 1.67v-1.49h4.594v18.724h-4.594v-1.24c-1.56 1.061-3.478 1.681-5.601 1.681zM54.8 13.251V8.61h4.666v4.628H54.8v.012z"/></g></svg>