<svg width="130" height="129" viewBox="0 0 491 473" fill="#fff" xmlns="http://www.w3.org/2000/svg"><path d="M378 236.5c0-73.058-59.442-132.5-132.5-132.5-73.058 0-132.5 59.442-132.5 132.5 0 38.589 16.594 73.371 43.007 97.607l-.125.11 4.298 3.624c.279.236.583.429.862.66a133.376 133.376 0 007.059 5.43c.78.564 1.561 1.127 2.356 1.677a135.151 135.151 0 007.911 5.049c.588.347 1.181.684 1.773 1.022a132.406 132.406 0 009.059 4.721c.226.106.457.203.684.309a131.299 131.299 0 0032.045 10.142l.887.159c3.488.602 7.015 1.084 10.586 1.407.433.039.867.063 1.305.101 3.556.294 7.15.482 10.793.482 3.609 0 7.169-.188 10.706-.472.448-.039.896-.063 1.344-.101 3.542-.323 7.04-.791 10.494-1.383.299-.053.603-.106.901-.164a131.288 131.288 0 0031.593-9.901c.366-.169.737-.328 1.103-.501a133.574 133.574 0 0010.841-5.729 132.801 132.801 0 007.618-4.818c.891-.608 1.763-1.248 2.645-1.884a132.412 132.412 0 006.211-4.737c.448-.361.93-.674 1.368-1.045l4.409-3.681-.13-.111C361.247 310.228 378 275.286 378 236.5zm-255.364 0c0-67.748 55.116-122.864 122.864-122.864S368.364 168.752 368.364 236.5c0 36.507-16.021 69.329-41.384 91.849-1.416-.978-2.842-1.855-4.302-2.587l-40.796-20.396a10.68 10.68 0 01-5.936-9.602v-14.248a79.583 79.583 0 002.973-3.936c5.281-7.459 9.516-15.756 12.604-24.684 6.105-2.9 10.046-8.981 10.046-15.847v-17.08c0-4.178-1.532-8.23-4.274-11.414v-22.487c.251-2.501 1.138-16.613-9.072-28.254-8.88-10.137-23.253-15.269-42.723-15.269s-33.843 5.132-42.723 15.264c-10.21 11.641-9.323 25.754-9.072 28.254v22.487c-2.737 3.185-4.274 7.237-4.274 11.414v17.08c0 5.305 2.38 10.254 6.456 13.593 3.903 15.288 11.935 26.861 14.903 30.783v13.944c0 3.931-2.144 7.545-5.599 9.434l-38.097 20.781a34.95 34.95 0 00-3.624 2.293c-25.049-22.511-40.834-55.13-40.834-91.372zm194.939 99.409a122.104 122.104 0 01-5.141 3.541c-.8.52-1.595 1.041-2.409 1.547a121.152 121.152 0 01-6.948 3.999c-.52.274-1.045.535-1.57.804a122.754 122.754 0 01-16.806 7.112c-.203.068-.405.14-.612.207a123.317 123.317 0 01-9.174 2.66c-.01 0-.019.005-.029.005a123.63 123.63 0 01-9.463 1.937c-.087.014-.173.033-.26.048a123.58 123.58 0 01-9.034 1.103c-.535.048-1.07.082-1.609.121-2.992.226-5.999.371-9.02.371-3.055 0-6.1-.15-9.13-.376-.526-.039-1.051-.072-1.571-.121a124.45 124.45 0 01-9.107-1.122l-.404-.073a122.28 122.28 0 01-18.743-4.678l-.569-.193a124.841 124.841 0 01-8.971-3.435c-.019-.01-.043-.019-.063-.029-2.785-1.2-5.516-2.53-8.215-3.932-.351-.183-.708-.356-1.055-.544a123.522 123.522 0 01-7.246-4.221c-.704-.443-1.402-.891-2.096-1.344a122.675 122.675 0 01-6.447-4.495c-.217-.164-.424-.338-.641-.502l.463-.26 38.097-20.781a20.374 20.374 0 0010.624-17.894l-.005-17.355-1.108-1.34c-.106-.12-10.523-12.792-14.459-29.95l-.439-1.908-1.643-1.064c-2.317-1.499-3.705-4.004-3.705-6.707v-17.081c0-2.24.949-4.327 2.684-5.892l1.59-1.436v-26.838l-.043-.631c-.015-.115-1.436-11.703 6.726-21.007 6.967-7.94 18.906-11.973 35.476-11.973 16.507 0 28.408 3.999 35.394 11.881 8.153 9.208 6.818 21.013 6.808 21.109l-.043 27.468 1.59 1.436c1.73 1.561 2.684 3.652 2.684 5.893v17.08c0 3.436-2.337 6.553-5.69 7.589l-2.395.737-.771 2.385c-2.843 8.832-6.89 16.989-12.026 24.245-1.263 1.783-2.491 3.363-3.546 4.573l-1.195 1.363v17.823c0 7.767 4.317 14.753 11.265 18.222l40.795 20.395c.26.13.516.265.771.4-.515.391-1.045.752-1.566 1.128z" fill="#C3CAD6"/></svg>