<svg width="22" height="22" fill="none" xmlns="http://www.w3.org/2000/svg"><path d="M3.143 5.5a2.752 2.752 0 002.719-2.357h15.352a.393.393 0 100-.786H5.863A2.752 2.752 0 003.143 0a2.753 2.753 0 00-2.75 2.75 2.753 2.753 0 002.75 2.75zm0-4.714c1.083 0 1.964.88 1.964 1.964a1.967 1.967 0 01-1.964 1.964A1.967 1.967 0 011.18 2.75c0-1.083.881-1.964 1.964-1.964zM18.857 16.5a2.752 2.752 0 00-2.718 2.357H.786a.393.393 0 100 .786h15.353A2.752 2.752 0 0018.857 22a2.754 2.754 0 002.75-2.75 2.754 2.754 0 00-2.75-2.75zm0 4.714a1.966 1.966 0 01-1.964-1.964 1.966 1.966 0 013.929 0 1.966 1.966 0 01-1.965 1.964zm2.358-10.607h-7.32a2.834 2.834 0 00-2.813-2.52 2.835 2.835 0 00-2.814 2.52H.786a.393.393 0 100 .786h7.507a2.834 2.834 0 002.789 2.357 2.833 2.833 0 002.788-2.357h7.345a.393.393 0 100-.786zm-10.133 2.357a2.048 2.048 0 01-2.046-2.045c0-1.128.918-2.046 2.046-2.046 1.127 0 2.045.918 2.045 2.046a2.048 2.048 0 01-2.046 2.045z" fill="#3464E0"/></svg>