<svg width="113" height="62" fill="none" xmlns="http://www.w3.org/2000/svg"><g fill-rule="evenodd" clip-rule="evenodd"><path d="M8.705 0v18.223c2.8-3.31 6.159-4.976 10.055-4.976a12.57 12.57 0 015.412 1.126c1.616.748 2.826 1.705 3.63 2.872a10.428 10.428 0 011.674 3.881c.3 1.412.449 3.609.449 6.591v19.484H21.23V29.663c0-3.48-.158-5.688-.49-6.622a4.305 4.305 0 00-1.75-2.233 5.543 5.543 0 00-3.141-.84 7.143 7.143 0 00-3.863 1.079 6.094 6.094 0 00-2.493 3.208c-.53 1.429-.79 3.538-.778 6.327v16.637H0V0h8.705zm34.277 0v18.223c2.802-3.308 6.16-4.974 10.055-4.974a12.66 12.66 0 015.42 1.124c1.608.748 2.818 1.705 3.63 2.872a10.438 10.438 0 011.682 3.889c.299 1.412.449 3.608.449 6.591v19.483h-8.705V29.663c0-3.48-.166-5.688-.498-6.622a4.303 4.303 0 00-1.75-2.233c-.83-.557-1.882-.837-3.141-.837a7.143 7.143 0 00-3.86 1.076 6.168 6.168 0 00-2.494 3.208c-.518 1.429-.778 3.538-.778 6.327v16.637h-8.707V0h8.697zM.025 61.843v-9.52h1.162v3.915h4.541l-.01-3.914h1.161v9.52H5.718v-4.49H1.187v4.49H.025zM12.94 59.62l1.11.15a2.932 2.932 0 01-.97 1.642 2.742 2.742 0 01-1.815.59 2.786 2.786 0 01-2.203-.934c-.54-.616-.814-1.493-.814-2.61 0-1.157.275-2.053.822-2.7a2.703 2.703 0 012.139-.96 2.615 2.615 0 012.073.937c.54.631.812 1.509.812 2.651v.31H9.358a2.83 2.83 0 00.588 1.74 1.693 1.693 0 001.327.61c.368.007.726-.115 1.011-.345.318-.288.546-.662.656-1.075v-.005zm-3.523-1.88h3.544a2.485 2.485 0 00-.407-1.307 1.661 1.661 0 00-1.252-.67 1.683 1.683 0 00-1.317.531 2.259 2.259 0 00-.568 1.438v.007zm10.045 3.251a3.695 3.695 0 01-1.143.77 2.954 2.954 0 01-1.177.229 2.194 2.194 0 01-1.61-.557 1.966 1.966 0 01-.563-1.42c-.003-.319.07-.634.216-.919.129-.264.319-.494.554-.672a2.34 2.34 0 01.778-.385c.313-.081.632-.139.954-.172a8.684 8.684 0 001.916-.41v-.303a1.37 1.37 0 00-.306-1.001 1.71 1.71 0 00-1.219-.396 1.753 1.753 0 00-1.12.288 1.752 1.752 0 00-.518 1.026l-1.053-.156c.067-.424.228-.827.472-1.18.239-.322.568-.566.947-.701a4.03 4.03 0 011.433-.24 3.52 3.52 0 011.317.206c.29.103.547.28.746.514.172.238.286.513.332.803.047.356.066.716.06 1.075v1.56c-.019.686.004 1.372.067 2.054.04.296.129.584.262.852h-1.12a2.835 2.835 0 01-.225-.854v-.01zm-.083-2.6a7.543 7.543 0 01-1.753.431 3.456 3.456 0 00-.946.24.92.92 0 00-.415.377 1.065 1.065 0 00.174 1.329 1.282 1.282 0 00.951.318c.39.01.775-.09 1.11-.287a1.84 1.84 0 00.705-.822c.134-.373.193-.769.174-1.165v-.42zm6.803 3.465v-.87a1.914 1.914 0 01-.733.765c-.312.182-.67.273-1.032.262a2.286 2.286 0 01-1.392-.46 2.868 2.868 0 01-.99-1.275 4.579 4.579 0 01-.348-1.879 5.37 5.37 0 01.306-1.871c.183-.512.515-.959.954-1.283a2.38 2.38 0 011.42-.452c.355-.01.705.08 1.012.257.294.17.543.406.728.69v-3.416h1.063v9.532h-.988zm-3.37-3.447c0 .886.166 1.54.519 1.987a1.512 1.512 0 001.21.657 1.484 1.484 0 001.195-.624c.332-.426.498-1.06.498-1.92 0-.944-.174-1.632-.518-2.076a1.496 1.496 0 00-1.234-.657 1.473 1.473 0 00-1.195.631c-.34.414-.508 1.086-.5 1.99l.025.012zm6.158 3.434v-9.52h1.154v3.915h4.542v-3.914h1.161v9.52h-1.161v-4.49h-4.542v4.49h-1.153zm12.733.013V60.83a2.329 2.329 0 01-1.342 1.068 2.354 2.354 0 01-1.717-.134 1.726 1.726 0 01-.72-.583 2.362 2.362 0 01-.338-.865 6.624 6.624 0 01-.067-1.09v-4.277h1.076v3.827c-.01.412.012.824.067 1.232.048.286.2.545.428.727.228.182.516.274.809.259.324 0 .642-.094.912-.272a1.49 1.49 0 00.596-.73c.134-.434.193-.89.174-1.344v-3.699h1.07v6.907h-.948zm2.578 0V54.95h.962v.978c.2-.354.494-.646.85-.846.357-.2.762-.298 1.172-.286.358-.002.712.073 1.037.221.291.123.54.325.72.583.169.265.281.56.332.87.055.375.077.753.068 1.132v4.255h-1.079V57.65a3.38 3.38 0 00-.124-1.068 1.118 1.118 0 00-.44-.568 1.372 1.372 0 00-.755-.213 1.655 1.655 0 00-1.185.478c-.332.31-.497.911-.49 1.797l.016 3.78H44.28zm9.069-1.062l.158 1.026c-.266.069-.54.105-.814.108a1.652 1.652 0 01-.902-.205 1.08 1.08 0 01-.454-.514 4.746 4.746 0 01-.124-1.378v-3.978h-.796v-.904h.796v-1.706l1.068-.706v2.412h1.078v.904h-1.078v4.037c-.013.215.007.43.06.64.036.093.1.174.183.23a.758.758 0 00.374.083 2.83 2.83 0 00.45-.05zm5.33-1.174l1.102.15a2.982 2.982 0 01-.969 1.65 3.079 3.079 0 01-4.013-.352c-.547-.616-.822-1.493-.822-2.61 0-1.157.283-2.053.83-2.7a2.66 2.66 0 01.953-.724c.37-.167.772-.247 1.178-.236a2.637 2.637 0 012.074.937c.518.631.803 1.509.803 2.651v.31h-4.725a2.83 2.83 0 00.588 1.74 1.694 1.694 0 001.327.61c.368.007.726-.115 1.011-.345.318-.29.547-.663.664-1.075v-.005zm-3.522-1.88h3.53a2.485 2.485 0 00-.406-1.307 1.579 1.579 0 00-1.328-.672 1.62 1.62 0 00-1.244.533c-.35.4-.546.909-.552 1.438v.007zm5.902 4.116V54.95h.97v1.043c.15-.37.382-.7.68-.968.194-.149.433-.229.678-.229.4.009.789.14 1.11.378l-.373 1.083a1.405 1.405 0 00-.778-.257.965.965 0 00-.63.231c-.195.168-.334.39-.397.64a4.74 4.74 0 00-.173 1.362v3.624H61.06z" fill="#2E2014"/><path d="M75.324 34.791a16.941 16.941 0 012.901-9.48 17.195 17.195 0 017.732-6.285 17.39 17.39 0 019.955-.974 17.288 17.288 0 018.824 4.668 17.007 17.007 0 014.717 8.734c.666 3.31.325 6.74-.978 9.858a17.102 17.102 0 01-6.345 7.657 17.353 17.353 0 01-9.573 2.877 17.329 17.329 0 01-12.18-4.997 16.986 16.986 0 01-5.053-12.058z" fill="#fff" stroke="#fff" stroke-width="1.02" stroke-linejoin="bevel"/><path d="M113.001 34.2a20.6 20.6 0 01-3.532 11.528 20.908 20.908 0 01-9.404 7.642 21.151 21.151 0 01-12.108 1.18 21.02 21.02 0 01-10.73-5.678 20.686 20.686 0 01-5.734-10.623 20.558 20.558 0 011.192-11.989 20.795 20.795 0 017.718-9.311 21.104 21.104 0 0111.642-3.497c2.752 0 5.478.535 8.02 1.578a20.965 20.965 0 016.8 4.498 20.732 20.732 0 014.542 6.732 20.558 20.558 0 011.594 7.94z" fill="#CA2721"/><path d="M83.431 42.17h-4.07V26.95h3.772v2.158c.656-1.026 1.226-1.691 1.747-2.01a3.207 3.207 0 011.758-.492 5.205 5.205 0 012.677.77l-1.26 3.503a3.578 3.578 0 00-1.915-.657 2.308 2.308 0 00-1.441.46c-.4.31-.713.878-.939 1.683-.225.806-.332 2.52-.332 5.106l.003 4.7zm17.598 0v-2.274a5.997 5.997 0 01-2.206 1.92 6.24 6.24 0 01-2.893.698 5.61 5.61 0 01-2.766-.678 3.968 3.968 0 01-1.783-1.896c-.366-.804-.547-1.93-.547-3.365V26.95h4.062v6.984c0 2.143.075 3.454.223 3.932.134.462.42.867.811 1.15.446.292.974.439 1.509.418a3.201 3.201 0 001.866-.557 2.83 2.83 0 001.128-1.404c.207-.557.306-1.928.306-4.106V26.95h4.07v15.22h-3.78z" fill="#fff"/></g><defs><clipPath id="clip0"><path fill="#fff" d="M0 0h113v62H0z"/></clipPath></defs></svg>