<svg width="149" height="78" fill="none" xmlns="http://www.w3.org/2000/svg"><path d="M56.288 32.075c-1.415-.786-3.145-1.205-6.486-1.205h-5.818v16.234h5.608c3.656 0 5.634-.485 7.18-1.454 2.084-1.297 3.263-3.8 3.263-6.67 0-2.987-1.415-5.608-3.747-6.905zm-3.826 10.168c-.485.275-1.062.42-2.267.42h-.446v-7.364h.367c1.271 0 1.9.144 2.477.51.943.603 1.389 1.9 1.389 3.198-.013 1.415-.524 2.66-1.52 3.236zm57.155-4.953v-2.529h7.927V30.87h-13.692v16.22h13.901v-3.799h-8.136v-2.529h6.21V37.29h-6.21zM6.328 30.87v16.22h5.883V30.87H6.328zm60.889 0v16.22h5.87V30.87h-5.87zM26.035 40.88l9.918 6.761V30.87h-5.765v6.119l-9.918-6.63v16.745h5.765V40.88zM80.7 30.87v4.586h4.821v11.648h5.765V35.456h5.07V30.87H80.7zm52.003 12.16l2.594 4.074h6.945l-6.015-8.15 5.975-8.084h-6.931l-2.568 3.957-2.568-3.957h-6.932l5.975 8.11-6.014 8.124h6.944l2.595-4.075z" fill="#AF2912"/></svg>