<svg width="192" height="125" fill="none" xmlns="http://www.w3.org/2000/svg"><path d="M90.13 70.192h10.339v-4.807h-3.297v1.495h-3.74v-8.784h3.74v1.52h3.297v-4.808H90.13v15.384zm-13.07 0h10.339V54.808H77.064l-.004 15.384zm3.297-12.115h3.74v8.812h-3.74v-8.812zM65.458 70.192h3.298V58.077h5.827v-3.27h-9.12l-.005 15.385zm-12.96 0h10.34v-4.807H59.52v1.495h-3.739v-8.784h3.74v1.52h3.297v-4.808h-10.33l.01 15.384zm50.611 0h10.339v-4.807h-3.297v1.495h-3.739v-8.784h3.739v1.52h3.297v-4.808H103.1l.009 15.384zm25.335 0h3.297v-4.625h7.037v-10.76h-10.344l.01 15.385zm3.297-12.115h3.739v4.183h-3.739v-4.183zm33.639-3.27h-3.519l-1.805 5.996h-.878l-1.805-5.995h-3.518l2.616 7.644-2.837 7.74h3.518l2.026-6.125h.878l2.026 6.125h3.518l-2.836-7.774 2.616-7.61zM26.4 70.193h3.298v-4.625h7.042v-10.76H26.4v15.385zm3.298-12.115h3.74v4.183h-3.74v-4.183zm112.67-3.27l-1.497 15.385h3.297l.332-3.634h3.628l.332 3.634h3.297l-1.488-15.384h-7.901zm2.4 8.481l.48-5.177h2.112l.48 5.178h-3.072zm-105.35 6.904h10.34V54.808h-10.34v15.384zm3.302-12.096h3.74v8.813h-3.74v-8.813zm72.999 0h3.518v12.096h3.298V58.077h3.518v-3.27h-10.334v3.29z" fill="#742A19"/></svg>