<svg width="169" height="104" fill="none" xmlns="http://www.w3.org/2000/svg"><path d="M124.314 59.793l1.001-7.406c.241-1.886.728-4.716 1.349-8.073h-.14c-1.069 3.357-2.248 6.254-2.836 7.74l-2.975 7.255H117l-.207-7.256c-.033-1.45-.173-4.353-.072-7.74h-.067a167.72 167.72 0 01-1.695 8.074l-1.762 7.406h-4.334l5.98-23.553h5.393l.241 10.134c.033 1.713.106 4.475.033 6.08h.073a62.666 62.666 0 012.007-6.08l3.852-10.134h5.325l-3.009 23.553h-4.444z" fill="url(#paint0_linear)"/><path d="M93.596 59.294a9.698 9.698 0 01-3.255.417c-6.36 0-7.087-5.733-7.087-7.967 0-6.187 1.926-10.415 4.463-13.003a9.98 9.98 0 013.306-2.242 9.94 9.94 0 013.916-.762 6.85 6.85 0 012.803.542l-1.416 4.508a4.742 4.742 0 00-2.075-.348c-1.002 0-2.282.735-3.149 1.887-1.348 1.818-2.407 4.648-2.407 8.353 0 2.656.76 4.402 2.797 4.402a7.964 7.964 0 002.355-.348l-.25 4.562z" fill="url(#paint1_linear)"/><path d="M106.701 59.294a9.677 9.677 0 01-3.25.417c-6.365 0-7.088-5.733-7.088-7.967 0-6.187 1.926-10.415 4.464-13.003a9.972 9.972 0 017.222-3.004 6.842 6.842 0 012.797.542l-1.415 4.508a4.75 4.75 0 00-2.075-.348c-1.002 0-2.283.735-3.149 1.887-1.349 1.818-2.408 4.648-2.408 8.353 0 2.656.761 4.402 2.802 4.402a7.999 7.999 0 002.355-.348l-.255 4.562z" fill="url(#paint2_linear)"/><path d="M62.491 57.176c-1.083.672-2.605.653-4.507-.358-3.447-1.838-8.06-5.843-12.759-6.501-4.506-.63-6.514 1.934-6.851 2.762l-1.122 5.804c.337-.812 2.34-3.386 6.851-2.762 4.695.658 9.307 4.663 12.76 6.502 3.452 1.838 5.681.406 6.22-2.52v-.117.126a6.522 6.522 0 00-.592-2.936z" fill="#E5261E"/><path d="M79.705 49.465l.135-.096a9.474 9.474 0 002.464-3.32 9.516 9.516 0 00.82-4.057c-.007-.45-.058-.9-.154-1.34l-3.082 8.296c-.053.164-.116.338-.183.517z" fill="url(#paint3_linear)"/><path d="M82.973 40.633a6.04 6.04 0 00-1.334-2.82C80.05 36.1 77.49 35.82 75.9 35.82c-.794 0-1.704.043-2.614.125a29.54 29.54 0 00-2.503.324l-3.428 18.12a5.552 5.552 0 00.983 3.082 5.513 5.513 0 002.531 2.003h.482l1.478-7.74.082-.416h1.435a10.823 10.823 0 003.404-.75 8.325 8.325 0 001.926-1.088l.134-.097a9.472 9.472 0 002.464-3.319 9.515 9.515 0 00.82-4.058 6.756 6.756 0 00-.12-1.373zm-5.62 4.61a3.217 3.217 0 01-1.231 1.368 3.195 3.195 0 01-1.777.465h-.588l.227-1.21 1.083-5.78c.307-.066.62-.09.934-.073.316-.005.63.06.92.19.727.338 1.088 1.112 1.088 2.118a6.556 6.556 0 01-.655 2.94v-.019z" fill="url(#paint4_linear)"/><path d="M54.802 50.375c-2.196-2.013-2.196-3.638-1.984-5.05-2.109-1.263-4.362-2.36-6.63-2.68-4.507-.629-6.514 1.935-6.851 2.767l-1.122 5.804c.337-.817 2.34-3.386 6.851-2.762 4.695.658 9.307 4.668 12.755 6.502.88.51 1.873.79 2.889.812-1.763-2.269-4.377-4.01-5.908-5.393z" fill="#2C4F9E"/><path d="M64.518 51.836l1.088-6.25c.376-2.143-1.127-5.892-4.391-8.393-5.595-4.285-5.393-6.496-5.393-6.496s-.655 3.74-.92 5.268c-.264 1.528-.418 3.139 1.898 5.577s7.896 5.451 7.718 10.294z" fill="url(#paint5_linear)"/><path d="M65.933 43.748c.881-5.055.371-2.133 1.084-6.25.375-2.143-.366-5.026-4.391-8.392-5.412-4.523-5.398-6.497-5.398-6.497l-.895 5.268c-.265 1.533 0 3.488 1.897 5.577 2.243 2.477 7.872 5.452 7.703 10.294z" fill="url(#paint6_linear)"/><path d="M47.551 35.012c-4.511-.63-6.514 1.935-6.851 2.762l-1.122 5.804c.337-.817 2.34-3.386 6.852-2.762 2.33.325 4.632 1.476 6.788 2.777l1.021-5.863c-2.123-1.282-4.396-2.418-6.688-2.718z" fill="#fff"/><path d="M42.53 35.312c-1.15.696-1.656 2.065-1.825 2.476.366-.885 2.523-3.216 6.828-2.612a17.284 17.284 0 016.658 2.535c-1.55-1.074-3.52-2.902-6.572-3.26-1.955-.237-3.707.01-5.09.86zm-1.06 5.703c-1.151.691-1.657 2.06-1.825 2.476.365-.885 2.522-3.216 6.827-2.612a17.246 17.246 0 016.659 2.535c-1.55-1.074-3.52-2.902-6.572-3.26-1.95-.223-3.708.029-5.09.86z" fill="#2C4F9E"/><path d="M63.074 60.107l1.088-6.25c.376-2.147-1.132-5.891-4.391-8.397-5.59-4.29-5.364-6.496-5.364-6.496s-.65 3.739-.92 5.272c-.27 1.534-.596 3.309 1.883 5.587 2.48 2.279 7.887 5.442 7.704 10.284z" fill="url(#paint7_linear)"/><path d="M66.58 32.482a7.04 7.04 0 01.828 2.83l.178-1.006a30.533 30.533 0 00-.433-4.954l-.573 3.13z" fill="url(#paint8_linear)"/><path d="M57.389 21.84a6.78 6.78 0 00.991 1.76l1.108-6.288a7.657 7.657 0 00-1.228-.551l-.871 5.079z" fill="url(#paint9_linear)"/><path d="M59.588 25.047c.32.348.688.724 1.102 1.127l1.248-7.096a12.797 12.797 0 00-1.142-.934l-1.208 6.903z" fill="url(#paint10_linear)"/><path d="M61.953 27.33c.27.242.554.484.862.74l.27.232 1.15-6.535c-.327-.485-.68-.952-1.059-1.398l-1.223 6.961z" fill="url(#paint11_linear)"/><path d="M64.34 29.478c.384.391.748.803 1.088 1.233l.838-4.774c-.256-.764-.56-1.51-.91-2.235l-1.016 5.776z" fill="url(#paint12_linear)"/><path d="M67.286 69.815c.318-.057.64-.088.963-.091a1.569 1.569 0 011.165.43c.232.283.354.64.342 1.006.001.61-.22 1.2-.62 1.66a2.033 2.033 0 01-1.47.628c-.138 0-.276-.012-.413-.034l-.482 2.554h-.65l1.165-6.153zm.082 3.024c.117.028.237.041.356.038.963 0 1.358-.938 1.358-1.64 0-.56-.221-.967-.89-.967a2.079 2.079 0 00-.347.034l-.477 2.535zm3.863 3.197c-1.194 0-1.319-1.296-1.319-1.964 0-1.219.438-2.902 1.136-3.724a1.721 1.721 0 011.296-.673c1.174 0 1.285 1.224 1.285 2.008 0 1.088-.419 2.873-1.107 3.676a1.677 1.677 0 01-1.276.672l-.015.005zm.102-.6c1.097 0 1.593-2.868 1.593-3.734 0-.735-.043-1.451-.688-1.451-1.064 0-1.642 2.617-1.642 3.763 0 .523.029 1.403.722 1.403l.014.02zm5.053.445c-.26.104-.538.152-.818.14-1.286 0-1.599-1.15-1.599-2.157a4.978 4.978 0 011.166-3.42 2.32 2.32 0 011.66-.745c.212-.01.422.029.617.112l-.193.59a1.293 1.293 0 00-.481-.082 1.544 1.544 0 00-1.146.57 4.59 4.59 0 00-.91 2.796c0 1.026.245 1.732 1.05 1.732.216 0 .43-.04.63-.121l.024.585zm3.058 0a1.982 1.982 0 01-.814.14c-1.285 0-1.598-1.15-1.598-2.157a4.983 4.983 0 011.165-3.42 2.332 2.332 0 011.661-.745c.211-.008.422.03.616.112l-.192.59a1.29 1.29 0 00-.482-.082 1.545 1.545 0 00-1.146.57 4.585 4.585 0 00-.91 2.796c0 1.026.246 1.732 1.045 1.732.218.001.434-.04.636-.121l.02.585zm2.406-6.129l-.548 2.903c-.15.745-.303 1.417-.482 2.181h.03c.365-.764.799-1.509 1.165-2.176l1.651-2.903h.64l-1.174 6.187h-.607l.578-3.052a42.36 42.36 0 01.452-2.075 35.077 35.077 0 01-1.126 2.167l-1.7 2.96h-.655l1.175-6.21.602.019zm4.182 0l-.55 2.903a68.86 68.86 0 01-.48 2.181h.028c.366-.764.8-1.509 1.165-2.176l1.652-2.903h.64l-1.19 6.187h-.606l.578-3.052c.154-.813.303-1.451.453-2.075-.357.774-.732 1.45-1.127 2.167l-1.704 2.96h-.631l1.175-6.21.597.019zm.549-1.291a.486.486 0 00.289.478.62.62 0 00.828-.478h.481c-.048.269-.194.51-.41.678a1.095 1.095 0 01-.755.227.83.83 0 01-.885-.538.84.84 0 01-.05-.367h.502zm4.462 7.42a1.98 1.98 0 01-.819.14c-1.285 0-1.598-1.15-1.598-2.157a4.982 4.982 0 011.165-3.42 2.326 2.326 0 011.66-.745c.212-.01.423.029.617.112l-.192.59a1.29 1.29 0 00-.482-.082 1.541 1.541 0 00-1.146.57 4.575 4.575 0 00-.91 2.796c0 1.026.246 1.732 1.045 1.732.218 0 .433-.04.636-.121l.024.585zm2.446-6.129l-.534 2.84h.159L95 69.752h.732l-2.076 2.932c.636.184.756.803.78 1.61a9.19 9.19 0 00.102 1.67h-.65a12.471 12.471 0 01-.073-1.577c0-.765-.13-1.311-.828-1.311h-.1l-.56 2.902h-.654l1.175-6.21.64-.016zm3.471 0l-.549 2.903c-.144.745-.303 1.417-.481 2.181h.028c.366-.764.8-1.509 1.166-2.176l1.651-2.903h.64l-1.194 6.187h-.606l.578-3.052a42.16 42.16 0 01.452-2.075c-.356.774-.732 1.45-1.126 2.167l-1.705 2.96h-.65l1.175-6.21.621.019zm4.152 0l-.554 2.903c-.144.745-.303 1.417-.481 2.181h.028c.366-.764.8-1.509 1.166-2.176l1.651-2.903h.64l-1.17 6.187h-.606l.578-3.052c.154-.813.303-1.451.447-2.075-.356.774-.732 1.45-1.126 2.167l-1.695 2.96h-.65l1.175-6.21.597.019zm.549-1.291a.48.48 0 00.481.518.626.626 0 00.636-.518h.481a1.095 1.095 0 01-1.165.905.83.83 0 01-.885-.538.85.85 0 01-.049-.367h.501zm5.82 7.42c-.26.104-.539.152-.818.14-1.281 0-1.594-1.15-1.594-2.157a4.982 4.982 0 011.165-3.42 2.332 2.332 0 011.661-.745c.211-.01.422.029.617.112l-.193.59a1.281 1.281 0 00-.482-.082 1.542 1.542 0 00-1.145.57 4.567 4.567 0 00-.91 2.796c0 1.026.245 1.732 1.044 1.732.218 0 .434-.04.636-.121l.019.585zm1.945.155c-1.194 0-1.324-1.296-1.324-1.964 0-1.219.443-2.902 1.136-3.724a1.723 1.723 0 011.295-.673c1.175 0 1.286 1.224 1.286 2.008 0 1.088-.419 2.873-1.108 3.676a1.669 1.669 0 01-1.276.672l-.009.005zm.101-.6c1.102 0 1.598-2.868 1.598-3.734 0-.735-.048-1.451-.688-1.451-1.064 0-1.642 2.617-1.642 3.763 0 .523.029 1.403.727 1.403l.005.02zm4.261-5.683l-.515 2.694h.737a5.465 5.465 0 01.881-2.095 1.58 1.58 0 011.213-.672c1.103 0 1.228 1.224 1.228 2.007 0 1.089-.404 2.874-1.045 3.686a1.567 1.567 0 01-1.203.663c-1.146 0-1.276-1.296-1.276-1.964.005-.348.036-.696.091-1.04h-.751l-.539 2.912h-.66l1.199-6.191h.64zm1.368 5.707c1.035 0 1.497-2.868 1.497-3.724 0-.745-.048-1.451-.654-1.451-.992 0-1.522 2.617-1.522 3.763 0 .522.024 1.403.669 1.403l.01.01zm3.101-3.062h.164a1.276 1.276 0 001.214-.775 1.27 1.27 0 00.105-.497.767.767 0 00-.173-.588.751.751 0 00-.549-.268 1.473 1.473 0 00-.828.266l-.13-.484a2.126 2.126 0 011.132-.348 1.186 1.186 0 01.907.367 1.204 1.204 0 01.33.925 1.689 1.689 0 01-1.184 1.65v.038a1.352 1.352 0 01.9 1.407 1.947 1.947 0 01-.578 1.383 1.926 1.926 0 01-1.387.552 2.17 2.17 0 01-1.121-.285l.231-.556c.262.163.563.25.871.251a1.28 1.28 0 001.215-.86 1.31 1.31 0 00.071-.523 1.03 1.03 0 00-1.074-1.108h-.212l.096-.546zM68.764 85.865c-.26.104-.538.152-.818.14-1.286 0-1.594-1.155-1.594-2.157a4.983 4.983 0 011.165-3.42 2.342 2.342 0 011.661-.745c.22-.005.437.04.636.131l-.193.59a1.308 1.308 0 00-.481-.082 1.546 1.546 0 00-1.146.57 4.585 4.585 0 00-.91 2.797c0 1.02.25 1.731 1.045 1.731.217.001.433-.04.635-.12v.565zm3.376-2.883h-1.522l-.452 2.37h1.743l-.12.6H69.38l1.175-6.21h2.287l-.111.59h-1.623l-.404 2.084h1.531l-.096.566zm4.705-3.245l-1.184 6.21H75l1.074-5.62h-1.31l-.414 2.167c-.24 1.219-.482 2.23-.89 2.81a1.45 1.45 0 01-1.084.72l-.082-.58a1.102 1.102 0 00.722-.56 7.437 7.437 0 00.689-2.303l.544-2.84 2.595-.004zm1.758 0l-.482 2.515a1.6 1.6 0 01.482-.053c.91 0 1.415.629 1.415 1.538a2.217 2.217 0 01-.558 1.558 2.306 2.306 0 01-1.753.691 4.883 4.883 0 01-.9-.063l1.165-6.186h.63zm-1.084 5.66c.112.025.227.038.342.038a1.481 1.481 0 001.065-.492 1.495 1.495 0 00.38-1.114c0-.643-.241-1.079-.934-1.079a1.86 1.86 0 00-.347.049l-.506 2.597zm5.451.468a1.98 1.98 0 01-.819.14c-1.286 0-1.594-1.155-1.594-2.157a4.977 4.977 0 011.165-3.42 2.336 2.336 0 011.662-.745c.21-.008.421.03.616.112l-.193.59a1.295 1.295 0 00-.481-.083 1.546 1.546 0 00-1.146.571 4.576 4.576 0 00-.91 2.796c0 1.02.25 1.732 1.045 1.732.216 0 .43-.04.63-.121l.025.585zm2.445-6.128l-.53 2.839h.154l1.892-2.84h.732l-2.075 2.932c.636.184.751.803.78 1.61a9.376 9.376 0 00.101 1.67h-.66a12.528 12.528 0 01-.072-1.577c0-.765-.13-1.311-.823-1.311h-.101l-.563 2.902h-.65l1.174-6.21.64-.015zm3.119 6.288c-1.194 0-1.32-1.296-1.32-1.964 0-1.214.444-2.902 1.137-3.725a1.73 1.73 0 011.295-.672c1.175 0 1.286 1.224 1.286 2.007 0 1.089-.424 2.879-1.112 3.677a1.677 1.677 0 01-1.276.672l-.01.005zm.101-.6c1.103 0 1.599-2.868 1.599-3.734 0-.736-.048-1.451-.689-1.451-1.064 0-1.642 2.617-1.642 3.758 0 .527.024 1.403.727 1.403l.005.024zm4.213-5.688l-.549 2.902c-.144.745-.303 1.417-.481 2.181h.029c.366-.764.8-1.509 1.165-2.176l1.651-2.903h.646l-1.175 6.211h-.607l.578-3.052c.154-.813.303-1.451.448-2.075-.357.774-.732 1.451-1.127 2.167l-1.68 2.96h-.65l1.174-6.21.578-.005zm.55-1.292a.487.487 0 00.288.478.49.49 0 00.193.04.624.624 0 00.635-.518h.482a1.103 1.103 0 01-1.165.905.827.827 0 01-.683-.228.837.837 0 01-.252-.677h.501zm6.981 7.507l.481-3.54c.063-.528.164-1.04.265-1.67h-.014c-.222.644-.482 1.254-.689 1.752l-1.512 3.42h-.433l-.231-3.493a22.922 22.922 0 01-.039-1.678c-.149.643-.23 1.141-.356 1.678l-.819 3.531h-.606l1.526-6.21h.737l.212 3.593c.029.484.048.93.038 1.452h.039c.163-.484.356-.968.558-1.452l1.541-3.584h.761l-.824 6.211-.635-.01zm3.097.073c-1.195 0-1.32-1.296-1.32-1.964 0-1.214.438-2.902 1.137-3.725a1.713 1.713 0 011.295-.672c1.175 0 1.285 1.224 1.285 2.007 0 1.089-.419 2.879-1.107 3.677a1.673 1.673 0 01-1.276.672l-.014.005zm.101-.6c1.102 0 1.598-2.868 1.598-3.734 0-.736-.043-1.451-.688-1.451-1.064 0-1.642 2.617-1.642 3.758 0 .527.029 1.403.727 1.403l.005.024zm6.548-5.688l-1.184 6.21h-.66l1.064-5.625h-1.314l-.415 2.167c-.235 1.219-.481 2.23-.89 2.81a1.45 1.45 0 01-1.084.721l-.081-.58a1.096 1.096 0 00.722-.561 7.51 7.51 0 00.688-2.303l.544-2.84h2.61zm1.458 6.288c-1.194 0-1.319-1.296-1.319-1.964 0-1.214.438-2.902 1.136-3.725a1.719 1.719 0 011.295-.672c1.175 0 1.281 1.224 1.281 2.007 0 1.089-.419 2.879-1.108 3.677a1.668 1.668 0 01-1.275.672l-.01.005zm.101-.6c1.103 0 1.599-2.868 1.599-3.734 0-.736-.044-1.451-.689-1.451-1.064 0-1.642 2.617-1.642 3.758 0 .527.029 1.403.727 1.403l.005.024zm6.514-5.688l-1.064 5.61h.414l-.414 1.873h-.549l.222-1.292h-2.634l-.284 1.292h-.53l.294-1.872h.366c.326-.553.599-1.136.814-1.742a15.48 15.48 0 00.645-2.471l.265-1.403 2.455.005zm-2.162 1.606a18.623 18.623 0 01-.616 2.418 9.377 9.377 0 01-.737 1.606h1.772l.963-5.016h-1.194l-.188.992zm4.918 1.639h-1.546l-.447 2.37h1.743l-.121.6h-2.407l1.175-6.21h2.287l-.111.59h-1.623l-.404 2.084h1.531l-.077.566zm1.825-3.245l.76 2.839h.15l.539-2.84h.626l-.539 2.84h.163l1.835-2.84h.736l-2.051 2.98c.621.204.737.837.751 1.534-.013.576.021 1.151.102 1.722h-.665a10.952 10.952 0 01-.072-1.558c0-.784-.13-1.325-.79-1.325h-.101l-.549 2.902h-.635l.549-2.902h-.102c-.698 0-.963.551-1.275 1.335-.222.556-.434 1.122-.646 1.557h-.698c.276-.542.524-1.1.742-1.668.313-.813.65-1.495 1.391-1.611l-.891-2.932.67-.033zm5.487 0l-.548 2.902c-.145.745-.304 1.417-.482 2.181h.029c.366-.764.799-1.509 1.165-2.176l1.652-2.903h.64l-1.204 6.211h-.606l.577-3.052a43.58 43.58 0 01.453-2.075c-.361.774-.737 1.451-1.131 2.167l-1.7 2.96h-.65l1.175-6.21.63-.005z" fill="#0069B4"/><defs><linearGradient id="paint0_linear" x1="120.284" y1="41.034" x2="120.284" y2="60.673" gradientUnits="userSpaceOnUse"><stop offset=".01" stop-color="#FCBD1B"/><stop offset=".4" stop-color="#FDCE19"/><stop offset=".49" stop-color="#FBC018"/><stop offset=".81" stop-color="#F49617"/><stop offset=".97" stop-color="#F18516"/></linearGradient><linearGradient id="paint1_linear" x1="2806.23" y1="2055.61" x2="2806.23" y2="3029.34" gradientUnits="userSpaceOnUse"><stop offset=".01" stop-color="#FCBD1B"/><stop offset=".4" stop-color="#FDCE19"/><stop offset=".49" stop-color="#FBC018"/><stop offset=".81" stop-color="#F49617"/><stop offset=".97" stop-color="#F18516"/></linearGradient><linearGradient id="paint2_linear" x1="3212.81" y1="2055.6" x2="3212.81" y2="3029.32" gradientUnits="userSpaceOnUse"><stop offset=".01" stop-color="#FCBD1B"/><stop offset=".4" stop-color="#FDCE19"/><stop offset=".49" stop-color="#FBC018"/><stop offset=".81" stop-color="#F49617"/><stop offset=".97" stop-color="#F18516"/></linearGradient><linearGradient id="paint3_linear" x1="658.094" y1="782.916" x2="658.094" y2="1140.83" gradientUnits="userSpaceOnUse"><stop offset=".01" stop-color="#FCBD1B"/><stop offset=".4" stop-color="#FDCE19"/><stop offset=".49" stop-color="#FBC018"/><stop offset=".81" stop-color="#F49617"/><stop offset=".97" stop-color="#F18516"/></linearGradient><linearGradient id="paint4_linear" x1="2584.74" y1="1858.12" x2="2321.37" y2="2984.86" gradientUnits="userSpaceOnUse"><stop offset=".01" stop-color="#FCBD1B"/><stop offset=".4" stop-color="#FDCE19"/><stop offset=".49" stop-color="#FBC018"/><stop offset=".81" stop-color="#F49617"/><stop offset=".97" stop-color="#F18516"/></linearGradient><linearGradient id="paint5_linear" x1="1418.5" y1="1828.32" x2="1418.5" y2="2686.76" gradientUnits="userSpaceOnUse"><stop offset=".01" stop-color="#FCBD1B"/><stop offset=".4" stop-color="#FDCE19"/><stop offset=".49" stop-color="#FBC018"/><stop offset=".81" stop-color="#F49617"/><stop offset=".97" stop-color="#F18516"/></linearGradient><linearGradient id="paint6_linear" x1="1446.81" y1="1820.24" x2="1446.81" y2="2678.46" gradientUnits="userSpaceOnUse"><stop offset=".01" stop-color="#FCBD1B"/><stop offset=".4" stop-color="#FDCE19"/><stop offset=".49" stop-color="#FBC018"/><stop offset=".81" stop-color="#F49617"/><stop offset=".97" stop-color="#F18516"/></linearGradient><linearGradient id="paint7_linear" x1="1385.21" y1="1837" x2="1385.21" y2="2695.43" gradientUnits="userSpaceOnUse"><stop offset=".01" stop-color="#FCBD1B"/><stop offset=".4" stop-color="#FDCE19"/><stop offset=".49" stop-color="#FBC018"/><stop offset=".81" stop-color="#F49617"/><stop offset=".97" stop-color="#F18516"/></linearGradient><linearGradient id="paint8_linear" x1="206.756" y1="536.143" x2="206.756" y2="778.216" gradientUnits="userSpaceOnUse"><stop offset=".01" stop-color="#FCBD1B"/><stop offset=".4" stop-color="#FDCE19"/><stop offset=".49" stop-color="#FBC018"/><stop offset=".81" stop-color="#F49617"/><stop offset=".97" stop-color="#F18516"/></linearGradient><linearGradient id="paint9_linear" x1="312.175" y1="598.487" x2="312.175" y2="876.184" gradientUnits="userSpaceOnUse"><stop offset=".01" stop-color="#FCBD1B"/><stop offset=".4" stop-color="#FDCE19"/><stop offset=".49" stop-color="#FBC018"/><stop offset=".81" stop-color="#F49617"/><stop offset=".97" stop-color="#F18516"/></linearGradient><linearGradient id="paint10_linear" x1="356.11" y1="700.996" x2="356.11" y2="1027.08" gradientUnits="userSpaceOnUse"><stop offset=".01" stop-color="#FCBD1B"/><stop offset=".4" stop-color="#FDCE19"/><stop offset=".49" stop-color="#FBC018"/><stop offset=".81" stop-color="#F49617"/><stop offset=".97" stop-color="#F18516"/></linearGradient><linearGradient id="paint11_linear" x1="361.015" y1="695.073" x2="361.015" y2="1017.15" gradientUnits="userSpaceOnUse"><stop offset=".01" stop-color="#FCBD1B"/><stop offset=".4" stop-color="#FDCE19"/><stop offset=".49" stop-color="#FBC018"/><stop offset=".81" stop-color="#F49617"/><stop offset=".97" stop-color="#F18516"/></linearGradient><linearGradient id="paint12_linear" x1="325.552" y1="619.758" x2="325.552" y2="904.398" gradientUnits="userSpaceOnUse"><stop offset=".01" stop-color="#FCBD1B"/><stop offset=".4" stop-color="#FDCE19"/><stop offset=".49" stop-color="#FBC018"/><stop offset=".81" stop-color="#F49617"/><stop offset=".97" stop-color="#F18516"/></linearGradient></defs></svg>