<svg width="126" height="66" viewBox="0 0 126 66" fill="none" xmlns="http://www.w3.org/2000/svg">
<g >
<path d="M115.188 54.8134C115.188 58.1838 112.388 60.9444 108.999 60.9444H16.9797C13.5905 60.9444 10.8125 58.1838 10.8125 54.8134V11.1866C10.8125 7.80514 13.5905 5.04452 16.9797 5.04452H109.01C112.399 5.04452 115.199 7.80514 115.199 11.1866V54.8134H115.188Z" fill="#E30613"/>
<path d="M57.028 45.5115C57.1502 44.2698 57.7614 41.7974 60.6505 41.9083C62.9507 41.9083 63.8953 43.9372 64.0286 45.5115H57.028ZM67.2067 46.4095C67.2067 42.8063 64.762 39.07 60.6616 39.07C56.1946 39.07 53.8499 42.9393 53.8499 46.7532C53.8499 50.301 55.6723 54.4364 60.795 54.4364C63.5952 54.4364 66.9066 52.6404 66.9066 51.1215C66.9066 50.1791 66.2621 49.6802 65.651 49.6802C65.2176 49.6802 64.8398 49.9684 64.4175 50.301C63.7064 50.8554 62.7396 51.6093 60.8172 51.6093C58.6615 51.6093 57.1947 50.2012 57.028 48.0615C57.8058 48.0615 65.4843 48.0615 65.4843 48.0615C66.6622 48.0615 67.2067 47.5404 67.2067 46.4095ZM100.565 51.6093C97.9649 51.6093 97.0426 48.9928 97.0426 46.7532C97.0426 44.5137 97.9649 41.8972 100.565 41.8972C103.165 41.8972 104.099 44.5137 104.099 46.7532C104.099 49.0039 103.176 51.6093 100.565 51.6093ZM100.565 39.0811C96.187 39.0811 93.8868 42.9504 93.8868 46.7643C93.8868 50.5782 96.187 54.4475 100.565 54.4475C104.954 54.4475 107.244 50.5782 107.244 46.7643C107.244 42.9393 104.954 39.0811 100.565 39.0811ZM75.6852 41.8972C76.5186 41.8972 76.9631 42.1078 77.3742 42.3074C77.7187 42.4737 78.0743 42.64 78.5632 42.64C79.3744 42.64 79.9189 41.9194 79.9189 41.2541C79.9189 39.9459 78.2187 39.0589 75.6852 39.0589C70.9625 39.0589 68.8512 42.9172 68.8512 46.7421C68.8512 50.5671 70.9625 54.4253 75.6852 54.4253C78.4188 54.4253 79.8411 53.2945 79.8411 52.1858C79.8411 51.3543 79.3188 50.7999 78.5299 50.7999C78.1298 50.7999 77.8187 50.9551 77.5076 51.1325C77.0742 51.3543 76.5964 51.5982 75.6852 51.5982C72.7849 51.5982 72.0071 48.5493 72.0071 46.7421C72.0071 44.9572 72.7849 41.8972 75.6852 41.8972ZM31.8035 35.8438C31.5591 35.2229 31.1257 34.0809 29.7589 34.0809C28.4032 34.0809 27.981 35.1675 27.7254 35.8105C27.7143 35.8327 25.4696 41.8528 23.7028 46.5758H20.3247C19.1358 46.5758 18.7246 47.3187 18.7246 47.9617C18.7246 48.6269 19.1469 49.3365 20.3247 49.3365H22.6694C22.0471 50.9995 21.6249 52.1193 21.6249 52.1193C21.5249 52.3743 21.4026 52.7845 21.4026 53.1282C21.4026 53.7934 21.9027 54.4697 22.8472 54.4697C23.8473 54.4697 24.1695 53.8156 24.4029 53.3388L24.4584 53.228L25.7252 49.8021C25.7252 49.8021 25.803 49.5915 25.8919 49.3254H29.7811C30.9701 49.3254 31.3924 48.6158 31.3924 47.9506C31.3924 47.3076 30.9701 46.5647 29.7811 46.5647H26.9031C27.6587 44.5137 29.0033 40.8439 29.7589 38.815C30.559 40.9881 33.1481 48.0393 33.1592 48.0393L33.7926 49.791C33.7926 49.8021 35.0483 53.1947 35.0483 53.1947C35.215 53.6049 35.5372 54.4586 36.6706 54.4586C37.6263 54.4586 38.1263 53.7823 38.1263 53.1171C38.1263 52.7845 38.0041 52.3743 37.893 52.0971C37.8819 52.1193 31.8035 35.8438 31.8035 35.8438ZM88.2085 41.8972C89.0419 41.8972 89.4753 42.1078 89.8975 42.3074C90.242 42.4737 90.5976 42.64 91.0754 42.64C91.8866 42.64 92.4311 41.9194 92.4311 41.2541C92.4311 39.9459 90.731 39.0589 88.1974 39.0589C83.4748 39.0589 81.3523 42.9172 81.3523 46.7421C81.3523 50.5671 83.4748 54.4253 88.1974 54.4253C90.9199 54.4253 92.3533 53.2945 92.3533 52.1858C92.3533 51.3543 91.831 50.7999 91.0421 50.7999C90.6421 50.7999 90.342 50.9551 90.0087 51.1325C89.5753 51.3543 89.0975 51.5982 88.1974 51.5982C85.286 51.5982 84.5082 48.5493 84.5082 46.7421C84.5304 44.9572 85.2971 41.8972 88.2085 41.8972ZM45.3714 51.6093C42.7712 51.6093 41.8489 48.9928 41.8489 46.7532C41.8489 44.5137 42.7712 41.8972 45.3714 41.8972C47.9716 41.8972 48.8939 44.5137 48.8939 46.7532C48.8939 49.0039 47.9716 51.6093 45.3714 51.6093ZM50.2274 32.806C49.2829 32.806 48.6495 33.4712 48.6495 34.4579C48.6495 34.4579 48.6495 38.9813 48.6495 40.4226C47.8494 39.6909 46.6604 39.07 45.1825 39.07C40.9266 39.07 38.693 42.9393 38.693 46.7532C38.693 50.5671 40.9155 54.4364 45.1825 54.4364C46.7271 54.4364 47.905 53.9929 48.7161 53.1393C48.8606 53.9153 49.4162 54.4364 50.2385 54.4364C51.183 54.4364 51.8164 53.7712 51.8164 52.7845V34.469C51.8053 33.4712 51.1719 32.806 50.2274 32.806Z" fill="white"/>
</g>
</svg>
