<svg width="24" height="18" viewBox="0 0 24 18" fill="none" xmlns="http://www.w3.org/2000/svg">
<path d="M0.0509655 8.82327C-0.0182942 8.99059 -0.0182942 9.17917 0.0509655 9.34718C0.0859387 9.43152 0.136684 9.50764 0.199771 9.57142L8.42795 17.7989C8.69608 18.067 9.12946 18.067 9.39759 17.7989C9.66571 17.5308 9.66571 17.0974 9.39759 16.8293L2.33927 9.77096L23.3133 9.77096C23.6918 9.77096 23.999 9.46444 23.999 9.08522C23.999 8.70601 23.6918 8.39949 23.3133 8.39949L2.33927 8.39949L9.39759 1.34118C9.66571 1.07305 9.66571 0.639665 9.39759 0.371541C9.26387 0.237823 9.08832 0.170621 8.91277 0.170621C8.73722 0.170621 8.56167 0.237823 8.42795 0.371541L0.199771 8.59972C0.136684 8.66281 0.0859386 8.73893 0.0509655 8.82327Z" fill="#C3CAD6"/>
</svg>
