<svg width="130" height="129" viewBox="0 0 491 473" fill="#fff" xmlns="http://www.w3.org/2000/svg">
    <path
        d="M378 236.5C378 163.442 318.558 104 245.5 104C172.442 104 113 163.442 113 236.5C113 275.089 129.594 309.871 156.007 334.107L155.882 334.217L160.18 337.841C160.459 338.077 160.763 338.27 161.042 338.501C163.326 340.394 165.692 342.192 168.101 343.931C168.881 344.495 169.662 345.058 170.457 345.608C173.03 347.381 175.67 349.062 178.368 350.657C178.956 351.004 179.549 351.341 180.141 351.679C183.095 353.36 186.111 354.945 189.2 356.4C189.426 356.506 189.657 356.603 189.884 356.709C199.949 361.387 210.693 364.823 221.929 366.851C222.223 366.904 222.517 366.957 222.816 367.01C226.304 367.612 229.831 368.094 233.402 368.417C233.835 368.456 234.269 368.48 234.707 368.518C238.263 368.812 241.857 369 245.5 369C249.109 369 252.669 368.812 256.206 368.528C256.654 368.489 257.102 368.465 257.55 368.427C261.092 368.104 264.59 367.636 268.044 367.044C268.343 366.991 268.647 366.938 268.945 366.88C280.013 364.895 290.603 361.537 300.538 356.979C300.904 356.81 301.275 356.651 301.641 356.478C304.614 355.08 307.52 353.572 310.367 351.968C311.075 351.568 311.779 351.163 312.482 350.749C315.075 349.221 317.623 347.627 320.1 345.931C320.991 345.323 321.863 344.683 322.745 344.047C324.86 342.524 326.937 340.953 328.956 339.31C329.404 338.949 329.886 338.636 330.324 338.265L334.733 334.584L334.603 334.473C361.247 310.228 378 275.286 378 236.5ZM122.636 236.5C122.636 168.752 177.752 113.636 245.5 113.636C313.248 113.636 368.364 168.752 368.364 236.5C368.364 273.007 352.343 305.829 326.98 328.349C325.564 327.371 324.138 326.494 322.678 325.762L281.882 305.366C278.22 303.535 275.946 299.854 275.946 295.764V281.516C276.89 280.35 277.888 279.03 278.919 277.58C284.2 270.121 288.435 261.824 291.523 252.896C297.628 249.996 301.569 243.915 301.569 237.049V219.969C301.569 215.791 300.037 211.739 297.295 208.555V186.068C297.546 183.567 298.433 169.455 288.223 157.814C279.343 147.677 264.97 142.545 245.5 142.545C226.03 142.545 211.657 147.677 202.777 157.809C192.567 169.45 193.454 183.563 193.705 186.063V208.55C190.968 211.735 189.431 215.787 189.431 219.964V237.044C189.431 242.349 191.811 247.298 195.887 250.637C199.79 265.925 207.822 277.498 210.79 281.42V295.364C210.79 299.295 208.646 302.909 205.191 304.798L167.094 325.579C165.88 326.239 164.675 327.01 163.47 327.872C138.421 305.361 122.636 272.742 122.636 236.5ZM317.575 335.909C315.889 337.133 314.174 338.318 312.434 339.45C311.634 339.97 310.839 340.491 310.025 340.997C307.751 342.404 305.438 343.743 303.077 344.996C302.557 345.27 302.032 345.531 301.507 345.8C296.081 348.581 290.468 350.97 284.701 352.912C284.498 352.98 284.296 353.052 284.089 353.119C281.068 354.121 278.008 355.013 274.915 355.779C274.905 355.779 274.896 355.784 274.886 355.784C271.764 356.555 268.603 357.195 265.423 357.721C265.336 357.735 265.25 357.754 265.163 357.769C262.171 358.255 259.155 358.607 256.129 358.872C255.594 358.92 255.059 358.954 254.52 358.993C251.528 359.219 248.521 359.364 245.5 359.364C242.445 359.364 239.4 359.214 236.37 358.988C235.844 358.949 235.319 358.916 234.799 358.867C231.744 358.598 228.704 358.236 225.692 357.745C225.558 357.721 225.423 357.696 225.288 357.672C218.918 356.608 212.65 355.042 206.545 352.994C206.357 352.931 206.164 352.864 205.976 352.801C202.946 351.77 199.949 350.628 197.005 349.366C196.986 349.356 196.962 349.347 196.942 349.337C194.157 348.137 191.426 346.807 188.727 345.405C188.376 345.222 188.019 345.049 187.672 344.861C185.21 343.546 182.801 342.124 180.426 340.64C179.722 340.197 179.024 339.749 178.33 339.296C176.142 337.865 173.984 336.376 171.883 334.801C171.666 334.637 171.459 334.463 171.242 334.299C171.396 334.213 171.551 334.126 171.705 334.039L209.802 313.258C216.355 309.683 220.426 302.827 220.426 295.364L220.421 278.009L219.313 276.669C219.207 276.549 208.79 263.877 204.854 246.719L204.415 244.811L202.772 243.747C200.455 242.248 199.067 239.743 199.067 237.04V219.959C199.067 217.719 200.016 215.632 201.751 214.067L203.341 212.631V185.793L203.298 185.162C203.283 185.047 201.862 173.459 210.024 164.155C216.991 156.215 228.93 152.182 245.5 152.182C262.007 152.182 273.908 156.181 280.894 164.063C289.047 173.271 287.712 185.076 287.702 185.172L287.659 212.64L289.249 214.076C290.979 215.637 291.933 217.728 291.933 219.969V237.049C291.933 240.485 289.596 243.602 286.243 244.638L283.848 245.375L283.077 247.76C280.234 256.592 276.187 264.749 271.051 272.005C269.788 273.788 268.56 275.368 267.505 276.578L266.31 277.941V295.764C266.31 303.531 270.627 310.517 277.575 313.986L318.37 334.381C318.63 334.511 318.886 334.646 319.141 334.781C318.626 335.172 318.096 335.533 317.575 335.909Z"
        fill="#C3CAD6" />
</svg>