<svg width="113" height="62" viewBox="0 0 113 62" fill="none" xmlns="http://www.w3.org/2000/svg">
<g>
<path fill-rule="evenodd" clip-rule="evenodd" d="M8.70467 0V18.2232C11.5043 14.9122 14.8638 13.2465 18.7599 13.2465C20.6265 13.216 22.4763 13.601 24.1724 14.3732C25.7883 15.121 26.998 16.0784 27.8015 17.2453C28.6197 18.4131 29.1894 19.7335 29.4761 21.1261C29.7751 22.5378 29.9246 24.7348 29.9246 27.7173V47.2007H21.2303V29.6628C21.2303 26.1824 21.0721 23.9751 20.7403 23.0408C20.4279 22.1225 19.8113 21.3356 18.9906 20.8078C18.0528 20.2207 16.9576 19.9282 15.8488 19.9685C14.4834 19.9521 13.1422 20.3264 11.9864 21.0465C10.8097 21.8028 9.92979 22.935 9.49271 24.2548C8.96216 25.6836 8.70294 27.7925 8.71504 30.5816V47.2187H0V0H8.70467Z" fill="#2E2014"/>
<path fill-rule="evenodd" clip-rule="evenodd" d="M42.982 0V18.2232C45.7842 14.9148 49.1412 13.249 53.0373 13.249C54.906 13.2196 56.7579 13.6037 58.4576 14.3732C60.0648 15.121 61.2745 16.0784 62.0867 17.2453C62.9083 18.4149 63.4807 19.738 63.769 21.1338C64.068 22.5455 64.2175 24.7425 64.2175 27.725V47.2084H55.5128V29.6628C55.5128 26.1824 55.3469 23.9751 55.0151 23.0408C54.7029 22.1224 54.0863 21.3355 53.2654 20.8078C52.4359 20.2509 51.3834 19.9711 50.1236 19.9711C48.7593 19.9544 47.4191 20.3278 46.2638 21.0465C45.0912 21.8072 44.2125 22.9378 43.7701 24.2548C43.2516 25.6836 42.9924 27.7925 42.9924 30.5816V47.2187H34.2852V0H42.982Z" fill="#2E2014"/>
<path fill-rule="evenodd" clip-rule="evenodd" d="M0.0253906 61.8434V52.3237H1.1867V56.2379H5.72827L5.7179 52.3237H6.87922V61.8434H5.7179V57.3544H1.1867V61.8434H0.0253906Z" fill="#2E2014"/>
<path fill-rule="evenodd" clip-rule="evenodd" d="M12.94 59.6207L14.0494 59.7696C13.9192 60.4085 13.5781 60.9863 13.0799 61.4123C12.5669 61.8194 11.9224 62.0291 11.2654 62.0026C10.8508 62.0207 10.4375 61.9461 10.0561 61.7843C9.67462 61.6226 9.33486 61.3779 9.062 61.0683C8.52282 60.4523 8.24805 59.5745 8.24805 58.4581C8.24805 57.3005 8.52282 56.4047 9.06978 55.7579C9.3293 55.4477 9.65673 55.2001 10.0273 55.0338C10.3978 54.8675 10.8017 54.7868 11.2084 54.798C11.6033 54.7874 11.9954 54.8663 12.3548 55.0286C12.7142 55.191 13.0314 55.4325 13.2821 55.7348C13.8213 56.3662 14.0935 57.244 14.0935 58.3862C14.0935 58.4504 14.0935 58.5582 14.0935 58.6968H9.35752C9.35484 59.3251 9.56168 59.9368 9.94595 60.4369C10.1073 60.63 10.3102 60.7848 10.5399 60.8901C10.7696 60.9953 11.0201 61.0484 11.2732 61.0452C11.6406 61.0525 11.9988 60.9306 12.2841 60.7013C12.6023 60.4125 12.8299 60.0392 12.94 59.6259V59.6207ZM9.41714 57.7394H12.9607C12.9501 57.275 12.8092 56.8226 12.5537 56.433C12.4079 56.2369 12.2201 56.0752 12.0037 55.9595C11.7874 55.8438 11.5478 55.777 11.3023 55.7637C11.0568 55.7505 10.8113 55.7912 10.5835 55.8829C10.3558 55.9747 10.1513 56.1152 9.98483 56.2944C9.63198 56.6932 9.43115 57.2017 9.41714 57.7317V57.7394Z" fill="#2E2014"/>
<path fill-rule="evenodd" clip-rule="evenodd" d="M19.4616 60.9913C19.1329 61.3169 18.7451 61.5782 18.3185 61.7613C17.9463 61.917 17.5456 61.9948 17.1416 61.9897C16.8492 62.0091 16.5559 61.9697 16.2793 61.874C16.0027 61.7783 15.7484 61.6282 15.5318 61.4328C15.3474 61.2452 15.2026 61.023 15.106 60.7793C15.0094 60.5355 14.9629 60.2752 14.9693 60.0134C14.9659 59.6945 15.0397 59.3794 15.1845 59.0945C15.3136 58.8304 15.5036 58.6001 15.7392 58.4221C15.9718 58.2466 16.2356 58.116 16.5169 58.0371C16.8299 57.9555 17.1488 57.898 17.4708 57.8651C18.1231 57.8009 18.7658 57.6631 19.3865 57.4545C19.3865 57.2979 19.3865 57.1978 19.3865 57.1516C19.4213 56.7911 19.3114 56.4315 19.0806 56.1506C18.7423 55.8663 18.3049 55.7244 17.8623 55.7553C17.4668 55.7218 17.0716 55.8233 16.7424 56.0428C16.4585 56.3179 16.2759 56.6794 16.224 57.0695L15.1715 56.9129C15.2375 56.4893 15.3987 56.0858 15.6433 55.7322C15.8817 55.411 16.211 55.1672 16.5895 55.0315C17.0485 54.8658 17.5344 54.7849 18.023 54.7928C18.4712 54.7768 18.9183 54.8466 19.3398 54.9982C19.6299 55.1013 19.8874 55.2783 20.0864 55.5115C20.2584 55.7502 20.372 56.0252 20.4182 56.3149C20.4645 56.6714 20.4844 57.0308 20.4778 57.3903V58.9508C20.4593 59.636 20.4818 60.3216 20.5452 61.0041C20.5855 61.3003 20.6739 61.588 20.807 61.8563H19.6872C19.5677 61.5847 19.4916 61.2963 19.4616 61.0016V60.9913ZM19.3787 58.3913C18.8143 58.6046 18.2259 58.7493 17.6264 58.8225C17.3011 58.857 16.9825 58.9373 16.6802 59.0612C16.5056 59.1411 16.3606 59.273 16.2654 59.4385C16.1376 59.6467 16.0852 59.8918 16.1167 60.1334C16.1483 60.375 16.262 60.5989 16.4391 60.768C16.5678 60.8819 16.7184 60.9688 16.8819 61.0235C17.0454 61.0782 17.2184 61.0996 17.3905 61.0863C17.7803 61.0965 18.1651 60.9968 18.4999 60.7988C18.8127 60.6011 19.0583 60.315 19.205 59.9775C19.3392 59.604 19.3982 59.2081 19.3787 58.8122V58.3913Z" fill="#2E2014"/>
<path fill-rule="evenodd" clip-rule="evenodd" d="M26.1822 61.8563V60.9862C26.0154 61.3045 25.7612 61.5697 25.4489 61.7514C25.1366 61.933 24.7789 62.0236 24.4169 62.0128C23.9143 62.0164 23.4247 61.8548 23.0249 61.5534C22.5785 61.2306 22.2348 60.7879 22.0346 60.2778C21.7879 59.6823 21.6696 59.0424 21.6873 58.399C21.6776 57.7624 21.7812 57.129 21.9931 56.5279C22.1759 56.0161 22.5079 55.5695 22.9471 55.2446C23.3589 54.9461 23.8573 54.7877 24.3676 54.7928C24.7222 54.7837 25.0722 54.8726 25.3786 55.0495C25.6728 55.2198 25.9223 55.4563 26.107 55.7399V52.3237H27.1698V61.8563H26.1822ZM22.8123 58.4093C22.8123 59.2947 22.9782 59.9492 23.3307 60.3958C23.4656 60.5924 23.6457 60.7544 23.8561 60.8687C24.0666 60.9829 24.3014 61.046 24.5413 61.0529C24.7763 61.0509 25.0074 60.9933 25.2153 60.8848C25.4232 60.7763 25.6019 60.62 25.7363 60.4292C26.0681 60.0031 26.234 59.3692 26.234 58.5094C26.234 57.5648 26.0603 56.877 25.7156 56.4329C25.5794 56.2323 25.3958 56.0676 25.1808 55.9531C24.9658 55.8386 24.7258 55.7778 24.4817 55.7759C24.2458 55.7779 24.014 55.8363 23.8059 55.9463C23.5978 56.0562 23.4196 56.2144 23.2867 56.4073C22.9471 56.8205 22.7786 57.493 22.7864 58.3964L22.8123 58.4093Z" fill="#2E2014"/>
<path fill-rule="evenodd" clip-rule="evenodd" d="M28.9707 61.8434V52.3237H30.1242V56.2379H34.6658V52.3237H35.8271V61.8434H34.6658V57.3544H30.1242V61.8434H28.9707Z" fill="#2E2014"/>
<path fill-rule="evenodd" clip-rule="evenodd" d="M41.7029 61.8563V60.8296C41.4095 61.3422 40.9294 61.7244 40.3608 61.8981C39.7922 62.0718 39.1781 62.0238 38.6441 61.7639C38.3546 61.6385 38.1054 61.437 37.9234 61.1812C37.7548 60.9176 37.6403 60.6237 37.5864 60.3163C37.5339 59.9551 37.5114 59.5903 37.519 59.2255V54.9494H38.5948V58.7763C38.5845 59.1881 38.607 59.6 38.6622 60.0083C38.7097 60.2945 38.8621 60.5532 39.0902 60.7351C39.3183 60.9169 39.6062 61.0091 39.8987 60.9939C40.2233 60.9941 40.5407 60.8995 40.8112 60.7218C41.0842 60.5489 41.2933 60.2932 41.4074 59.9929C41.5414 59.5575 41.6001 59.1028 41.5811 58.648V54.9494H42.6516V61.8563H41.7029Z" fill="#2E2014"/>
<path fill-rule="evenodd" clip-rule="evenodd" d="M44.2812 61.8562V54.9494H45.243V55.9273C45.443 55.5734 45.7374 55.2807 46.0939 55.0811C46.4505 54.8815 46.8555 54.7827 47.2649 54.7954C47.6227 54.7927 47.9767 54.868 48.3018 55.0161C48.593 55.1387 48.8429 55.3407 49.0224 55.5987C49.1906 55.8639 49.3034 56.1598 49.3542 56.4688C49.4086 56.8436 49.4311 57.2222 49.4216 57.6007V61.8562H48.3433V57.6495C48.3586 57.2893 48.3166 56.929 48.2188 56.5818C48.1388 56.3499 47.9839 56.1506 47.7781 56.0145C47.5533 55.8718 47.2909 55.7977 47.0238 55.8015C46.8041 55.7985 46.5861 55.8392 46.3826 55.9212C46.1791 56.0032 45.9943 56.1249 45.8392 56.2789C45.5074 56.5895 45.3415 57.1901 45.3492 58.0756L45.3648 61.8562H44.2812Z" fill="#2E2014"/>
<path fill-rule="evenodd" clip-rule="evenodd" d="M53.3498 60.7937L53.5079 61.8204C53.242 61.889 52.9687 61.9252 52.6939 61.9282C52.3796 61.947 52.0664 61.8757 51.7918 61.7228C51.5884 61.605 51.4292 61.4248 51.3382 61.2095C51.2296 60.7585 51.1877 60.2942 51.2138 59.8312V55.8529H50.418V54.9494H51.2138V53.2426L52.2818 52.5368V54.9494H53.3601V55.8529H52.2818V59.8902C52.2685 60.105 52.2886 60.3206 52.3414 60.5293C52.3776 60.6231 52.4418 60.7037 52.5254 60.7603C52.6406 60.8191 52.7692 60.8474 52.8987 60.8425C53.0501 60.838 53.201 60.8217 53.3498 60.7937Z" fill="#2E2014"/>
<path fill-rule="evenodd" clip-rule="evenodd" d="M58.6808 59.6207L59.7825 59.7696C59.6503 60.4099 59.3098 60.9896 58.813 61.42C58.2148 61.853 57.478 62.0561 56.7398 61.9914C56.0017 61.9267 55.3124 61.5987 54.8002 61.0683C54.2533 60.4523 53.9785 59.5745 53.9785 58.458C53.9785 57.3005 54.2611 56.4047 54.808 55.7579C55.0658 55.4477 55.3918 55.2 55.7611 55.0336C56.1304 54.8673 56.5333 54.7867 56.9388 54.798C57.3335 54.7891 57.7251 54.8687 58.0842 55.031C58.4434 55.1932 58.7607 55.4339 59.0126 55.7348C59.531 56.3662 59.8162 57.244 59.8162 58.3862C59.8162 58.4504 59.8162 58.5582 59.8162 58.6967H55.0906C55.0881 59.3251 55.2949 59.9367 55.679 60.4369C55.8404 60.63 56.0433 60.7848 56.273 60.8901C56.5026 60.9953 56.7532 61.0484 57.0062 61.0452C57.3737 61.0525 57.7318 60.9306 58.0172 60.7013C58.3348 60.4107 58.5645 60.0383 58.6808 59.6259V59.6207ZM55.158 57.7394H58.6886C58.678 57.275 58.5371 56.8226 58.2816 56.433C58.1331 56.2216 57.9344 56.0497 57.7029 55.9324C57.4714 55.8152 57.2144 55.7561 56.9544 55.7605C56.7202 55.7542 56.4874 55.7987 56.2725 55.8909C56.0575 55.9831 55.8656 56.1208 55.7101 56.2944C55.3594 56.6933 55.1637 57.2028 55.158 57.7317V57.7394Z" fill="#2E2014"/>
<path fill-rule="evenodd" clip-rule="evenodd" d="M61.0605 61.8563V54.9494H62.03V55.9915C62.1801 55.6225 62.4122 55.2918 62.7092 55.0239C62.9038 54.8754 63.1427 54.795 63.3884 54.7954C63.7888 54.8039 64.1766 54.9358 64.4978 55.1727L64.1246 56.2558C63.8972 56.0951 63.6262 56.0057 63.3469 55.9992C63.1157 55.9985 62.892 56.0805 62.717 56.2302C62.5216 56.3978 62.3831 56.6209 62.3204 56.8693C62.1966 57.3129 62.1381 57.772 62.1467 58.2322V61.8563H61.0605Z" fill="#2E2014"/>
<path fill-rule="evenodd" clip-rule="evenodd" d="M75.3242 34.791C75.3232 31.4166 76.3328 28.1177 78.2254 25.3115C80.118 22.5053 82.8085 20.3178 85.9567 19.0257C89.1049 17.7336 92.5694 17.3948 95.9121 18.0523C99.2547 18.7098 102.325 20.334 104.736 22.7195C107.146 25.105 108.788 28.1446 109.453 31.454C110.119 34.7634 109.778 38.1939 108.475 41.3116C107.171 44.4294 104.963 47.0944 102.13 48.9695C99.2966 50.8447 95.9653 51.8459 92.5573 51.8464C87.9888 51.8443 83.6079 50.047 80.3767 46.8492C77.1455 43.6513 75.3283 39.3144 75.3242 34.791Z" fill="white" stroke="white" stroke-width="1.02" stroke-linejoin="bevel"/>
<path fill-rule="evenodd" clip-rule="evenodd" d="M113.001 34.2006C113.001 38.3043 111.772 42.3159 109.469 45.728C107.167 49.1401 103.894 51.7996 100.065 53.37C96.2356 54.9404 92.0221 55.3513 87.9571 54.5507C83.8922 53.7501 80.1583 51.774 77.2276 48.8722C74.2969 45.9704 72.3011 42.2734 71.4925 38.2485C70.6839 34.2236 71.0989 30.0517 72.685 26.2604C74.2711 22.469 76.957 19.2285 80.4031 16.9486C83.8492 14.6687 87.9007 13.4518 92.0453 13.4518C94.7975 13.4511 97.5227 13.9873 100.065 15.0298C102.608 16.0723 104.919 17.6006 106.865 19.5275C108.811 21.4543 110.354 23.7419 111.407 26.2596C112.46 28.7772 113.002 31.4756 113.001 34.2006Z" fill="#CA2721"/>
<path fill-rule="evenodd" clip-rule="evenodd" d="M83.4311 42.1701H79.3613V26.9499H83.133V29.1084C83.7888 28.0818 84.3591 27.417 84.8802 27.0987C85.4048 26.768 86.0158 26.5967 86.6377 26.6059C87.5847 26.6147 88.511 26.8811 89.3155 27.3759L88.0556 30.8794C87.4951 30.4809 86.8294 30.2526 86.14 30.2223C85.6209 30.2094 85.1127 30.3714 84.6987 30.6818C84.2995 30.9923 83.9858 31.5596 83.7603 32.3655C83.5348 33.1714 83.4285 34.8859 83.4285 37.4706L83.4311 42.1701Z" fill="white"/>
<path fill-rule="evenodd" clip-rule="evenodd" d="M101.029 42.1701V39.896C100.465 40.7066 99.7075 41.3663 98.8232 41.8159C97.9306 42.2782 96.9376 42.5178 95.9303 42.514C94.9646 42.5296 94.0114 42.2961 93.1644 41.8364C92.3715 41.4206 91.7433 40.7524 91.3809 39.9396C91.0154 39.1363 90.834 38.0095 90.834 36.5748V26.9498H94.896V33.9337C94.896 36.0768 94.9712 37.3884 95.1189 37.8658C95.2526 38.3278 95.5381 38.7325 95.9303 39.0157C96.3765 39.3082 96.9042 39.4545 97.439 39.434C98.1047 39.4465 98.7575 39.2517 99.3054 38.8771C99.8254 38.5429 100.221 38.05 100.433 37.4731C100.64 36.9161 100.739 35.5455 100.739 33.3665V26.9498H104.809V42.1701H101.029Z" fill="white"/>
</g>
<defs>
<clipPath id="clip0">
<rect width="113" height="62" fill="white"/>
</clipPath>
</defs>
</svg>
