<svg width="192" height="125" viewBox="0 0 192 125" fill="none" xmlns="http://www.w3.org/2000/svg">
<g >
<path d="M90.13 70.1923H100.469V65.3846H97.1716V66.8798H93.4324V58.0962H97.1716V59.6154H100.469V54.8077H90.13V70.1923ZM77.0596 70.1923H87.3988V54.8077H77.0644L77.0596 70.1923ZM80.3572 58.0769H84.0964V66.8894H80.3572V58.0769ZM65.458 70.1923H68.7556V58.0769H74.5828V54.8077H65.4628L65.458 70.1923ZM52.498 70.1923H62.8372V65.3846H59.5204V66.8798H55.7812V58.0962H59.5204V59.6154H62.818V54.8077H52.4884L52.498 70.1923ZM103.109 70.1923H113.448V65.3846H110.151V66.8798H106.412V58.0962H110.151V59.6154H113.448V54.8077H103.1L103.109 70.1923ZM128.444 70.1923H131.741V65.5673H138.778V54.8077H128.434L128.444 70.1923ZM131.741 58.0769H135.48V62.2596H131.741V58.0769ZM165.38 54.8077H161.861L160.056 60.8029H159.178L157.373 54.8077H153.855L156.471 62.4519L153.634 70.1923H157.152L159.178 64.0673H160.056L162.082 70.1923H165.6L162.764 62.4183L165.38 54.8077ZM26.4004 70.1923H29.698V65.5673H36.7396V54.8077H26.4004V70.1923ZM29.698 58.0769H33.4372V62.2596H29.698V58.0769ZM142.368 54.8077L140.871 70.1923H144.168L144.5 66.5577H148.128L148.46 70.1923H151.757L150.269 54.8077H142.368ZM144.768 63.2885L145.248 58.1106H147.36L147.84 63.2885H144.768ZM39.418 70.1923H49.7572V54.8077H39.418V70.1923ZM42.7204 58.0962H46.4596V66.9087H42.7204V58.0962ZM115.719 58.0962H119.237V70.1923H122.535V58.0769H126.053V54.8077H115.719V58.0962Z" fill="#742A19"/>
</g>
</svg>
