<svg width="22" height="22" viewBox="0 0 22 22" fill="none" xmlns="http://www.w3.org/2000/svg">
<path fill-rule="evenodd" clip-rule="evenodd" d="M2.82233 2.8678C2.55336 3.1792 2.30052 3.50604 2.0652 3.84688L6.70114 6.63701L16.598 0.66467C16.1959 0.416452 15.7774 0.194159 15.3444 0L6.70114 5.1979L2.82233 2.8678ZM0.922301 5.93313C1.08155 5.55494 1.25983 5.18737 1.45587 4.83182L6.70114 7.98276L17.647 1.40018C17.986 1.66855 18.3096 1.95693 18.6162 2.26366L6.72914 9.43597L0.922301 5.93313ZM11 22C17.0751 22 22 16.8672 22 10.5356C22 8.63231 21.555 6.83738 20.7675 5.25762L6.67579 13.7382L0.0257183 9.74545C0.00866564 10.0065 0 10.27 0 10.5356C0 16.8672 4.92486 22 11 22ZM19.446 3.19026C19.703 3.51089 19.9435 3.84636 20.1661 4.19528L6.67579 12.2764L0.192382 8.38964C0.271871 7.95212 0.375213 7.52345 0.500944 7.10501L6.72914 10.8605L19.446 3.19026Z" fill="white"/>
</svg>
